<svg xmlns="http://www.w3.org/2000/svg" xml:space="preserve" viewBox="0 0 512 512"><path fill="#2997FC" d="M180 513H1V1h512v512H274l-20-86-10-42 6-1 45-11c20-6 38-16 53-32 17-16 30-36 36-59 4-21 6-42-3-63-3-8-6-16-11-23-13-25-34-41-59-52a136 136 0 0 0-179 79c-7 19-10 39-5 59l53 231z"/><path fill="#FDFEFE" d="m180 513-53-231c-5-20-2-40 5-59a130 130 0 0 1 85-83 132 132 0 0 1 153 56c5 7 8 15 11 23 9 21 7 42 3 63-6 23-19 43-36 59-15 16-33 26-53 32l-45 11-6 1 10 42 19 86h-93m92-233 11-6c13-10 14-28 4-37-21-19-54-10-66 14-7 13-2 27 1 40l50-11z"/><path fill="#2C99FC" d="m272 280-50 11c-3-13-8-27-1-40 12-24 45-33 66-14 10 9 9 27-4 37l-11 6z"/></svg>
