<?xml version="1.0" encoding="utf-8"?>
<!-- Generator: Adobe Illustrator 24.2.1, SVG Export Plug-In . SVG Version: 6.00 Build 0)  -->
<svg version="1.1" id="레이어_1" xmlns="http://www.w3.org/2000/svg" xmlns:xlink="http://www.w3.org/1999/xlink" x="0px"
	 y="0px" viewBox="0 0 75.6 103" style="enable-background:new 0 0 75.6 103;" xml:space="preserve">
<style type="text/css">
	.st0{fill:#7532A8;}
	.st1{fill:#FFFFFF;}
</style>
<g id="레이어_2_1_">
	<g id="레이어_1-2">
		<path class="st0" d="M75.6,38.4c0-5.7-4.1-10.6-9.8-11.6c3.7-5.3,2.4-12.7-2.9-16.4c-4-2.8-9.4-2.8-13.4,0c-1-5.7-5.9-9.9-11.7-10
			c-5.7,0-10.6,4.1-11.6,9.8c-4.7-3.3-11-2.7-15,1.3C7,15.7,6.6,22.2,10.1,26.7C4.3,27.6,0,32.6,0,38.5s4.3,10.6,9.9,11.7
			c-3.3,4.7-2.8,11,1.4,15c4.1,3.9,10.3,4.5,15.1,1.5c1.1,5.6,6,9.6,11.6,9.6c5.7,0,10.7-4.4,11.7-10c5.3,3.8,12.7,2.5,16.5-2.8
			c2.8-4,2.9-9.3,0.2-13.4C71.5,49,75.6,44.2,75.6,38.4L75.6,38.4z"/>
		<path class="st1" d="M30.2,36.8l3-3c1-1.3,0.9-3.1-0.4-4.2c-1.1-0.9-2.7-0.9-3.8,0l-3,3l-3-3c-1.2-1.1-3.1-0.9-4.2,0.3
			c-0.9,1.1-0.9,2.7,0,3.8l3,3l-3,3c-1.1,1.2-1.2,3-0.1,4.2s3,1.3,4.2,0.2c0.1-0.1,0.2-0.1,0.2-0.2l3-3l3,3c1.3,1,3.1,0.9,4.2-0.4
			c0.9-1.1,0.9-2.7,0-3.8L30.2,36.8z"/>
		<path class="st1" d="M53.5,36.8l3-3c1.3-1,1.4-2.9,0.4-4.2s-2.9-1.4-4.2-0.4c-0.1,0.1-0.3,0.2-0.4,0.4l-3,3l-3-3
			c-1-1.2-2.9-1.4-4.2-0.4s-1.4,2.9-0.4,4.2c0.1,0.1,0.2,0.3,0.4,0.4l3,3l-3,3c-1.2,1.1-1.4,2.9-0.3,4.2c1.1,1.2,2.9,1.4,4.2,0.3
			c0.1-0.1,0.2-0.2,0.3-0.3l3-3l3,3c1.1,1.2,2.9,1.3,4.2,0.3c1.2-1.1,1.3-2.9,0.3-4.2c-0.1-0.1-0.2-0.2-0.3-0.3L53.5,36.8z"/>
		<g>
			<path class="st0" d="M15.1,90.4h-1.9v10.8h1.9v2.4h-4.2V87.9h4.2V90.4z"/>
			<path class="st0" d="M29.5,97.2h1.6v2.3h-1.6v2.9h-2.3v-2.9h-6v-2.3l6-8.4h2.3V97.2z M27.3,97.2v-4.5L24,97.2H27.3z"/>
			<path class="st0" d="M37.8,88.8c3.2,0,5.3,2.6,5.3,6.8c0,4.3-2.2,6.8-5.3,6.8c-3.2,0-5.3-2.6-5.3-6.8S34.7,88.8,37.8,88.8z
				 M40.7,95.7c0-3.2-1-4.3-2.7-4.3c-1.9,0-2.9,1.2-2.9,4.3c0,3.2,1,4.3,2.9,4.3C39.7,100,40.7,98.9,40.7,95.7L40.7,95.7z"/>
			<path class="st0" d="M54.1,98.6c0,2.3-1.7,3.9-4.8,3.9s-4.8-1.7-4.8-4.2h2.4c0,0.9,0.6,1.9,2.3,1.9s2.4-0.9,2.4-1.9
				s-0.6-1.7-2.4-1.7h-0.9v-2.2h1c1.4,0,2.2-0.9,2.2-1.7s-0.7-1.6-2.2-1.6c-1.4,0-2,0.7-2,1.6H45c0-2.3,1.7-3.9,4.5-3.9
				c2.7,0,4.5,1.6,4.5,3.6c0,1.3-0.9,2.3-2,2.9C53.1,96.2,54.1,97.3,54.1,98.6z"/>
			<path class="st0" d="M64.5,87.9v15.7h-4.2v-2.4h1.9V90.4h-1.9V88C60.3,87.9,64.5,87.9,64.5,87.9z"/>
		</g>
	</g>
</g>
</svg>
