<?xml version="1.0" encoding="utf-8"?>
<!-- Generator: Adobe Illustrator 24.2.1, SVG Export Plug-In . SVG Version: 6.00 Build 0)  -->
<svg version="1.1" id="레이어_1" xmlns="http://www.w3.org/2000/svg" xmlns:xlink="http://www.w3.org/1999/xlink" x="0px"
	 y="0px" viewBox="0 0 75.6 103" style="enable-background:new 0 0 75.6 103;" xml:space="preserve">
<style type="text/css">
	.st0{fill:#F15353;}
	.st1{fill:#FFFFFF;}
	.st2{display:none;}
	.st3{display:inline;}
	.st4{fill:#7532A8;}
</style>
<g id="레이어_2_2_">
	<g id="레이어_1-2_1_">
		<path class="st0" d="M75.6,37.9c0-5.7-4.1-10.6-9.8-11.6c3.7-5.3,2.4-12.7-2.9-16.4c-4-2.8-9.4-2.8-13.4,0c-1-5.7-5.9-9.9-11.7-10
			c-5.7,0-10.6,4.1-11.6,9.8c-4.7-3.3-11-2.7-15,1.3C7,15.2,6.6,21.7,10.1,26.2C4.3,27.1,0,32.1,0,38s4.3,10.6,9.9,11.6
			c-3.3,4.7-2.8,11.1,1.4,15.1c4.1,3.9,10.3,4.5,15.1,1.5c1.1,5.6,6,9.6,11.6,9.6c5.7,0,10.7-4.4,11.7-10c5.3,3.8,12.7,2.5,16.5-2.8
			c2.8-4,2.9-9.3,0.2-13.4C71.5,48.5,75.6,43.7,75.6,37.9L75.6,37.9z"/>
		<path class="st1" d="M30.2,36.3l3-3c1-1.3,0.9-3.1-0.4-4.2c-1.1-0.9-2.7-0.9-3.8,0l-3,3l-3-3c-1.2-1.1-3.1-0.9-4.2,0.3
			c-0.9,1.1-0.9,2.7,0,3.8l3,3l-3,3c-1.1,1.2-1.2,3-0.1,4.2s3,1.3,4.2,0.2c0.1-0.1,0.2-0.1,0.2-0.2l3-3l3,3c1.3,1,3.1,0.9,4.2-0.4
			c0.9-1.1,0.9-2.7,0-3.8L30.2,36.3z"/>
		<path class="st1" d="M53.5,36.3l3-3c1.3-1,1.4-2.9,0.4-4.2s-2.9-1.4-4.2-0.4c-0.1,0.1-0.3,0.2-0.4,0.4l-3,3l-3-3
			c-1-1.2-2.9-1.4-4.2-0.4c-1.2,1-1.4,2.9-0.4,4.2c0.1,0.1,0.2,0.3,0.4,0.4l3,3l-3,3c-1.2,1.1-1.4,2.9-0.3,4.2
			c1.1,1.2,2.9,1.4,4.2,0.3c0.1-0.1,0.2-0.2,0.3-0.3l3-3l3,3c1.1,1.2,2.9,1.3,4.2,0.3c1.2-1.1,1.3-2.9,0.3-4.2
			c-0.1-0.1-0.2-0.2-0.3-0.3L53.5,36.3z"/>
		<g>
			<path class="st0" d="M15.2,90.1h-1.7v10.2h1.7v2.7h-4.3V87.5h4.3V90.1z"/>
			<path class="st0" d="M29.6,96.6H31v2.6h-1.4v2.7h-2.4v-2.7h-5.9v-2.4l5.9-8.2h2.4V96.6z M27,96.6v-4l-2.9,4H27z"/>
			<path class="st0" d="M37.7,88.4c3.2,0,5.3,2.6,5.3,6.8c0,4.2-2.2,6.8-5.3,6.8c-3.3,0-5.3-2.7-5.3-6.8S34.5,88.4,37.7,88.4z
				 M40.3,95.1c0-3-0.9-4-2.6-4s-2.6,1-2.6,4s0.9,4,2.6,4S40.3,98.2,40.3,95.1z"/>
			<path class="st0" d="M52.8,96.6h1.4v2.6h-1.4v2.7h-2.4v-2.7h-5.9v-2.4l5.9-8.2h2.4V96.6z M50.4,96.6v-4l-2.9,4H50.4z"/>
			<path class="st0" d="M64.5,87.5v15.6h-4.3v-2.7h1.7V90.1h-1.7v-2.6H64.5z"/>
		</g>
	</g>
</g>
<g id="레이어_2_3_" class="st2">
	<g id="레이어_1-2_2_" class="st3">
		<path class="st4" d="M75.6,42.5c0-5.7-4.1-10.6-9.8-11.6c3.7-5.3,2.4-12.7-2.9-16.4c-4-2.8-9.4-2.8-13.4,0c-1-5.7-5.9-9.9-11.7-10
			c-5.7,0-10.6,4.1-11.6,9.8c-4.7-3.3-11-2.7-15,1.3C7,19.8,6.6,26.3,10.1,30.8C4.3,31.7,0,36.7,0,42.6s4.3,10.6,9.9,11.6
			c-3.3,4.7-2.8,11.1,1.4,15.1c4.1,3.9,10.3,4.5,15.1,1.5c1.1,5.6,6,9.6,11.6,9.6c5.7,0,10.7-4.4,11.7-10c5.3,3.8,12.7,2.5,16.5-2.8
			c2.8-4,2.9-9.3,0.2-13.4C71.5,53.1,75.6,48.3,75.6,42.5L75.6,42.5z"/>
		<path class="st1" d="M30.2,40.9l3-3c1-1.3,0.9-3.1-0.4-4.2c-1.1-0.9-2.7-0.9-3.8,0l-3,3l-3-3c-1.2-1.1-3.1-0.9-4.2,0.3
			c-0.9,1.1-0.9,2.7,0,3.8l3,3l-3,3c-1.1,1.2-1.2,3-0.1,4.2s3,1.3,4.2,0.2c0.1-0.1,0.2-0.1,0.2-0.2l3-3l3,3c1.3,1,3.1,0.9,4.2-0.4
			c0.9-1.1,0.9-2.7,0-3.8L30.2,40.9z"/>
		<path class="st1" d="M53.5,40.9l3-3c1.3-1,1.4-2.9,0.4-4.2s-2.9-1.4-4.2-0.4c-0.1,0.1-0.3,0.2-0.4,0.4l-3,3l-3-3
			c-1-1.2-2.9-1.4-4.2-0.4s-1.4,2.9-0.4,4.2c0.1,0.1,0.2,0.3,0.4,0.4l3,3l-3,3c-1.2,1.1-1.4,2.9-0.3,4.2c1.1,1.2,2.9,1.4,4.2,0.3
			c0.1-0.1,0.2-0.2,0.3-0.3l3-3l3,3c1.1,1.2,2.9,1.3,4.2,0.3c1.2-1.1,1.3-2.9,0.3-4.2c-0.1-0.1-0.2-0.2-0.3-0.3L53.5,40.9z"/>
		<g>
			<path class="st4" d="M22,91.8h-1.3v7.5H22v1.7h-2.9V90.1H22V91.8z"/>
			<path class="st4" d="M32,96.5h1.1v1.6H32v2h-1.6v-2h-4.2v-1.6l4.2-5.8H32V96.5z M30.5,96.5v-3.1l-2.3,3.1H30.5z"/>
			<path class="st4" d="M37.8,90.7c2.2,0,3.7,1.8,3.7,4.7c0,3-1.5,4.7-3.7,4.7s-3.7-1.8-3.7-4.7S35.6,90.7,37.8,90.7z M39.8,95.5
				c0-2.2-0.7-3-1.9-3c-1.3,0-2,0.8-2,3s0.7,3,2,3C39.1,98.5,39.8,97.7,39.8,95.5L39.8,95.5z"/>
			<path class="st4" d="M49.1,97.5c0,1.6-1.2,2.7-3.3,2.7s-3.3-1.2-3.3-2.9h1.7c0,0.6,0.4,1.3,1.6,1.3c1.2,0,1.7-0.6,1.7-1.3
				c0-0.7-0.4-1.2-1.7-1.2h-0.6v-1.5h0.7c1,0,1.5-0.6,1.5-1.2s-0.5-1.1-1.5-1.1s-1.4,0.5-1.4,1.1h-1.7c0-1.6,1.2-2.7,3.1-2.7
				c1.9,0,3.1,1.1,3.1,2.5c0,0.9-0.6,1.6-1.4,2C48.4,95.8,49.1,96.6,49.1,97.5z"/>
			<path class="st4" d="M56.3,90.1V101h-2.9v-1.7h1.3v-7.5h-1.3v-1.7C53.4,90.1,56.3,90.1,56.3,90.1z"/>
		</g>
	</g>
</g>
</svg>
