<?xml version="1.0" encoding="utf-8"?>
<!-- Generator: Adobe Illustrator 24.2.1, SVG Export Plug-In . SVG Version: 6.00 Build 0)  -->
<svg version="1.1" id="레이어_1" xmlns="http://www.w3.org/2000/svg" xmlns:xlink="http://www.w3.org/1999/xlink" x="0px"
	 y="0px" viewBox="0 0 75.6 103" style="enable-background:new 0 0 75.6 103;" xml:space="preserve">
<style type="text/css">
	.st0{fill:#F8DB3B;}
	.st1{fill:#101820;}
	.st2{fill:#0F171F;}
</style>
<g id="레이어_1-2_2_">
	<path class="st0" d="M75.6,38c0-5.7-4.1-10.6-9.8-11.6c3.7-5.3,2.4-12.7-2.9-16.4c-4-2.8-9.4-2.8-13.4,0c-1-5.7-5.9-9.9-11.7-10
		c-5.7,0-10.6,4.1-11.6,9.8c-4.7-3.3-11-2.7-15,1.3C7,15.3,6.6,21.8,10.1,26.3C4.3,27.2,0,32.2,0,38.1s4.3,10.6,9.9,11.6
		c-3.3,4.7-2.8,11.1,1.4,15.1c4.1,3.9,10.3,4.5,15.1,1.5c1.1,5.6,6,9.6,11.6,9.6c5.7,0,10.7-4.4,11.7-10c5.3,3.8,12.7,2.5,16.5-2.8
		c2.8-4,2.9-9.3,0.2-13.4C71.5,48.6,75.6,43.7,75.6,38L75.6,38z"/>
	<path class="st1" d="M27.7,36.7c1.2-0.8,2.2-1.9,2.2-3.1c0-1.7-1.1-2.8-3.1-2.8c-0.9,0-1.7,0.4-2.1,1.2c-0.5,0.8-1.4,1.2-2.3,1l0,0
		c-1.2-0.2-2-1.4-1.7-2.6c0.1-0.3,0.2-0.5,0.3-0.8c1.4-2.2,3.8-3.4,5.9-3.4c4.1,0,7.6,3.4,7.6,7.2c0,2.9-2.2,5.3-4.1,6.7
		c-0.8,0.6-1.2,0.8-1.3,1.4c-0.3,1-1.1,1.6-2.1,1.6l0,0c-1.2,0-2.2-1-2.2-2.2c0-0.2,0-0.4,0.1-0.5C25.4,38.4,26.7,37.4,27.7,36.7z
		 M26.7,45c1.2-0.1,2.2,0.8,2.2,2c0,0.1,0,0.2,0,0.3c0,1.2-0.8,2.2-2.2,2.2s-2.2-1-2.2-2.2c-0.1-1.2,0.8-2.2,2-2.2
		C26.6,44.9,26.7,44.9,26.7,45L26.7,45z"/>
	<path class="st1" d="M48.2,36.7c1.2-0.8,2.2-1.9,2.2-3.1c0-1.7-1.1-2.8-3.1-2.8c-0.9,0-1.7,0.4-2.1,1.2c-0.5,0.8-1.4,1.2-2.3,1l0,0
		c-1.2-0.2-2-1.4-1.7-2.6c0.1-0.3,0.2-0.5,0.3-0.8c1.4-2.2,3.8-3.4,5.9-3.4c4.1,0,7.6,3.4,7.6,7.2c0,2.9-2.2,5.3-4.1,6.7
		c-0.8,0.6-1.2,0.8-1.3,1.4c-0.3,1-1.1,1.6-2.1,1.6l0,0c-1.2,0-2.2-1-2.2-2.2c0-0.2,0-0.4,0.1-0.5C45.9,38.4,47.2,37.4,48.2,36.7z
		 M47.2,45c1.2-0.1,2.2,0.8,2.2,2c0,0.1,0,0.2,0,0.3c0,1.2-0.8,2.2-2.2,2.2s-2.2-1-2.2-2.2c-0.1-1.2,0.8-2.2,2-2.2
		C47.1,44.9,47.1,44.9,47.2,45z"/>
	<g>
		<path class="st2" d="M14.8,90.1h-1.7v10.2h1.7v2.7h-4.3V87.3h4.3V90.1z"/>
		<path class="st2" d="M23.4,98c0.3,1,1.2,1.6,2.2,1.6c1.3,0,2.2-0.7,2.2-2s-0.9-2-2.2-2c-0.7,0-1.3,0.3-1.7,0.7l0,0L21.2,96
			l0.6-7.5h7.5v2.7h-5l-0.1,1.7c0.4-0.1,0.9-0.1,1.3-0.1c2.4,0,4.9,1.9,4.9,4.8c0,2.7-2.4,4.8-4.9,4.8c-2,0-4.3-1.6-4.8-3.7L23.4,98
			z"/>
		<path class="st2" d="M37.2,88.3c3.2,0,5.3,2.6,5.3,6.8s-2.2,6.8-5.3,6.8c-3.2,0-5.3-2.7-5.3-6.8C31.9,90.9,34.1,88.3,37.2,88.3z
			 M39.8,95.1c0-3-0.9-4-2.6-4c-1.7,0-2.6,1-2.6,4s0.9,4,2.6,4C39,99.1,39.8,98,39.8,95.1z"/>
		<path class="st2" d="M49.3,88.3c3.2,0,5.3,2.6,5.3,6.8s-2.2,6.8-5.3,6.8c-3.2,0-5.3-2.7-5.3-6.8C44,90.9,46,88.3,49.3,88.3z
			 M51.9,95.1c0-3-0.9-4-2.6-4s-2.6,1-2.6,4s0.9,4,2.6,4C51.1,99.1,51.9,98,51.9,95.1z"/>
		<path class="st2" d="M65,87.3v15.6h-4.3v-2.7h1.7V89.9h-1.7v-2.6H65z"/>
	</g>
</g>
</svg>
