<svg viewBox="0 0 16 16" xmlns="http://www.w3.org/2000/svg">
  <path
    d="M15.0401 10.8667L9.92677 2.38669C9.72001 2.06323 9.43514 1.79704 9.09843 1.61265C8.76172 1.42825 8.384 1.3316 8.00011 1.3316C7.61621 1.3316 7.2385 1.42825 6.90179 1.61265C6.56507 1.79704 6.2802 2.06323 6.07344 2.38669L0.960108 10.8667C0.779477 11.1678 0.6813 11.5111 0.675449 11.8622C0.669597 12.2133 0.756277 12.5597 0.926774 12.8667C1.12389 13.2122 1.40921 13.4992 1.75358 13.6983C2.09794 13.8974 2.48899 14.0015 2.88677 14H13.1134C13.5086 14.0042 13.8979 13.9041 14.242 13.7098C14.5862 13.5155 14.8729 13.2339 15.0734 12.8934C15.2489 12.5832 15.3384 12.2318 15.3325 11.8755C15.3267 11.5192 15.2257 11.1709 15.0401 10.8667ZM8.00011 11.3334C7.86825 11.3334 7.73936 11.2943 7.62973 11.221C7.52009 11.1477 7.43465 11.0436 7.38419 10.9218C7.33373 10.8 7.32053 10.6659 7.34625 10.5366C7.37197 10.4073 7.43547 10.2885 7.5287 10.1953C7.62194 10.102 7.74073 10.0386 7.87005 10.0128C7.99937 9.98711 8.13341 10.0003 8.25523 10.0508C8.37705 10.1012 8.48117 10.1867 8.55442 10.2963C8.62768 10.4059 8.66677 10.5348 8.66677 10.6667C8.66677 10.8435 8.59654 11.0131 8.47151 11.1381C8.34649 11.2631 8.17692 11.3334 8.00011 11.3334ZM8.66677 8.66669C8.66677 8.8435 8.59654 9.01307 8.47151 9.13809C8.34649 9.26312 8.17692 9.33335 8.00011 9.33335C7.8233 9.33335 7.65373 9.26312 7.5287 9.13809C7.40368 9.01307 7.33344 8.8435 7.33344 8.66669V6.00002C7.33344 5.82321 7.40368 5.65364 7.5287 5.52862C7.65373 5.40359 7.8233 5.33335 8.00011 5.33335C8.17692 5.33335 8.34649 5.40359 8.47151 5.52862C8.59654 5.65364 8.66677 5.82321 8.66677 6.00002V8.66669Z"
    fill="#1C1917"
  />
</svg>
