<svg viewBox="0 0 40 43" xmlns="http://www.w3.org/2000/svg">
  <path
    fill-rule="evenodd"
    clip-rule="evenodd"
    d="M13.7156 24.9626C12.8682 24.9626 12.1789 24.2378 12.1789 23.3467C12.1789 22.4555 12.8682 21.7307 13.7156 21.7307C14.563 21.7307 15.2523 22.4555 15.2523 23.3467C15.2523 24.2378 14.563 24.9626 13.7156 24.9626ZM13.9733 20.1741C13.3675 20.1741 12.8069 20.3999 12.3948 20.8099L12.2529 20.9508V17.7579H10.639V23.2145C10.639 25.2504 11.7964 26.5153 13.6595 26.5153C15.4813 26.5153 16.8034 25.1844 16.8034 23.3506C16.8034 21.51 15.613 20.1741 13.9733 20.1741ZM8.06207 17.7581L4.93292 21.6341V17.7581H3.33301V26.2722H4.93292V22.4303L8.12563 26.2722H10.1823L6.64993 22.0151L10.0867 17.7581H8.06207ZM34.868 20.3616H36.6666L34.2742 23.3168L36.6666 26.272H34.868L32.8017 23.7197V26.272H31.1871V17.7579H32.8017V22.9139L34.868 20.3616ZM28.1593 20.1906C27.1911 20.1906 26.5936 20.6759 26.3083 21.016V20.3918H24.7943V26.2721H26.3628L26.3627 23.0697C26.3627 22.2693 26.8832 21.7101 27.534 21.7101C28.185 21.7101 28.7054 22.2693 28.7054 23.0697V26.2721H30.2738V22.5654C30.2738 21.1895 29.3426 20.1906 28.1593 20.1906ZM19.0903 23.3551C19.0903 24.2438 19.771 24.9668 20.6077 24.9668C21.4445 24.9668 22.1251 24.2438 22.1251 23.3551C22.1251 22.4662 21.4445 21.7433 20.6077 21.7433C19.771 21.7433 19.0903 22.4662 19.0903 23.3551ZM17.4884 23.3588C17.4884 21.523 18.7801 20.1906 20.5595 20.1906C22.3519 20.1906 23.6528 21.523 23.6528 23.3588V26.3172H22.2031V25.4773L22.1127 25.6099C22.1066 25.6189 21.4838 26.5154 20.3184 26.5154C18.6786 26.5154 17.4884 25.1878 17.4884 23.3588Z"
    fill="#0F0060"
  />
</svg>
