<svg viewBox="0 0 40 40" xmlns="http://www.w3.org/2000/svg">
  <path
    fill-rule="evenodd"
    clip-rule="evenodd"
    d="M38.2002 19.2465C38.2002 28.9505 30.0172 36.8108 19.9372 36.8108C9.84756 36.8108 1.6665 28.9505 1.6665 19.2465C1.6665 9.5462 9.84756 1.68042 19.9372 1.68042C30.0172 1.68042 38.2002 9.5462 38.2002 19.2465Z"
    fill="#FEFEFE"
  />
  <path
    fill-rule="evenodd"
    clip-rule="evenodd"
    d="M19.9375 35.9254C29.5509 35.9254 37.3399 28.4357 37.3399 19.1917C37.3399 9.94225 29.5509 2.44885 19.9375 2.44885C10.3202 2.44885 2.5293 9.94225 2.5293 19.1917C2.5293 28.4393 10.3202 35.9254 19.9375 35.9254Z"
    fill="#0083C9"
  />
  <mask id="mask0_2_133" style="mask-type:luminance" maskUnits="userSpaceOnUse" x="2" y="2" width="36" height="34">
    <path
      fill-rule="evenodd"
      clip-rule="evenodd"
      d="M19.9335 2.44519C29.5546 2.44519 37.334 9.93676 37.334 19.1862C37.334 28.4357 29.5546 35.9272 19.9335 35.9272C10.3124 35.9272 2.53296 28.4357 2.53296 19.1862"
      fill="white"
    />
  </mask>
  <g mask="url(#mask0_2_133)">
    <path
      fill-rule="evenodd"
      clip-rule="evenodd"
      d="M20.0099 27.2637C27.6613 27.2637 34.2207 29.3228 37.0223 32.2344C37.9689 30.1497 38.4833 27.8588 38.4833 25.4438C38.4833 15.8438 30.2066 8.0675 20.0099 8.0675C9.819 8.0675 1.52893 15.853 1.52893 25.4529C1.52893 27.8588 2.04718 30.1497 2.99953 32.2344C5.7954 29.3228 12.3586 27.2637 20.0099 27.2637Z"
      fill="#0083C9"
    />
    <path
      fill-rule="evenodd"
      clip-rule="evenodd"
      d="M20.0041 27.2893C27.6325 27.2893 34.1746 29.3228 36.9762 32.2033C37.919 30.1461 38.4354 27.8716 38.4354 25.4857C38.4354 15.9588 30.1759 8.21716 20.0041 8.21716C9.838 8.21716 1.57471 15.9588 1.57471 25.4857C1.57471 27.8752 2.09296 30.1461 3.03766 32.2033C5.82779 29.3228 12.37 27.2893 20.0041 27.2893Z"
      fill="#0084CB"
    />
    <path
      fill-rule="evenodd"
      clip-rule="evenodd"
      d="M20.0041 27.3021C27.6115 27.3021 34.1326 29.3229 36.9285 32.1815C37.8675 30.1407 38.3857 27.8899 38.3857 25.5114C38.3857 16.0629 30.1434 8.36145 20.0041 8.36145C9.86099 8.36145 1.62256 16.0684 1.62256 25.5205C1.62256 27.8936 2.13889 30.1407 3.07595 32.1815C5.86417 29.3229 12.3929 27.3021 20.0041 27.3021Z"
      fill="#0086CC"
    />
    <path
      fill-rule="evenodd"
      clip-rule="evenodd"
      d="M20.0022 27.3167C27.5942 27.3167 34.0962 29.3229 36.8806 32.1614C37.8196 30.137 38.3359 27.9027 38.3359 25.5479C38.3359 16.1834 30.1166 8.5166 20.0022 8.5166C9.8839 8.5166 1.6665 16.1834 1.6665 25.5588C1.6665 27.9027 2.1771 30.137 3.11416 32.1614C5.8909 29.3229 12.412 27.3167 20.0022 27.3167Z"
      fill="#0088CD"
    />
    <path
      fill-rule="evenodd"
      clip-rule="evenodd"
      d="M19.9964 27.3386C27.5712 27.3386 34.0618 29.3228 36.8385 32.1431C37.7756 30.1333 38.2881 27.9136 38.2881 25.577C38.2881 16.2911 30.0917 8.66443 19.9964 8.66443C9.9049 8.66443 1.71045 16.2911 1.71045 25.5917C1.71045 27.9136 2.2287 30.1333 3.15619 32.1431C5.93676 29.3228 12.4292 27.3386 19.9964 27.3386Z"
      fill="#0089CE"
    />
    <path
      fill-rule="evenodd"
      clip-rule="evenodd"
      d="M19.9966 27.3568C27.5485 27.3568 34.016 29.3301 36.7909 32.1175C37.7279 30.1296 38.2347 27.9209 38.2347 25.6245C38.2347 16.3933 30.0613 8.81042 19.9966 8.81042C9.92992 8.81042 1.75842 16.3933 1.75842 25.6245C1.75842 27.9209 2.26711 30.1296 3.20034 32.1175C5.96752 29.3301 12.4428 27.3568 19.9966 27.3568Z"
      fill="#008BCF"
    />
    <path
      fill-rule="evenodd"
      clip-rule="evenodd"
      d="M19.9929 27.377C27.5276 27.377 33.9761 29.3302 36.7471 32.1012C37.6784 30.1261 38.1852 27.9392 38.1852 25.6519C38.1852 16.5102 30.0386 8.95471 19.9929 8.95471C9.95499 8.95471 1.79688 16.5102 1.79688 25.6556C1.79688 27.9392 2.31512 30.1261 3.24262 32.1012C5.99832 29.3302 12.4583 27.377 19.9929 27.377Z"
      fill="#008DD1"
    />
    <path
      fill-rule="evenodd"
      clip-rule="evenodd"
      d="M19.9926 27.3915C27.5005 27.3915 33.947 29.3338 36.6989 32.0738C37.6245 30.1224 38.1351 27.9592 38.1351 25.6884C38.1351 16.6178 30.0095 9.10254 19.9926 9.10254C9.9814 9.10254 1.84814 16.6215 1.84814 25.6939C1.84814 27.9592 2.35492 30.126 3.2805 32.0738C6.0362 29.3338 12.4789 27.3915 19.9926 27.3915Z"
      fill="#008FD2"
    />
    <path
      fill-rule="evenodd"
      clip-rule="evenodd"
      d="M19.9907 27.4117C27.4833 27.4117 33.9069 29.3339 36.6588 32.0556C37.5806 30.1133 38.0835 27.9648 38.0835 25.7177C38.0835 16.7329 29.9789 9.25049 19.9907 9.25049C10.0063 9.25049 1.89026 16.7329 1.89026 25.7214C1.89026 27.9739 2.40277 30.1133 3.32644 32.0556C6.07067 29.3339 12.4924 27.4117 19.9907 27.4117Z"
      fill="#0091D3"
    />
    <path
      fill-rule="evenodd"
      clip-rule="evenodd"
      d="M19.9832 27.4298C27.4529 27.4298 33.8745 29.3338 36.6092 32.0372C37.5291 30.1059 38.0435 27.9811 38.0435 25.7541C38.0435 16.835 29.9466 9.40918 19.9832 9.40918C10.0236 9.40918 1.93628 16.8387 1.93628 25.7541C1.93628 27.9811 2.44688 30.1059 3.36672 32.0372C6.10713 29.3338 12.5173 27.4298 19.9832 27.4298Z"
      fill="#0093D4"
    />
    <path
      fill-rule="evenodd"
      clip-rule="evenodd"
      d="M19.983 27.4535C27.4335 27.4535 33.8304 29.3337 36.5612 32.0135C37.4868 30.1004 37.984 27.9939 37.984 25.7833C37.984 16.9482 29.9215 9.55518 19.983 9.55518C10.0483 9.55518 1.98389 16.9482 1.98389 25.7869C1.98389 27.9957 2.48301 30.1004 3.40668 32.0135C6.13944 29.3337 12.5344 27.4535 19.983 27.4535Z"
      fill="#0094D6"
    />
    <path
      fill-rule="evenodd"
      clip-rule="evenodd"
      d="M19.9755 27.4682C27.4184 27.4682 33.7884 29.3375 36.5155 31.9898C37.4315 30.1005 37.9402 28.0122 37.9402 25.8162C37.9402 17.0523 29.893 9.70496 19.9755 9.70496C10.0791 9.70496 2.03186 17.0596 2.03186 25.8162C2.03186 28.0122 2.53099 30.1005 3.45274 31.9898C6.17402 29.3375 12.5479 27.4682 19.9755 27.4682Z"
      fill="#0096D7"
    />
    <path
      fill-rule="evenodd"
      clip-rule="evenodd"
      d="M19.9755 27.4883C27.3974 27.4883 33.7579 29.3374 36.4658 31.977C37.3818 30.0932 37.8886 28.0158 37.8886 25.8454C37.8886 17.1636 29.8682 9.85095 19.9755 9.85095C10.0963 9.85095 2.07397 17.1728 2.07397 25.8582C2.07397 28.0195 2.5731 30.0968 3.48721 31.977C6.20275 29.3374 12.5632 27.4883 19.9755 27.4883Z"
      fill="#0098D8"
    />
    <path
      fill-rule="evenodd"
      clip-rule="evenodd"
      d="M19.9756 27.4993C27.3726 27.4993 33.7101 29.3412 36.4276 31.9497C37.3321 30.0932 37.837 28.0451 37.837 25.8801C37.837 17.2805 29.8414 9.99707 19.9756 9.99707C10.1212 9.99707 2.12183 17.2805 2.12183 25.8856C2.12183 28.0451 2.61904 30.0932 3.52932 31.9497C6.23722 29.3412 12.5805 27.4993 19.9756 27.4993Z"
      fill="#009AD9"
    />
    <path
      fill-rule="evenodd"
      clip-rule="evenodd"
      d="M19.9754 27.5266C27.3475 27.5266 33.6755 29.3411 36.3834 31.9332C37.2841 30.0841 37.7832 28.0524 37.7832 25.913C37.7832 17.3918 29.8068 10.1412 19.9754 10.1412C10.1459 10.1412 2.1637 17.3918 2.1637 25.913C2.1637 28.0524 2.65517 30.0841 3.56737 31.9332C6.27144 29.3411 12.5975 27.5266 19.9754 27.5266Z"
      fill="#009CDB"
    />
    <path
      fill-rule="evenodd"
      clip-rule="evenodd"
      d="M19.9698 27.5467C27.3266 27.5467 33.6336 29.3411 36.3281 31.9077C37.2403 30.0841 37.7356 28.0651 37.7356 25.9476C37.7356 17.5014 29.7763 10.2964 19.9698 10.2964C10.1766 10.2964 2.20972 17.5014 2.20972 25.9513C2.20972 28.0651 2.71075 30.0841 3.61339 31.9077C6.30407 29.3411 12.6148 27.5467 19.9698 27.5467Z"
      fill="#009EDC"
    />
    <path
      fill-rule="evenodd"
      clip-rule="evenodd"
      d="M19.9697 27.5632C27.3113 27.5632 33.5991 29.3412 36.284 31.884C37.1924 30.0768 37.6915 28.0725 37.6915 25.9787C37.6915 17.6091 29.7495 10.4425 19.9697 10.4425C10.1938 10.4425 2.25366 17.6128 2.25366 25.9787C2.25366 28.0725 2.74896 30.0805 3.65542 31.884C6.34228 29.3412 12.6397 27.5632 19.9697 27.5632Z"
      fill="#00A0DD"
    />
    <path
      fill-rule="evenodd"
      clip-rule="evenodd"
      d="M19.9678 27.5851C27.2806 27.5851 33.5646 29.3521 36.2438 31.8657C37.1427 30.0768 37.6418 28.0907 37.6418 26.0189C37.6418 17.7186 29.7265 10.5885 19.9678 10.5885C10.2186 10.5885 2.29761 17.7186 2.29761 26.0189C2.29761 28.0907 2.79673 30.0768 3.69363 31.8657C6.38049 29.3521 12.6588 27.5851 19.9678 27.5851Z"
      fill="#00A2DE"
    />
    <path
      fill-rule="evenodd"
      clip-rule="evenodd"
      d="M19.9601 27.6014C27.2615 27.6014 33.5187 29.352 36.196 31.851C37.0948 30.0657 37.5882 28.1034 37.5882 26.0425C37.5882 17.8298 29.694 10.7417 19.9601 10.7417C10.2338 10.7417 2.34155 17.8298 2.34155 26.0479C2.34155 28.1034 2.84068 30.0657 3.73566 31.851C6.40913 29.352 12.6702 27.6014 19.9601 27.6014Z"
      fill="#00A4E0"
    />
    <path
      fill-rule="evenodd"
      clip-rule="evenodd"
      d="M19.9603 27.6197C27.2387 27.6197 33.4864 29.3521 36.1484 31.8273C37.051 30.0621 37.5367 28.1181 37.5367 26.0809C37.5367 17.9486 29.6712 10.8878 19.9603 10.8878C10.2627 10.8878 2.38953 17.9486 2.38953 26.0809C2.38953 28.1126 2.88483 30.0658 3.78172 31.8273C6.44563 29.3521 12.6952 27.6197 19.9603 27.6197Z"
      fill="#00A6E1"
    />
    <path
      fill-rule="evenodd"
      clip-rule="evenodd"
      d="M19.96 27.6344C27.2098 27.6344 33.4402 29.3594 36.0984 31.8C37.001 30.0568 37.4963 28.1401 37.4963 26.1102C37.4963 18.0509 29.6404 11.0358 19.96 11.0358C10.2892 11.0358 2.42944 18.0509 2.42944 26.1102C2.42944 28.1401 2.92666 30.0568 3.82164 31.8C6.4779 29.3594 12.7122 27.6344 19.96 27.6344Z"
      fill="#00A8E2"
    />
    <path
      fill-rule="evenodd"
      clip-rule="evenodd"
      d="M19.9564 27.6562C27.1908 27.6562 33.404 29.3593 36.0527 31.778C36.9553 30.0493 37.4391 28.1472 37.4391 26.1484C37.4391 18.1548 29.608 11.1871 19.9564 11.1871C10.3143 11.1871 2.47742 18.1639 2.47742 26.1484C2.47742 28.1436 2.97272 30.053 3.85814 31.778C6.51249 29.3593 12.7238 27.6562 19.9564 27.6562Z"
      fill="#00AAE4"
    />
    <path
      fill-rule="evenodd"
      clip-rule="evenodd"
      d="M19.9563 27.6726C27.1716 27.6726 33.3638 29.3593 36.0105 31.7634C36.9036 30.0493 37.3836 28.1563 37.3836 26.1757C37.3836 18.268 29.585 11.3368 19.9563 11.3368C10.3372 11.3368 2.52136 18.2716 2.52136 26.1757C2.52136 28.1563 3.01284 30.0493 3.90591 31.7634C6.54687 29.3593 12.741 27.6726 19.9563 27.6726Z"
      fill="#00ADE5"
    />
    <path
      fill-rule="evenodd"
      clip-rule="evenodd"
      d="M19.9507 27.6891C27.1545 27.6891 33.3315 29.3648 35.9667 31.7361C36.8483 30.0475 37.3398 28.1747 37.3398 26.2105C37.3398 18.3739 29.5526 11.4829 19.9507 11.4829C10.3621 11.4829 2.56738 18.383 2.56738 26.2105C2.56738 28.171 3.05886 30.0494 3.9481 31.7361C6.57951 29.3648 12.7583 27.6891 19.9507 27.6891Z"
      fill="#00AFE6"
    />
    <path
      fill-rule="evenodd"
      clip-rule="evenodd"
      d="M19.9508 27.7129C27.124 27.7129 33.2933 29.3649 35.917 31.7179C36.7986 30.0385 37.2844 28.1784 37.2844 26.2434C37.2844 18.4926 29.5221 11.6272 19.9508 11.6272C10.3852 11.6272 2.61719 18.4926 2.61719 26.2434C2.61719 28.1784 3.09719 30.0476 3.98452 31.7179C6.61401 29.3649 12.7795 27.7129 19.9508 27.7129Z"
      fill="#00B1E8"
    />
    <path
      fill-rule="evenodd"
      clip-rule="evenodd"
      d="M19.9506 27.7238C27.1086 27.7238 33.2472 29.3667 35.8748 31.6905C36.7602 30.0385 37.2402 28.1984 37.2402 26.2726C37.2402 18.5948 29.4933 11.7769 19.9506 11.7769C10.408 11.7769 2.65527 18.5948 2.65527 26.2726C2.65527 28.1984 3.1391 30.0385 4.02643 31.6905C6.65019 29.3667 12.7946 27.7238 19.9506 27.7238Z"
      fill="#00B3E9"
    />
    <path
      fill-rule="evenodd"
      clip-rule="evenodd"
      d="M19.9466 27.7494C27.0778 27.7494 33.2107 29.3667 35.8249 31.6777C36.7084 30.033 37.1923 28.2094 37.1923 26.3146C37.1923 18.7117 29.4721 11.9302 19.9466 11.9302C10.4346 11.9302 2.71057 18.7117 2.71057 26.3146C2.71057 28.2094 3.19057 30.0385 4.06643 31.6777C6.68636 29.3667 12.8116 27.7494 19.9466 27.7494Z"
      fill="#00B5EA"
    />
    <path
      fill-rule="evenodd"
      clip-rule="evenodd"
      d="M19.9373 27.7603C27.0608 27.7603 33.1727 29.3666 35.7831 31.6557C36.6627 30.022 37.1427 28.2239 37.1427 26.3419C37.1427 18.8211 29.4436 12.0688 19.9373 12.0688C10.4616 12.0688 2.74902 18.8211 2.74902 26.3419C2.74902 28.2239 3.22902 30.0329 4.11253 31.6557C6.71525 29.3666 12.8329 27.7603 19.9373 27.7603Z"
      fill="#00B8EC"
    />
    <path
      fill-rule="evenodd"
      clip-rule="evenodd"
      d="M19.937 27.7876C27.0357 27.7876 33.1342 29.3666 35.7312 31.6338C36.6127 30.0183 37.0947 28.2458 37.0947 26.3748C37.0947 18.9343 29.4185 12.2295 19.937 12.2295C10.4804 12.2295 2.79846 18.9343 2.79846 26.3748C2.79846 28.2422 3.27081 30.022 4.14667 31.6338C6.75322 29.3666 12.8422 27.7876 19.937 27.7876Z"
      fill="#03BAED"
    />
    <path
      fill-rule="evenodd"
      clip-rule="evenodd"
      d="M19.9373 27.8042C27.013 27.8042 33.0943 29.3667 35.6875 31.6029C36.5614 30.0184 37.0395 28.255 37.0395 26.4132C37.0395 19.0457 29.3882 12.3756 19.9373 12.3756C10.4998 12.3756 2.84082 19.0457 2.84082 26.4132C2.84082 28.255 3.31891 30.0184 4.19477 31.6029C6.78601 29.3667 12.8577 27.8042 19.9373 27.8042Z"
      fill="#12BCEF"
    />
    <path
      fill-rule="evenodd"
      clip-rule="evenodd"
      d="M19.9374 27.826C26.9901 27.826 33.06 29.3703 35.6397 31.5901C36.5156 30.0056 36.9918 28.2733 36.9918 26.4442C36.9918 19.1516 29.3576 12.5234 19.9374 12.5234C10.5286 12.5234 2.89062 19.1516 2.89062 26.4442C2.89062 28.2678 3.36106 30.0184 4.23119 31.5901C6.82243 29.3703 12.8827 27.826 19.9374 27.826Z"
      fill="#1BBFF0"
    />
    <path
      fill-rule="evenodd"
      clip-rule="evenodd"
      d="M19.9337 27.8406C26.9711 27.8406 33.0142 29.374 35.5959 31.5627C36.466 30.0001 36.9364 28.286 36.9364 26.4734C36.9364 19.2629 29.3291 12.6749 19.9337 12.6749C10.5459 12.6749 2.93091 19.2629 2.93091 26.4734C2.93091 28.2805 3.40517 30.0056 4.27721 31.5627C6.85506 29.374 12.8981 27.8406 19.9337 27.8406Z"
      fill="#20C3F3"
    />
    <path
      fill-rule="evenodd"
      clip-rule="evenodd"
      d="M19.9333 27.879C26.9555 27.879 33.0043 29.4069 35.5802 31.5846C36.4446 30.0385 36.9131 28.3244 36.9131 26.5282C36.9131 19.3579 29.3191 12.8082 19.9333 12.8082C10.5628 12.8082 2.95923 19.3579 2.95923 26.5282C2.95923 28.3207 3.43158 30.0385 4.29788 31.5846C6.86808 29.4069 12.9073 27.879 19.9333 27.879Z"
      fill="#32C5F3"
    />
    <path
      fill-rule="evenodd"
      clip-rule="evenodd"
      d="M19.9372 27.9209C26.9517 27.9209 32.9814 29.4397 35.5535 31.6028C36.4179 30.0621 36.8959 28.3645 36.8959 26.5829C36.8959 19.46 29.3039 12.9451 19.9372 12.9451C10.5724 12.9451 2.97266 19.46 2.97266 26.5829C2.97266 28.3608 3.45266 30.0658 4.31513 31.6028C6.88343 29.4397 12.9169 27.9209 19.9372 27.9209Z"
      fill="#3FC6F3"
    />
    <path
      fill-rule="evenodd"
      clip-rule="evenodd"
      d="M19.9369 27.9648C26.9362 27.9648 32.9658 29.4689 35.5303 31.6211C36.3947 30.0932 36.8728 28.3992 36.8728 26.6285C36.8728 19.5532 29.2922 13.0802 19.9369 13.0802C10.5893 13.0802 3.0011 19.5532 3.0011 26.6285C3.0011 28.3992 3.47345 30.0932 4.33592 31.6211C6.90996 29.4689 12.9281 27.9648 19.9369 27.9648Z"
      fill="#4AC8F4"
    />
    <path
      fill-rule="evenodd"
      clip-rule="evenodd"
      d="M19.9373 28.0159C26.9346 28.0159 32.947 29.5055 35.5077 31.6376C36.3759 30.1225 36.8482 28.4449 36.8482 26.6815C36.8482 19.6591 29.2772 13.2153 19.9373 13.2153C10.603 13.2153 3.02246 19.6591 3.02246 26.6815C3.02246 28.4394 3.49673 30.1261 4.35537 31.6376C6.92176 29.5055 12.9342 28.0159 19.9373 28.0159Z"
      fill="#54C9F4"
    />
    <path
      fill-rule="evenodd"
      clip-rule="evenodd"
      d="M19.9373 28.0524C26.9251 28.0524 32.9299 29.5328 35.4905 31.6613C36.3492 30.1461 36.8292 28.4795 36.8292 26.7344C36.8292 19.7558 29.2658 13.3558 19.9373 13.3558C10.6127 13.3558 3.04932 19.7558 3.04932 26.7344C3.04932 28.4795 3.51784 30.1498 4.38223 31.6613C6.94479 29.5328 12.9362 28.0524 19.9373 28.0524Z"
      fill="#5CCBF4"
    />
    <path
      fill-rule="evenodd"
      clip-rule="evenodd"
      d="M19.937 28.0961C26.9171 28.0961 32.9142 29.5692 35.4691 31.6776C36.3278 30.1716 36.7982 28.5214 36.7982 26.7891C36.7982 19.8561 29.2559 13.4872 19.937 13.4872C10.6219 13.4872 3.0719 19.8561 3.0719 26.7891C3.0719 28.5214 3.54043 30.1826 4.39907 31.6776C6.9559 29.5692 12.9588 28.0961 19.937 28.0961Z"
      fill="#64CDF5"
    />
    <path
      fill-rule="evenodd"
      clip-rule="evenodd"
      d="M19.937 28.1436C26.9076 28.1436 32.9009 29.6021 35.4462 31.6904C36.3087 30.2027 36.781 28.5616 36.781 26.8348C36.781 19.9493 29.2349 13.6205 19.937 13.6205C10.6449 13.6205 3.09106 19.9584 3.09106 26.8348C3.09106 28.5616 3.5615 30.2027 4.41824 31.6904C6.97889 29.6021 12.9646 28.1436 19.937 28.1436Z"
      fill="#6CCEF5"
    />
    <path
      fill-rule="evenodd"
      clip-rule="evenodd"
      d="M19.9372 28.1784C26.9001 28.1784 32.88 29.6351 35.4311 31.7179C36.284 30.2356 36.764 28.5982 36.764 26.8896C36.764 20.0497 29.2255 13.7611 19.9372 13.7611C10.6508 13.7611 3.11035 20.0497 3.11035 26.8896C3.11035 28.5982 3.58844 30.2393 4.43944 31.7179C6.99435 29.6351 12.9743 28.1784 19.9372 28.1784Z"
      fill="#73D0F5"
    />
    <path
      fill-rule="evenodd"
      clip-rule="evenodd"
      d="M19.9372 28.2221C26.8829 28.2221 32.8571 29.6642 35.4043 31.7324C36.2668 30.2684 36.7372 28.642 36.7372 26.937C36.7372 20.1482 29.2159 13.8979 19.9372 13.8979C10.6642 13.8979 3.13904 20.1482 3.13904 26.937C3.13904 28.642 3.60948 30.2684 4.46048 31.7324C7.01156 29.6642 12.98 28.2221 19.9372 28.2221Z"
      fill="#7AD2F6"
    />
    <path
      fill-rule="evenodd"
      clip-rule="evenodd"
      d="M19.9371 28.2678C26.8827 28.2678 32.8435 29.7008 35.3812 31.7526C36.2437 30.2867 36.7103 28.6804 36.7103 26.9937C36.7103 20.2505 29.2024 14.0386 19.9371 14.0386C10.6793 14.0386 3.15613 20.2505 3.15613 26.9937C3.15613 28.6804 3.63422 30.2904 4.4833 31.7526C7.02674 29.7008 12.9876 28.2733 19.9371 28.2678Z"
      fill="#81D3F6"
    />
    <path
      fill-rule="evenodd"
      clip-rule="evenodd"
      d="M19.937 28.3006C26.8712 28.3006 32.8224 29.739 35.3678 31.7707C36.2111 30.3177 36.6854 28.7204 36.6854 27.0447C36.6854 20.3454 29.1909 14.1699 19.937 14.1699C10.6888 14.1699 3.18665 20.3454 3.18665 27.0447C3.18665 28.7204 3.65517 30.3232 4.50617 31.7707C7.04387 29.739 12.9989 28.3042 19.937 28.3006Z"
      fill="#87D5F6"
    />
    <path
      fill-rule="evenodd"
      clip-rule="evenodd"
      d="M19.937 28.3518C26.8597 28.3518 32.8072 29.7628 35.343 31.7836C36.1959 30.3506 36.6682 28.7625 36.6682 27.0995C36.6682 20.4367 29.1756 14.3069 19.937 14.3069C10.7042 14.3069 3.20007 20.4367 3.20007 27.0995C3.20007 28.7625 3.67243 30.3542 4.52151 31.7836C7.06303 29.7628 13.0124 28.3518 19.937 28.3518Z"
      fill="#8ED7F7"
    />
    <path
      fill-rule="evenodd"
      clip-rule="evenodd"
      d="M19.9373 28.3901C26.8523 28.3901 32.7883 29.7994 35.3203 31.8055C36.1713 30.3744 36.6436 28.799 36.6436 27.1452C36.6436 20.5426 29.1644 14.4384 19.9373 14.4384C10.7159 14.4384 3.229 20.5426 3.229 27.1452C3.229 28.799 3.69562 30.378 4.54279 31.8055C7.08049 29.7994 13.0222 28.3901 19.9373 28.3901Z"
      fill="#94D9F7"
    />
    <path
      fill-rule="evenodd"
      clip-rule="evenodd"
      d="M19.9373 28.4394C26.841 28.4394 32.7731 29.8285 35.2974 31.8274C36.1484 30.4035 36.6265 28.8373 36.6265 27.2017C36.6265 20.6411 29.153 14.5862 19.9373 14.5862C10.7236 14.5862 3.25586 20.6448 3.25586 27.2017C3.25586 28.8373 3.71865 30.4035 4.57156 31.8274C7.10352 29.8285 13.0318 28.4394 19.9373 28.4394Z"
      fill="#9ADBF7"
    />
    <path
      fill-rule="evenodd"
      clip-rule="evenodd"
      d="M19.9371 28.4794C26.8368 28.4794 32.7498 29.8631 35.2761 31.851C36.1232 30.4327 36.5956 28.8792 36.5956 27.2473C36.5956 20.7323 29.1317 14.7139 19.9371 14.7139C10.7367 14.7139 3.27087 20.7323 3.27087 27.2473C3.27087 28.8847 3.74514 30.4363 4.58466 31.851C7.1128 29.8631 13.0392 28.4794 19.9371 28.4794Z"
      fill="#A0DDF8"
    />
    <path
      fill-rule="evenodd"
      clip-rule="evenodd"
      d="M19.937 28.5215C26.8215 28.5215 32.7306 29.8979 35.2645 31.8657C36.0983 30.4637 36.5668 28.9194 36.5668 27.3021C36.5668 20.8437 29.1239 14.8527 19.937 14.8527C10.75 14.8527 3.30139 20.8456 3.30139 27.3021C3.30139 28.9194 3.76227 30.4637 4.60562 31.8657C7.13375 29.8979 13.0487 28.5215 19.937 28.5215Z"
      fill="#A6DEF8"
    />
    <path
      fill-rule="evenodd"
      clip-rule="evenodd"
      d="M19.9375 28.5672C26.8143 28.5672 32.7216 29.9271 35.2401 31.8785C36.0835 30.4893 36.5539 28.9578 36.5539 27.3569C36.5539 20.9332 29.1091 14.9823 19.9375 14.9823C10.762 14.9823 3.31909 20.9332 3.31909 27.3478C3.31909 28.9578 3.78571 30.4948 4.63671 31.8785C7.15337 29.9271 13.0587 28.5672 19.9375 28.5672Z"
      fill="#ACE0F9"
    />
    <path
      fill-rule="evenodd"
      clip-rule="evenodd"
      d="M19.9369 28.6073C26.8023 28.6073 32.6981 29.9599 35.2186 31.904C36.0524 30.5203 36.5228 29.0016 36.5228 27.4043C36.5228 21.0409 29.101 15.1301 19.9369 15.1301C10.7729 15.1301 3.34534 21.0409 3.34534 27.4043C3.34534 29.0016 3.81195 30.524 4.65148 31.904C7.16814 29.9599 13.0678 28.6073 19.9369 28.6073Z"
      fill="#B2E2F9"
    />
    <path
      fill-rule="evenodd"
      clip-rule="evenodd"
      d="M19.9373 28.6566C26.7931 28.6566 32.6812 29.991 35.1902 31.9223C36.0336 30.5478 36.504 29.04 36.504 27.4537C36.504 21.1285 29.086 15.2634 19.9373 15.2634C10.7886 15.2634 3.3667 21.134 3.3667 27.4537C3.3667 29.0436 3.82949 30.5478 4.67093 31.9223C7.18759 29.991 13.0719 28.6566 19.9373 28.6566Z"
      fill="#B8E4F9"
    />
    <path
      fill-rule="evenodd"
      clip-rule="evenodd"
      d="M19.9372 28.6967C26.7835 28.6967 32.664 30.0329 35.1711 31.9387C36.0125 30.5787 36.4829 29.0764 36.4829 27.5065C36.4829 21.2289 29.0783 15.4021 19.9372 15.4021C10.8057 15.4021 3.3877 21.2325 3.3877 27.5065C3.3877 29.0801 3.85622 30.5787 4.69575 31.9387C7.20476 30.0329 13.0891 28.6967 19.9372 28.6967Z"
      fill="#BDE6FA"
    />
    <path
      fill-rule="evenodd"
      clip-rule="evenodd"
      d="M19.937 28.7351C26.7737 28.7351 32.6427 30.0622 35.146 31.9588C35.9893 30.6025 36.4559 29.1221 36.4559 27.5632C36.4559 21.333 29.0647 15.5409 19.937 15.5409C10.8074 15.5409 3.41614 21.333 3.41614 27.5632C3.41614 29.1276 3.8751 30.6025 4.7108 31.9588C7.22173 30.0622 13.0965 28.7442 19.937 28.7351Z"
      fill="#C3E8FA"
    />
    <path
      fill-rule="evenodd"
      clip-rule="evenodd"
      d="M19.9373 28.777C26.7644 28.777 32.6296 30.0932 35.1272 31.977C35.9724 30.6353 36.439 29.1604 36.439 27.6142C36.439 21.4333 29.0497 15.6759 19.9373 15.6759C10.8288 15.6759 3.4375 21.4333 3.4375 27.6142C3.4375 29.164 3.90029 30.6353 4.73599 31.977C7.23544 30.0932 13.1064 28.7825 19.9373 28.777Z"
      fill="#C9EAFA"
    />
    <path
      fill-rule="evenodd"
      clip-rule="evenodd"
      d="M19.9369 28.8209C26.7545 28.8209 32.6178 30.1297 35.1058 31.9898C35.9434 30.6646 36.4119 29.2006 36.4119 27.6654C36.4119 21.5301 29.0359 15.811 19.9369 15.811C10.836 15.811 3.46008 21.5301 3.46008 27.6654C3.46008 29.2042 3.91905 30.6646 4.75475 31.9898C7.25993 30.1297 13.1117 28.8209 19.9369 28.8209Z"
      fill="#CEECFB"
    />
    <path
      fill-rule="evenodd"
      clip-rule="evenodd"
      d="M19.9372 28.8664C26.7509 28.8664 32.5913 30.1588 35.0907 32.0098C35.9264 30.6955 36.393 29.2388 36.393 27.7128C36.393 21.6286 29.0266 15.9442 19.9372 15.9442C10.8478 15.9442 3.48328 21.6286 3.48328 27.7128C3.48328 29.2443 3.94798 30.6955 4.77603 32.0098C7.27739 30.1588 13.1273 28.8664 19.9372 28.8664Z"
      fill="#D4EEFB"
    />
    <path
      fill-rule="evenodd"
      clip-rule="evenodd"
      d="M19.9372 28.9048C26.7413 28.9048 32.5721 30.1917 35.0715 32.0263C35.9015 30.7229 36.3719 29.2772 36.3719 27.7676C36.3719 21.729 29.0113 16.0775 19.9372 16.0775C10.8573 16.0775 3.49854 21.729 3.49854 27.7603C3.49854 29.2809 3.96133 30.7302 4.80085 32.0263C7.29456 30.1917 13.133 28.9121 19.9372 28.9048Z"
      fill="#D9F0FB"
    />
    <path
      fill-rule="evenodd"
      clip-rule="evenodd"
      d="M19.9372 28.9505C26.7318 28.9505 32.5607 30.2301 35.0468 32.0519C35.8748 30.7485 36.3433 29.3229 36.3433 27.8187C36.3433 21.8295 28.9999 16.2108 19.9372 16.2108C10.8708 16.2108 3.52539 21.8295 3.52539 27.8133C3.52539 29.3229 3.98818 30.7485 4.82006 32.0519C7.31186 30.2301 13.1484 28.9505 19.9372 28.9505Z"
      fill="#DFF2FC"
    />
    <path
      fill-rule="evenodd"
      clip-rule="evenodd"
      d="M19.9372 28.9906C26.7184 28.9906 32.5435 30.2611 35.0181 32.0647C35.8499 30.7795 36.3147 29.3648 36.3147 27.868C36.3147 21.9244 28.9827 16.3586 19.9372 16.3586C10.8861 16.3586 3.55408 21.9244 3.55408 27.868C3.55408 29.3667 4.01113 30.7795 4.83536 32.0647C7.32716 30.2611 13.1598 28.9906 19.9372 28.9906Z"
      fill="#E5F4FC"
    />
    <path
      fill-rule="evenodd"
      clip-rule="evenodd"
      d="M19.9373 29.0399C26.7108 29.0399 32.5225 30.2866 35.0009 32.0865C35.8309 30.8105 36.2994 29.4031 36.2994 27.9209C36.2994 22.0211 28.9674 16.4991 19.9373 16.4991C10.8976 16.4991 3.5675 22.0211 3.5675 27.9172C3.5675 29.4068 4.03221 30.8105 4.85643 32.0865C7.34823 30.2866 13.1675 29.0399 19.9373 29.0399Z"
      fill="#EAF6FD"
    />
    <path
      fill-rule="evenodd"
      clip-rule="evenodd"
      d="M19.937 29.0764C26.701 29.0764 32.5031 30.3232 34.9834 32.1011C35.8095 30.8325 36.2743 29.4397 36.2743 27.9738C36.2743 22.1233 28.9576 16.6288 19.937 16.6288C10.9088 16.6288 3.59399 22.1233 3.59399 27.9738C3.59399 29.4415 4.05296 30.8325 4.8791 32.1011C7.36516 30.3232 13.1749 29.0764 19.937 29.0764Z"
      fill="#F0F8FD"
    />
    <path
      fill-rule="evenodd"
      clip-rule="evenodd"
      d="M19.9369 29.1221C26.6875 29.1221 32.4781 30.3542 34.9623 32.114C35.7884 30.8672 36.255 29.4762 36.255 28.025C36.255 22.2165 28.9403 16.7639 19.9369 16.7639C10.9221 16.7639 3.61877 22.2165 3.61877 28.0195C3.61877 29.4872 4.07965 30.8672 4.89814 32.114C7.3842 30.3542 13.1825 29.1276 19.9369 29.1221Z"
      fill="#F6FBFD"
    />
    <path
      fill-rule="evenodd"
      clip-rule="evenodd"
      d="M19.9372 29.164C26.6859 29.164 32.465 30.3925 34.9415 32.1431C35.7619 30.889 36.2266 29.5163 36.2266 28.0724C36.2266 22.3223 28.9386 16.9008 19.9372 16.9008C10.9338 16.9008 3.64771 22.3223 3.64771 28.0724C3.64771 29.5254 4.10285 30.889 4.92325 32.1431C7.40549 30.3925 13.1865 29.164 19.9372 29.164Z"
      fill="#FEFEFE"
    />
  </g>
  <path
    fill-rule="evenodd"
    clip-rule="evenodd"
    d="M19.9373 23.4121C14.0415 23.4121 8.55686 24.3778 4.03223 25.9969C6.74968 31.8584 12.8425 35.9254 19.9373 35.9254C27.0321 35.9254 33.1306 31.8547 35.8424 25.9969C31.3216 24.3778 25.8388 23.4121 19.9373 23.4121Z"
    fill="#0083C9"
  />
</svg>
