<svg viewBox="0 0 22 14" fill="none" xmlns="http://www.w3.org/2000/svg">
  <g clip-path="url(#clip0_656_37720)">
    <path
      d="M4.80968 10.7508C4.65045 11.6254 5.09795 11.9069 5.87523 11.9069C6.42612 11.9069 7.04416 11.6979 7.16868 11.1462C7.31961 10.4912 6.34235 10.3659 5.39754 10.0625C4.45273 9.75918 3.52 9.28225 3.8294 7.91786C4.19767 6.29388 5.88504 5.65771 7.20264 5.65771C8.59948 5.65771 9.84388 6.37689 9.47259 8.05445H7.6441C7.82673 7.37528 7.27584 7.15794 6.7159 7.15794C6.32198 7.15794 5.7975 7.30283 5.68732 7.79335C5.55677 8.36612 6.5461 8.47252 7.49846 8.77438C8.45081 9.07623 9.35185 9.57505 9.04849 10.9183C8.62061 12.8049 6.96946 13.4086 5.42622 13.4086C3.8128 13.4086 2.55859 12.6593 2.97817 10.7538L4.80968 10.7508Z"
      fill="#005EA1"
    />
    <path d="M17.4649 5.81396H19.2934L17.6083 13.2494H15.7783L17.4649 5.81396Z" fill="#005EA1" />
    <path
      d="M10.7994 5.81434H14.0828C15.297 5.79396 16.549 6.12601 16.1958 7.6783C16.0449 8.34465 15.5483 8.88573 14.9318 9.17777C15.6275 9.40416 15.9339 10.0947 15.743 10.9376C15.343 12.7087 13.9915 13.2521 12.4867 13.2521H9.11426L10.7994 5.81434ZM11.9645 8.74083H13.3802C13.6949 8.74083 14.1673 8.56274 14.2858 8.03223C14.4043 7.50171 14.0858 7.31305 13.7025 7.31305H12.2875L11.9645 8.74083ZM11.2937 11.6975H12.7599C13.3395 11.6975 13.7915 11.4779 13.9319 10.8674C14.0828 10.2109 13.6972 9.99203 13.1463 9.99203H11.6808L11.2937 11.6975Z"
      fill="#005EA1"
    />
    <path
      d="M21.8476 2.82893C20.8364 0.143925 15.0513 -0.162458 8.92814 2.14372C4.56104 3.78883 1.20214 6.31914 0 8.61023C1.66021 6.87455 4.34521 5.16907 7.58337 3.94806C13.7073 1.64113 19.4916 1.94827 20.5028 4.63403C20.7941 5.40376 20.659 6.28594 20.1753 7.20811C21.6559 5.6626 22.3237 4.09371 21.8476 2.8312"
      fill="#EE303C"
    />
  </g>
  <defs>
    <clipPath id="clip0_656_37720">
      <rect width="22" height="12.8108" fill="white" transform="translate(0 0.594727)" />
    </clipPath>
  </defs>
</svg>
