<svg viewBox="0 0 40 41" xmlns="http://www.w3.org/2000/svg">
  <path
    d="M21.91 14.275L23.26 11.56C23.26 11.56 23.46 11.3 21.91 10.72C20.36 10.14 15.125 9.03997 11.7 12.145C8.27501 15.25 10.15 18.86 11.7 20.09C13.25 21.32 16.445 23 16.445 25.385C16.4419 25.9438 16.3173 26.4953 16.0799 27.0013C15.8425 27.5072 15.4979 27.9554 15.07 28.315C16.94 27.215 20.405 25.255 19.13 21.445C18.13 18.525 14.93 17.895 14.09 15.945C13.25 13.995 16 11.05 19.97 12.21C21.97 12.785 21.91 14.275 21.91 14.275Z"
    fill="#0071BB"
  />
  <path
    d="M34.635 24.4999C35.735 21.0749 36.94 17.0999 33.345 16.8749C30.845 16.7149 28.135 18.2199 26.515 19.3049C26.515 19.3049 29.045 13.3049 29.545 12.2699C30.045 11.2349 29.865 10.4399 28.395 10.4399H25.34C26.375 11.1649 25.685 12.7149 25.685 12.7149L20.885 23.6199C19.46 26.3449 17.36 28.6199 14.025 29.2149C12.8041 29.3247 11.5735 29.1904 10.405 28.8199C7.50001 27.6999 6.60001 24.5699 6.76001 22.2899L4.26001 27.7899C4.26001 27.7899 6.69001 31.6349 10.805 31.9299C14.09 32.1649 16.435 31.3399 18.345 29.4549C17.3 31.8749 20.045 31.7999 20.045 31.7999H22.63C22.3362 31.6466 22.1081 31.3915 21.9885 31.0824C21.8689 30.7732 21.8659 30.4312 21.98 30.1199C22.065 29.8849 22.87 27.7849 22.87 27.7849C26.755 19.8799 31 19.2799 31.47 20.3499C32.35 22.2999 29.645 27.5899 29 29.4299C27.94 31.8649 30.695 31.7849 30.695 31.7849H33.275C32.9945 31.6195 32.7824 31.3593 32.677 31.0512C32.5716 30.7431 32.5797 30.4075 32.7 30.1049C32.85 29.6599 34.5 24.9999 34.635 24.4999Z"
    fill="#0071BB"
  />
</svg>
