<svg viewBox="0 0 40 40" xmlns="http://www.w3.org/2000/svg">
  <path
    fill-rule="evenodd"
    clip-rule="evenodd"
    d="M20.0088 20.1439L26.0393 23.6705V23.6807L25.9857 23.65C23.8292 25.3537 21.771 25.9172 19.9908 25.9176C18.2106 25.9172 16.1524 25.3537 13.9959 23.65L13.9423 23.6807V23.6705L20.0088 20.1439ZM16.9444 7.78268H16.9776L16.9444 15.0195L10.8955 18.4069L10.8869 18.3967C9.65396 9.76611 16.9444 7.78268 16.9444 7.78268ZM29.0951 18.3967L29.0865 18.4069L23.0376 15.0195L23.0045 7.78268H23.0376C23.0376 7.78268 30.328 9.76611 29.0951 18.3967ZM34.8232 22.2903C33.2033 26.3172 30.4886 27.456 30.4886 27.456C38.476 19.3615 33.5978 10.034 33.5978 10.034C32.4185 7.94339 33.9194 7.03208 33.9194 7.03208C30.4886 7.88978 31.5608 10.7309 31.5608 10.7309C33.2847 14.8369 32.9376 18.1726 32.3521 20.2355L31.2215 19.6024L31.2391 19.5759C31.2391 19.5759 33.9177 9.02152 22.993 5.3199L22.9838 3.33325H20.6787V16.4132L31.4 22.5242C31.2046 22.921 30.9977 23.2944 30.7819 23.6477L20.0135 17.4096L9.19979 23.6477C8.98408 23.2944 8.77705 22.921 8.58171 22.5242L19.303 16.4132V3.33325H16.9979L16.9888 5.3199C6.06393 9.02152 8.74253 19.5759 8.74253 19.5759L8.76022 19.6024L7.62966 20.2355C7.04417 18.1726 6.69691 14.8369 8.42089 10.7309C8.42089 10.7309 9.49301 7.88978 6.06222 7.03208C6.06222 7.03208 7.56319 7.94339 6.38385 10.034C6.38385 10.034 1.50569 19.3615 9.49301 27.456C9.49301 27.456 6.77839 26.3172 5.15852 22.2903C5.15852 22.2903 4.2396 20.3264 1.6665 20.7553C1.6665 20.7553 2.63753 21.1952 3.2079 22.9748C3.2079 22.9748 5.52615 30.3507 14.4784 31.4764V35.5505H18.8741V29.5466C18.8741 29.5466 14.2109 29.5095 10.6508 25.5921L11.7556 24.9472C11.9615 25.1419 15.3464 28.2743 19.964 28.3564V28.3583C19.973 28.358 19.9818 28.3574 19.9908 28.3572C19.9998 28.3574 20.0086 28.358 20.0176 28.3583V28.3564C24.6354 28.2743 28.0203 25.1419 28.2261 24.9472L29.3309 25.5921C25.7709 29.5095 21.1076 29.5466 21.1076 29.5466V35.5505H25.5033V31.4764C34.4555 30.3507 36.7738 22.9748 36.7738 22.9748C37.3441 21.1952 38.3152 20.7553 38.3152 20.7553C35.7421 20.3264 34.8232 22.2903 34.8232 22.2903Z"
    fill="#AB924B"
  />
</svg>
