<svg viewBox="0 0 40 40" xmlns="http://www.w3.org/2000/svg">
  <path
    fill-rule="evenodd"
    clip-rule="evenodd"
    d="M19.3772 6.02929L12.2968 2.24829L19.2815 15.6272L26.2663 2.34524L19.3772 6.02929ZM24.7362 7.09567L33.7303 3.41162V10.1011L28.5635 12.4279C31.6253 14.9485 33.6346 18.7295 33.6346 22.8983C33.6346 30.4603 27.1283 36.665 19.1867 36.665C11.1494 36.665 4.73877 30.5573 4.73877 22.8983C4.73877 18.6326 6.74808 14.8516 10.0013 12.234L4.83445 9.90718V3.21772L13.7328 6.99872L15.1681 9.61634L18.4212 15.8211C14.7853 16.3058 12.0106 19.3112 12.0106 22.8983C12.0106 26.7763 15.3594 29.9756 19.4737 29.9756C23.588 29.9756 26.9369 26.8732 26.9369 22.8983C26.9369 19.2143 23.9708 16.1119 20.1435 15.8211L23.2053 9.81024H23.301L24.7362 7.09567Z"
    fill="#FFDC00"
  />
</svg>
