<svg viewBox="0 0 18 20" xmlns="http://www.w3.org/2000/svg">
  <path
    d="M17.7936 14.4944C17.2733 13.5981 16.4999 11.0622 16.4999 7.75C16.4999 5.76088 15.7097 3.85322 14.3032 2.4467C12.8967 1.04018 10.989 0.25 8.99989 0.25C7.01077 0.25 5.10311 1.04018 3.69659 2.4467C2.29007 3.85322 1.49989 5.76088 1.49989 7.75C1.49989 11.0631 0.725515 13.5981 0.205202 14.4944C0.0723311 14.7222 0.0018909 14.9811 0.000985404 15.2449C7.99065e-05 15.5086 0.0687412 15.768 0.200045 15.9967C0.331349 16.2255 0.520652 16.4156 0.748864 16.5478C0.977075 16.6801 1.23613 16.7498 1.49989 16.75H5.32583C5.49886 17.5967 5.95904 18.3577 6.62852 18.9042C7.29799 19.4507 8.13568 19.7492 8.99989 19.7492C9.8641 19.7492 10.7018 19.4507 11.3713 18.9042C12.0407 18.3577 12.5009 17.5967 12.674 16.75H16.4999C16.7636 16.7496 17.0225 16.6798 17.2506 16.5475C17.4787 16.4151 17.6678 16.225 17.799 15.9963C17.9302 15.7676 17.9988 15.5083 17.9979 15.2446C17.9969 14.9809 17.9265 14.7222 17.7936 14.4944ZM8.99989 18.25C8.53472 18.2499 8.08103 18.1055 7.70126 17.8369C7.3215 17.5683 7.03432 17.1886 6.87927 16.75H11.1205C10.9655 17.1886 10.6783 17.5683 10.2985 17.8369C9.91875 18.1055 9.46506 18.2499 8.99989 18.25Z"
  />
</svg>
