<svg viewBox="0 0 24 24" xmlns="http://www.w3.org/2000/svg">
  <path
    d="M20.7974 18C20.6674 18.2291 20.4786 18.4194 20.2505 18.5512C20.0225 18.683 19.7634 18.7517 19.4999 18.75H15.674C15.501 19.5967 15.0408 20.3577 14.3713 20.9042C13.7018 21.4507 12.8641 21.7492 11.9999 21.7492C11.1357 21.7492 10.298 21.4507 9.62855 20.9042C8.95908 20.3577 8.4989 19.5967 8.32587 18.75H4.49993C4.23624 18.7496 3.97731 18.6798 3.74923 18.5475C3.52115 18.4151 3.33198 18.225 3.20079 17.9963C3.0696 17.7676 3.00102 17.5083 3.00196 17.2446C3.00291 16.9809 3.07335 16.7222 3.20618 16.4944C3.72649 15.5981 4.49993 13.0631 4.49993 9.75C4.49993 7.76088 5.29011 5.85322 6.69663 4.4467C8.10315 3.04018 10.0108 2.25 11.9999 2.25C13.9891 2.25 15.8967 3.04018 17.3032 4.4467C18.7098 5.85322 19.4999 7.76088 19.4999 9.75C19.4999 13.0622 20.2743 15.5981 20.7946 16.4944C20.9288 16.7225 20.9997 16.9822 21.0002 17.2468C21.0007 17.5114 20.9307 17.7714 20.7974 18ZM14.1206 18.75H9.8793C10.0347 19.1882 10.322 19.5675 10.7017 19.8358C11.0815 20.104 11.535 20.248 11.9999 20.248C12.4649 20.248 12.9184 20.104 13.2981 19.8358C13.6779 19.5675 13.9652 19.1882 14.1206 18.75ZM19.4999 17.25C18.7752 16.0059 17.9999 13.1297 17.9999 9.75C17.9999 8.1587 17.3678 6.63258 16.2426 5.50736C15.1174 4.38214 13.5912 3.75 11.9999 3.75C10.4086 3.75 8.88251 4.38214 7.75729 5.50736C6.63207 6.63258 5.99993 8.1587 5.99993 9.75C5.99993 13.1306 5.22368 16.0069 4.49993 17.25H19.4999Z"
  />
</svg>
