<svg xmlns="http://www.w3.org/2000/svg" fill="currentColor" viewBox="0 0 13 17">
  <path
    d="M.667 6.333c0-1.55 0-2.326.204-2.954A4.167 4.167 0 0 1 3.546.704C4.173.5 4.949.5 6.5.5c1.551 0 2.327 0 2.954.204a4.167 4.167 0 0 1 2.675 2.675c.204.628.204 1.403.204 2.954v6.156c0 1.598 0 2.397-.284 2.82a1.667 1.667 0 0 1-1.574.723c-.506-.059-1.112-.579-2.325-1.618-.534-.458-.801-.687-1.095-.79a1.666 1.666 0 0 0-1.11 0c-.293.103-.56.332-1.094.79-1.213 1.04-1.82 1.56-2.326 1.618a1.667 1.667 0 0 1-1.573-.724c-.285-.422-.285-1.22-.285-2.819V6.333Z"
  />
</svg>
