<svg viewBox="0 0 24 24" xmlns="http://www.w3.org/2000/svg">
  <path
    d="M6.848 2.283C5.687 2.434 4.69 3.313 4.334 4.5c-.068.227-.073.664-.085 7.9-.01 5.634-.001 7.723.033 7.9.201 1.052 1.249 1.684 2.251 1.355.106-.035 1.344-.754 2.752-1.598l2.559-1.535 2.588 1.466c1.423.806 2.698 1.517 2.833 1.58.507.238 1.001.229 1.521-.028.318-.156.628-.459.768-.749.219-.453.209-.011.196-8.355-.011-7.273-.016-7.709-.084-7.936-.362-1.208-1.352-2.068-2.555-2.219-.395-.049-9.881-.048-10.263.002m10.311 1.54c.414.123.741.408.936.817l.125.26.01 7.597c.01 7.035.006 7.601-.056 7.67a.247.247 0 0 1-.159.073c-.05 0-1.375-.726-2.943-1.614-1.569-.887-2.895-1.637-2.948-1.664-.137-.073-.447-.063-.607.018-.075.039-1.325.783-2.777 1.653-1.452.871-2.685 1.59-2.741 1.598a.189.189 0 0 1-.17-.061c-.066-.073-.069-.511-.059-7.673L5.78 4.9l.125-.26a1.52 1.52 0 0 1 .92-.815c.168-.051.869-.06 5.158-.062 4.417-.003 4.986.004 5.176.06"
    fill-rule="evenodd"
  />
</svg>
