<svg xmlns="http://www.w3.org/2000/svg" fill="currentColor" viewBox="0 0 21 22">
  <path
    d="m3.561 20.045.44-.607-.44.607ZM2.455 18.94l.607-.44-.607.44Zm16.09 0-.607-.44.607.44Zm-1.106 1.106.44.607-.44-.607Zm0-16.09.44-.607-.44.607Zm1.106 1.106-.607.44.607-.44ZM3.561 3.955l.44.607-.44-.607ZM2.455 5.06l.607.44-.607-.44Zm15.263 10-.117-.74.117.74Zm-4.156 4.157-.741-.117.74.117ZM12.75 4a.75.75 0 0 0 1.5 0h-1.5Zm1.5-3a.75.75 0 0 0-1.5 0h1.5Zm-7.5 3a.75.75 0 0 0 1.5 0h-1.5Zm1.5-3a.75.75 0 0 0-1.5 0h1.5Zm11.221 14 .75.026-.75-.026ZM13.5 20.971l.026.75-.026-.75Zm-3-.721c-1.892 0-3.25-.001-4.302-.115-1.038-.113-1.688-.328-2.196-.697l-.882 1.214c.807.586 1.75.848 2.916.974 1.152.125 2.606.124 4.464.124v-1.5ZM.75 12c0 1.858-.001 3.312.124 4.463.126 1.166.388 2.11.974 2.917l1.214-.882c-.37-.508-.585-1.158-.697-2.196-.114-1.052-.115-2.41-.115-4.302H.75Zm3.252 7.438a4.25 4.25 0 0 1-.94-.94l-1.214.882a5.75 5.75 0 0 0 1.272 1.272l.882-1.214Zm13.936-.94c-.262.36-.58.678-.94.94l.882 1.214a5.749 5.749 0 0 0 1.272-1.272l-1.214-.882ZM20.25 12c0-1.858.001-3.312-.124-4.464-.126-1.165-.388-2.11-.974-2.916l-1.214.882c.37.508.585 1.158.697 2.196.114 1.052.115 2.41.115 4.302h1.5Zm-3.252-7.438c.36.262.678.58.94.94l1.214-.882a5.75 5.75 0 0 0-1.272-1.272l-.882 1.214ZM2.25 12c0-1.892.001-3.25.115-4.302.112-1.038.328-1.688.697-2.196L1.848 4.62C1.262 5.427 1 6.37.874 7.536.749 8.688.75 10.142.75 12h1.5Zm.87-8.652A5.75 5.75 0 0 0 1.848 4.62l1.214.882c.262-.36.58-.678.94-.94L3.12 3.348ZM17.6 14.321a5.75 5.75 0 0 0-4.78 4.78l1.482.234a4.25 4.25 0 0 1 3.533-3.533l-.235-1.481ZM8.25 4v-.971h-1.5V4h1.5Zm0-.971V1h-1.5v2.029h1.5Zm2.25-.779c-1.165 0-2.166 0-3.026.03l.052 1.498A92.348 92.348 0 0 1 10.5 3.75v-1.5Zm-3.026.03c-1.873.064-3.25.266-4.354 1.068l.882 1.214c.705-.513 1.669-.72 3.524-.784L7.474 2.28ZM14.25 4v-.971h-1.5V4h1.5Zm0-.971V1h-1.5v2.029h1.5Zm-3.75.721c1.173 0 2.146 0 2.974.028l.052-1.499c-.86-.03-1.861-.029-3.026-.029v1.5Zm2.974.028c1.855.064 2.819.271 3.524.784l.882-1.214c-1.104-.802-2.48-1.004-4.354-1.069l-.052 1.5Zm5.997 10.472c-.882 0-1.413-.002-1.87.07l.234 1.482c.312-.05.699-.052 1.636-.052v-1.5ZM18.75 12c0 1.173 0 2.146-.029 2.974l1.5.052c.03-.86.029-1.861.029-3.026h-1.5Zm-.029 2.974c-.063 1.855-.27 2.819-.783 3.524l1.214.882c.802-1.104 1.004-2.48 1.069-4.354l-1.5-.052Zm-4.471 5.997c0-.937.003-1.324.052-1.636l-1.481-.235c-.073.458-.071.989-.071 1.871h1.5Zm-3.75.779c1.165 0 2.166 0 3.026-.03l-.052-1.498a92.34 92.34 0 0 1-2.974.028v1.5Zm3.026-.03c1.873-.064 3.25-.266 4.354-1.068l-.882-1.214c-.706.513-1.669.72-3.524.784l.052 1.499ZM6.5 8a1 1 0 1 1-2 0 1 1 0 0 1 2 0ZM6.5 12a1 1 0 1 1-2 0 1 1 0 0 1 2 0ZM11.5 8a1 1 0 1 1-2 0 1 1 0 0 1 2 0ZM11.5 12a1 1 0 1 1-2 0 1 1 0 0 1 2 0ZM11.5 16a1 1 0 1 1-2 0 1 1 0 0 1 2 0ZM16.5 8a1 1 0 1 1-2 0 1 1 0 0 1 2 0ZM16.5 12a1 1 0 1 1-2 0 1 1 0 0 1 2 0ZM6.5 16a1 1 0 1 1-2 0 1 1 0 0 1 2 0Z"
  />
</svg>
