<svg viewBox="0 0 24 24" xmlns="http://www.w3.org/2000/svg">
  <path
    d="M10.0001 18.9999C9.7664 19.0004 9.53996 18.919 9.36005 18.7699C9.25879 18.686 9.17509 18.5829 9.11374 18.4665C9.05239 18.3502 9.01459 18.2229 9.00251 18.0919C8.99044 17.9609 9.00432 17.8289 9.04337 17.7033C9.08241 17.5777 9.14585 17.461 9.23005 17.3599L13.7101 11.9999L9.39005 6.62994C9.30699 6.52765 9.24495 6.40996 9.20752 6.28362C9.17009 6.15728 9.158 6.02479 9.17194 5.89376C9.18587 5.76273 9.22557 5.63575 9.28875 5.52011C9.35192 5.40447 9.43732 5.30246 9.54005 5.21994C9.64352 5.1289 9.76468 5.06024 9.89595 5.01825C10.0272 4.97626 10.1657 4.96185 10.3028 4.97594C10.4399 4.99002 10.5726 5.03229 10.6926 5.1001C10.8126 5.1679 10.9173 5.25977 11.0001 5.36994L15.8301 11.3699C15.9771 11.5489 16.0575 11.7733 16.0575 12.0049C16.0575 12.2366 15.9771 12.461 15.8301 12.6399L10.8301 18.6399C10.7297 18.761 10.6023 18.8566 10.4581 18.9192C10.3139 18.9817 10.157 19.0094 10.0001 18.9999Z"
  />
</svg>
