<svg xmlns="http://www.w3.org/2000/svg" fill="currentColor" viewBox="0 0 18 18">
  <path
    d="M5.667 5.042a.625.625 0 0 0 0 1.25h2.5a.625.625 0 0 0 0-1.25h-2.5Zm0 3.333a.625.625 0 1 0 0 1.25h6.666a.625.625 0 1 0 0-1.25H5.667Zm0 3.333a.625.625 0 1 0 0 1.25h6.666a.625.625 0 0 0 0-1.25H5.667Z"
  />
  <path
    fill-rule="evenodd"
    d="M12.72.145C11.768.04 10.568.04 9.038.042h-.076c-1.53 0-2.73 0-3.682.103-.97.105-1.758.323-2.43.812a4.792 4.792 0 0 0-1.06 1.06c-.488.672-.707 1.459-.812 2.43-.103.952-.103 2.151-.103 3.682V9.87c0 1.53 0 2.73.103 3.682.105.971.324 1.758.812 2.43a4.79 4.79 0 0 0 1.06 1.06c.672.488 1.46.707 2.43.812.952.103 2.152.103 3.682.103h.076c1.53 0 2.73 0 3.682-.103.97-.105 1.758-.324 2.43-.812a4.791 4.791 0 0 0 1.06-1.06c.488-.672.707-1.459.812-2.43.103-.952.103-2.152.103-3.682V8.129c0-1.53 0-2.73-.103-3.682-.105-.971-.324-1.758-.812-2.43a4.793 4.793 0 0 0-1.06-1.06C14.478.468 13.69.25 12.72.145ZM3.585 1.968c.423-.308.965-.487 1.83-.58.877-.096 2.009-.096 3.585-.096s2.708 0 3.585.095c.865.094 1.407.273 1.83.58.3.22.565.484.784.784.307.424.486.966.58 1.83.095.877.096 2.01.096 3.585v1.667c0 1.576 0 2.708-.096 3.585-.094.865-.273 1.407-.58 1.83-.219.3-.483.565-.784.784-.423.307-.965.487-1.83.58-.877.095-2.009.096-3.585.096s-2.708 0-3.585-.096c-.865-.093-1.407-.273-1.83-.58a3.542 3.542 0 0 1-.784-.784c-.307-.423-.486-.965-.58-1.83-.095-.877-.096-2.008-.096-3.585V8.166c0-1.576 0-2.708.096-3.584.094-.865.273-1.407.58-1.83.219-.301.483-.566.784-.784Z"
    clip-rule="evenodd"
  />
</svg>
