<svg viewBox="0 0 16 18" xmlns="http://www.w3.org/2000/svg">
  <path
    fill-rule="evenodd"
    clip-rule="evenodd"
    d="M3.00016 0.875C1.73451 0.875 0.708496 1.90101 0.708496 3.16667C0.708496 4.43232 1.73451 5.45833 3.00016 5.45833C4.26582 5.45833 5.29183 4.43232 5.29183 3.16667C5.29183 1.90101 4.26582 0.875 3.00016 0.875ZM1.9585 3.16667C1.9585 2.59137 2.42487 2.125 3.00016 2.125C3.57546 2.125 4.04183 2.59137 4.04183 3.16667C4.04183 3.74196 3.57546 4.20833 3.00016 4.20833C2.42487 4.20833 1.9585 3.74196 1.9585 3.16667Z"
    fill="#1C1917"
  />
  <path
    d="M8.00016 2.54167C7.65498 2.54167 7.37516 2.82149 7.37516 3.16667C7.37516 3.51184 7.65498 3.79167 8.00016 3.79167L14.6668 3.79167C15.012 3.79167 15.2918 3.51185 15.2918 3.16667C15.2918 2.82149 15.012 2.54167 14.6668 2.54167L8.00016 2.54167Z"
    fill="#1C1917"
  />
  <path
    fill-rule="evenodd"
    clip-rule="evenodd"
    d="M13.0002 6.70833C11.7345 6.70833 10.7085 7.73435 10.7085 9C10.7085 10.2657 11.7345 11.2917 13.0002 11.2917C14.2658 11.2917 15.2918 10.2657 15.2918 9C15.2918 7.73435 14.2658 6.70833 13.0002 6.70833ZM11.9585 9C11.9585 8.4247 12.4249 7.95833 13.0002 7.95833C13.5755 7.95833 14.0418 8.4247 14.0418 9C14.0418 9.5753 13.5755 10.0417 13.0002 10.0417C12.4249 10.0417 11.9585 9.5753 11.9585 9Z"
    fill="#1C1917"
  />
  <path
    d="M1.3335 8.375C0.988318 8.375 0.708496 8.65482 0.708496 9C0.708496 9.34518 0.988318 9.625 1.3335 9.625L8.00016 9.625C8.34534 9.625 8.62516 9.34518 8.62516 9C8.62516 8.65482 8.34534 8.375 8.00016 8.375L1.3335 8.375Z"
    fill="#1C1917"
  />
  <path
    fill-rule="evenodd"
    clip-rule="evenodd"
    d="M3.00016 12.5417C1.73451 12.5417 0.708496 13.5677 0.708496 14.8333C0.708496 16.099 1.73451 17.125 3.00016 17.125C4.26582 17.125 5.29183 16.099 5.29183 14.8333C5.29183 13.5677 4.26582 12.5417 3.00016 12.5417ZM1.9585 14.8333C1.9585 14.258 2.42487 13.7917 3.00016 13.7917C3.57546 13.7917 4.04183 14.258 4.04183 14.8333C4.04183 15.4086 3.57546 15.875 3.00016 15.875C2.42487 15.875 1.9585 15.4086 1.9585 14.8333Z"
    fill="#1C1917"
  />
  <path
    d="M8.00016 14.2083C7.65498 14.2083 7.37516 14.4882 7.37516 14.8333C7.37516 15.1785 7.65498 15.4583 8.00016 15.4583H14.6668C15.012 15.4583 15.2918 15.1785 15.2918 14.8333C15.2918 14.4882 15.012 14.2083 14.6668 14.2083H8.00016Z"
    fill="#1C1917"
  />
</svg>
