<svg xmlns="http://www.w3.org/2000/svg" fill="currentColor" viewBox="0 0 16 18">
  <path
    fill-rule="evenodd"
    d="M3 .875a2.292 2.292 0 1 0 0 4.583A2.292 2.292 0 0 0 3 .875ZM1.958 3.167a1.042 1.042 0 1 1 2.084 0 1.042 1.042 0 0 1-2.083 0Z"
    clip-rule="evenodd"
  />
  <path d="M8 2.542a.625.625 0 1 0 0 1.25h6.667a.625.625 0 1 0 0-1.25H8Z" />
  <path
    fill-rule="evenodd"
    d="M13 6.708a2.292 2.292 0 1 0 0 4.584 2.292 2.292 0 0 0 0-4.584ZM11.96 9a1.042 1.042 0 1 1 2.083 0 1.042 1.042 0 0 1-2.083 0Z"
    clip-rule="evenodd"
  />
  <path d="M1.333 8.375a.625.625 0 1 0 0 1.25H8a.625.625 0 1 0 0-1.25H1.333Z" />
  <path
    fill-rule="evenodd"
    d="M3 12.542a2.292 2.292 0 1 0 0 4.583 2.292 2.292 0 0 0 0-4.583Zm-1.042 2.291a1.042 1.042 0 1 1 2.084 0 1.042 1.042 0 0 1-2.083 0Z"
    clip-rule="evenodd"
  />
  <path d="M8 14.208a.625.625 0 0 0 0 1.25h6.667a.625.625 0 1 0 0-1.25H8Z" />
</svg>
