<svg viewBox="0 0 24 24" xmlns="http://www.w3.org/2000/svg">
  <path
    d="M9 3H5C4.46957 3 3.96086 3.21071 3.58579 3.58579C3.21071 3.96086 3 4.46957 3 5V9C3 9.53043 3.21071 10.0391 3.58579 10.4142C3.96086 10.7893 4.46957 11 5 11H9C9.53043 11 10.0391 10.7893 10.4142 10.4142C10.7893 10.0391 11 9.53043 11 9V5C11 4.46957 10.7893 3.96086 10.4142 3.58579C10.0391 3.21071 9.53043 3 9 3Z"
  />
  <path
    d="M19 3H15C14.4696 3 13.9609 3.21071 13.5858 3.58579C13.2107 3.96086 13 4.46957 13 5V9C13 9.53043 13.2107 10.0391 13.5858 10.4142C13.9609 10.7893 14.4696 11 15 11H19C19.5304 11 20.0391 10.7893 20.4142 10.4142C20.7893 10.0391 21 9.53043 21 9V5C21 4.46957 20.7893 3.96086 20.4142 3.58579C20.0391 3.21071 19.5304 3 19 3Z"
  />
  <path
    d="M9 13H5C4.46957 13 3.96086 13.2107 3.58579 13.5858C3.21071 13.9609 3 14.4696 3 15V19C3 19.5304 3.21071 20.0391 3.58579 20.4142C3.96086 20.7893 4.46957 21 5 21H9C9.53043 21 10.0391 20.7893 10.4142 20.4142C10.7893 20.0391 11 19.5304 11 19V15C11 14.4696 10.7893 13.9609 10.4142 13.5858C10.0391 13.2107 9.53043 13 9 13Z"
  />
  <path
    d="M19 13H15C14.4696 13 13.9609 13.2107 13.5858 13.5858C13.2107 13.9609 13 14.4696 13 15V19C13 19.5304 13.2107 20.0391 13.5858 20.4142C13.9609 20.7893 14.4696 21 15 21H19C19.5304 21 20.0391 20.7893 20.4142 20.4142C20.7893 20.0391 21 19.5304 21 19V15C21 14.4696 20.7893 13.9609 20.4142 13.5858C20.0391 13.2107 19.5304 13 19 13Z"
  />
</svg>
