<svg xmlns="http://www.w3.org/2000/svg" viewBox="0 0 24 24" fill="none">
  <circle
    cx="12.5"
    cy="12"
    r="9"
    stroke="currentColor"
    stroke-linecap="round"
    stroke-linejoin="round"
    stroke-width="2"
  />
  <path
    stroke="currentColor"
    stroke-linecap="round"
    stroke-linejoin="round"
    stroke-width="1.5"
    d="M16.5 4v0a2 2 0 0 1-2 2H14a1.5 1.5 0 0 0-1.5 1.5V8a1 1 0 0 1-1 1v0a1 1 0 0 0-1 1v1a2 2 0 0 0 2 2h2a2 2 0 0 1 2 2v0a2 2 0 0 0 2 2h1m-8 4v-2.5c0-.828-.685-1.5-1.513-1.5v0c-.814 0-1.487-.66-1.487-1.474v0c0-.34-.118-.67-.333-.933L4 9.5"
  />
</svg>
