<svg stroke="currentColor" xmlns="http://www.w3.org/2000/svg" viewBox="0 0 13.3 13.3">
  <path
    d="M6.65,12.65c3.31,0,6-2.69,6-6S9.96.65,6.65.65.65,3.34.65,6.65s2.69,6,6,6Z"
    fill="none"
    stroke="currentColor"
    stroke-width="1.3"
  />
  <path
    d="M3.98,2.65v-1.33C5.65.54,9.58-.02,11.98,3.98h-.67c-.35,0-.69.14-.94.39-.25.25-.39.59-.39.94s-.14.69-.39.94c-.25.25-.59.39-.94.39s-.69-.14-.94-.39-.39-.59-.39-.94-.14-.69-.39-.94c-.25-.25-.59-.39-.94-.39h-.67c-.35,0-.69-.14-.94-.39-.25-.25-.39-.59-.39-.94ZM9.98,9.32h2c-.8,1.07-2.56,2.22-3.33,2.67v-1.33c0-.35.14-.69.39-.94.25-.25.59-.39.94-.39ZM5.98,10.65v1.33C1.72,11.72.65,8.32.65,6.65h1.33c.35,0,.69.14.94.39.25.25.39.59.39.94s.14.69.39.94c.25.25.59.39.94.39s.69.14.94.39c.25.25.39.59.39.94Z"
    fill="currentColor"
    stroke-width="0"
  />
  <path
    d="M3.98,2.65v-1.33C5.65.54,9.58-.02,11.98,3.98h-.67c-.35,0-.69.14-.94.39-.25.25-.39.59-.39.94s-.14.69-.39.94c-.25.25-.59.39-.94.39s-.69-.14-.94-.39-.39-.59-.39-.94-.14-.69-.39-.94c-.25-.25-.59-.39-.94-.39h-.67c-.35,0-.69-.14-.94-.39-.25-.25-.39-.59-.39-.94ZM9.98,9.32h2c-.8,1.07-2.56,2.22-3.33,2.67v-1.33c0-.35.14-.69.39-.94.25-.25.59-.39.94-.39h0ZM5.98,10.65v1.33C1.72,11.72.65,8.32.65,6.65h1.33c.35,0,.69.14.94.39.25.25.39.59.39.94s.14.69.39.94c.25.25.59.39.94.39s.69.14.94.39c.25.25.39.59.39.94Z"
    fill="none"
    stroke="currentColor"
    stroke-linecap="round"
    stroke-linejoin="round"
  />
</svg>
