<svg viewBox="0 0 32 32" xmlns="http://www.w3.org/2000/svg">
  <circle
    cx="16"
    cy="16"
    r="12"
    fill="none"
    stroke="currentColor"
    stroke-width="2"
    stroke-linecap="round"
    stroke-linejoin="round"
  />
  <path
    d="M21.3346 5.3335V5.3335C21.3346 6.80626 20.1407 8.00016 18.668 8.00016H18.0013C16.8967 8.00016 16.0013 8.89559 16.0013 10.0002V10.6668C16.0013 11.4032 15.4043 12.0002 14.668 12.0002V12.0002C13.9316 12.0002 13.3346 12.5971 13.3346 13.3335V14.6668C13.3346 16.1396 14.5285 17.3335 16.0013 17.3335H18.668C20.1407 17.3335 21.3346 18.5274 21.3346 20.0002V20.0002C21.3346 21.4729 22.5285 22.6668 24.0013 22.6668H25.3346M14.668 28.0002V24.6668C14.668 23.5623 13.755 22.6668 12.6504 22.6668V22.6668C11.5651 22.6668 10.668 21.787 10.668 20.7017V20.7017C10.668 20.248 10.511 19.8083 10.2238 19.4572L4.66797 12.6668"
    fill="none"
    stroke="currentColor"
    stroke-width="2"
    stroke-linecap="round"
    stroke-linejoin="round"
  />
</svg>
