<svg xmlns="http://www.w3.org/2000/svg" stroke="currentColor" viewBox="0 0 13.3 13.3">
  <path fill="none" stroke-width="1.3" d="M6.65 12.65c3.31 0 6-2.69 6-6s-2.69-6-6-6-6 2.69-6 6 2.69 6 6 6Z" />
  <path
    fill="currentColor"
    stroke="none"
    d="M3.98 2.65V1.32c1.67-.78 5.6-1.34 8 2.66h-.67a1.333 1.333 0 0 0-1.33 1.33 1.333 1.333 0 0 1-1.33 1.33 1.333 1.333 0 0 1-1.33-1.33 1.333 1.333 0 0 0-1.33-1.33h-.67a1.333 1.333 0 0 1-1.33-1.33Zm6 6.67h2c-.8 1.07-2.56 2.22-3.33 2.67v-1.33a1.333 1.333 0 0 1 1.33-1.33Zm-4 1.33v1.33C1.72 11.72.65 8.32.65 6.65h1.33a1.333 1.333 0 0 1 1.33 1.33 1.333 1.333 0 0 0 1.33 1.33 1.333 1.333 0 0 1 1.33 1.33Z"
  />
  <path
    fill="none"
    stroke-linecap="round"
    stroke-linejoin="round"
    d="M3.98 2.65V1.32c1.67-.78 5.6-1.34 8 2.66h-.67a1.333 1.333 0 0 0-1.33 1.33 1.333 1.333 0 0 1-1.33 1.33 1.333 1.333 0 0 1-1.33-1.33 1.333 1.333 0 0 0-1.33-1.33h-.67a1.333 1.333 0 0 1-1.33-1.33Zm6 6.67h2c-.8 1.07-2.56 2.22-3.33 2.67v-1.33a1.333 1.333 0 0 1 1.33-1.33h0Zm-4 1.33v1.33C1.72 11.72.65 8.32.65 6.65h1.33a1.333 1.333 0 0 1 1.33 1.33 1.333 1.333 0 0 0 1.33 1.33 1.333 1.333 0 0 1 1.33 1.33Z"
  />
</svg>
