<svg viewBox="0 0 28.7 29.3" xmlns="http://www.w3.org/2000/svg">
  <path
    d="M28.7 15c0-1-.1-2-.3-3H14.7v5.7h7.9c-.3 1.8-1.4 3.4-2.9 4.4v3.7h4.7c2.7-2.6 4.3-6.3 4.3-10.8z"
    fill="#4285F4"
  />
  <path
    d="M14.7 29.3c4 0 7.3-1.3 9.7-3.6L19.7 22c-1.3.9-3 1.4-5 1.4-3.8 0-7.1-2.6-8.2-6H1.6v3.8C4 26 8.9 29.3 14.7 29.3z"
    fill="#34A853"
  />
  <path
    d="M6.5 17.5c-.3-.9-.5-1.9-.5-2.8 0-1 .2-1.9.5-2.8V8.1H1.6c-1 2-1.6 4.3-1.6 6.6 0 2.4.6 4.6 1.6 6.6l4.9-3.8z"
    fill="#FBBC05"
  />
  <path
    d="M14.7 5.8c2.2 0 4.1.7 5.6 2.2l4.2-4.2A14.57 14.57 0 0 0 1.6 8.1l4.9 3.8c1.1-3.5 4.3-6.1 8.2-6.1z"
    fill="#EA4335"
  />
</svg>
