<svg
  width="32"
  height="33"
  viewBox="0 0 32 33"
  fill="none"
  xmlns="http://www.w3.org/2000/svg"
>
  <path
    d="M30.08 17.0826C30.08 16.0426 29.9867 15.0426 29.8133 14.0826H16V19.756H23.8933C23.5533 21.5893 22.52 23.1426 20.9667 24.1826V27.8626H25.7067C28.48 25.3093 30.08 21.5493 30.08 17.0826Z"
    fill="#4285F4"
  />
  <path
    d="M16 31.4159C19.96 31.4159 23.28 30.1026 25.7067 27.8626L20.9667 24.1826C19.6533 25.0626 17.9733 25.5826 16 25.5826C12.18 25.5826 8.94665 23.0026 7.79332 19.5359H2.89332V23.3359C5.30666 28.1292 10.2667 31.4159 16 31.4159Z"
    fill="#34A853"
  />
  <path
    d="M7.79332 19.5359C7.49999 18.6559 7.33332 17.7159 7.33332 16.7493C7.33332 15.7826 7.49999 14.8426 7.79332 13.9626V10.1626H2.89332C1.86665 12.2064 1.33242 14.4621 1.33332 16.7493C1.33332 19.1159 1.89999 21.3559 2.89332 23.3359L7.79332 19.5359Z"
    fill="#FBBC05"
  />
  <path
    d="M16 7.91598C18.1533 7.91598 20.0867 8.65597 21.6067 10.1093L25.8133 5.90264C23.2733 3.53597 19.9533 2.08264 16 2.08264C10.2667 2.08264 5.30666 5.36931 2.89332 10.1626L7.79332 13.9626C8.94665 10.496 12.18 7.91598 16 7.91598Z"
    fill="#EA4335"
  />
</svg>
