<svg xmlns="http://www.w3.org/2000/svg" fill="currentColor" viewBox="0 0 18 18">
  <path
    fill-rule="evenodd"
    d="M17.583 9A8.333 8.333 0 1 1 .917 9a8.333 8.333 0 0 1 16.666 0ZM4.796 10.112a.625.625 0 0 1 .842.267c.224.433.69.983 1.338 1.423.642.436 1.425.74 2.274.74.85 0 1.632-.304 2.274-.74.647-.44 1.114-.99 1.338-1.423a.625.625 0 0 1 1.11.576c-.332.639-.949 1.339-1.746 1.88-.802.546-1.825.957-2.976.957-1.15 0-2.174-.41-2.976-.956-.797-.542-1.414-1.242-1.746-1.881a.625.625 0 0 1 .268-.843ZM6.75 6.5a.833.833 0 1 0 0-1.666.833.833 0 0 0 0 1.666Zm5 0a.833.833 0 1 0 0-1.666.833.833 0 0 0 0 1.666Z"
    clip-rule="evenodd"
  />
</svg>
