<svg xmlns="http://www.w3.org/2000/svg" fill="currentColor" viewBox="0 0 15 14">
  <path
    d="M10.465 2.812a.469.469 0 1 0-.333.876c.225.086.46.231.697.465.301.299.492.626.598.97a.469.469 0 0 0 .896-.276 3.248 3.248 0 0 0-.834-1.36 2.935 2.935 0 0 0-1.024-.675Z"
  />
  <path
    fill-rule="evenodd"
    d="M6.75 1.695c-.555-.352-1.315-.718-2.159-.78-.867-.063-1.79.199-2.62 1.045C.99 2.959.684 4.192.807 5.44c.122 1.232.663 2.486 1.384 3.596a11.975 11.975 0 0 0 2.574 2.84c.907.71 1.893 1.218 2.735 1.218.842 0 1.828-.508 2.735-1.218a11.974 11.974 0 0 0 2.574-2.84c.72-1.11 1.262-2.364 1.384-3.597.123-1.247-.184-2.48-1.164-3.48-.83-.845-1.753-1.107-2.62-1.044-.845.062-1.605.428-2.16.78a1.452 1.452 0 0 1-1.498 0Zm-4.11.921c.63-.641 1.28-.81 1.883-.766.627.046 1.235.326 1.725.637a2.389 2.389 0 0 0 2.503 0c.491-.311 1.099-.59 1.726-.637.603-.044 1.254.125 1.883.766.752.767 1 1.709.9 2.73-.103 1.037-.567 2.147-1.238 3.18a11.038 11.038 0 0 1-2.365 2.611c-.864.677-1.64 1.02-2.157 1.02-.518 0-1.293-.343-2.157-1.02a11.037 11.037 0 0 1-2.366-2.612c-.67-1.032-1.134-2.142-1.237-3.178-.101-1.022.148-1.964.9-2.73Z"
    clip-rule="evenodd"
  />
</svg>
