<svg viewBox="0 0 20 18" xmlns="http://www.w3.org/2000/svg">
  <path
    d="M10 18C9.86841 18.0008 9.73797 17.9741 9.61615 17.9214C9.49432 17.8687 9.38352 17.791 9.29009 17.6929L1.52113 9.45505C0.546625 8.41227 0 7.00441 0 5.5373C0 4.07018 0.546625 2.66233 1.52113 1.61954C2.50326 0.58241 3.83366 0 5.22064 0C6.60762 0 7.93801 0.58241 8.92014 1.61954L10 2.7631L11.0799 1.61954C12.062 0.58241 13.3924 0 14.7794 0C16.1663 0 17.4967 0.58241 18.4789 1.61954C19.4534 2.66233 20 4.07018 20 5.5373C20 7.00441 19.4534 8.41227 18.4789 9.45505L10.7099 17.6929C10.6165 17.791 10.5057 17.8687 10.3839 17.9214C10.262 17.9741 10.1316 18.0008 10 18Z"
  />
</svg>
