<svg xmlns="http://www.w3.org/2000/svg" viewBox="0 0 16 14">
  <path
    fill-rule="evenodd"
    clip-rule="evenodd"
    d="M9.20051 1.10945C10.4558 0.313191 12.483 -0.43976 14.2336 1.34553C18.3894 5.58352 11.2626 13.75 8.00001 13.75C4.73741 13.75 -2.38937 5.58352 1.7664 1.34554C3.51704 -0.43974 5.54423 0.313201 6.79947 1.10945C7.50874 1.55936 8.49124 1.55936 9.20051 1.10945ZM4.84162 3.02581C5.13202 2.91546 5.27797 2.59058 5.16762 2.30018C5.05726 2.00979 4.73239 1.86383 4.44199 1.97419C4.01393 2.13685 3.60007 2.40132 3.21291 2.78518C2.72215 3.27174 2.3952 3.82426 2.21248 4.41679C2.12093 4.71366 2.28738 5.02852 2.58424 5.12007C2.88111 5.21161 3.19598 5.04517 3.28752 4.7483C3.41499 4.33493 3.64367 3.94231 4.00498 3.58408C4.28869 3.30279 4.57109 3.12862 4.84162 3.02581Z"
  />
</svg>
