<svg xmlns="http://www.w3.org/2000/svg" fill="none" viewBox="0 0 24 24">
  <path
    fill="currentColor"
    fill-rule="evenodd"
    d="M4 19.226c0-.428.347-.774.774-.774h14.452a.774.774 0 1 1 0 1.548H4.774A.774.774 0 0 1 4 19.226ZM4 4.774C4 4.347 4.347 4 4.774 4h14.452a.774.774 0 1 1 0 1.548H4.774A.774.774 0 0 1 4 4.774ZM11.602 6.562a.774.774 0 0 1 .796 0l2.58 1.548a.774.774 0 0 1-.796 1.328l-1.433-.86a.777.777 0 0 1 .025.196v6.374l1.408-.845a.774.774 0 1 1 .797 1.328l-2.58 1.549a.774.774 0 0 1-.797 0L9.02 15.63a.774.774 0 1 1 .797-1.328l1.408.845V8.774c0-.068.008-.134.025-.196l-1.433.86A.774.774 0 1 1 9.02 8.11l2.58-1.548Z"
    clip-rule="evenodd"
  />
</svg>
