<svg viewBox="0 0 25 24" xmlns="http://www.w3.org/2000/svg">
  <path
    fill-rule="evenodd"
    clip-rule="evenodd"
    d="M5.27419 4C5.70177 4 6.04839 4.34662 6.04839 4.77419L6.04839 19.2258C6.04839 19.6534 5.70177 20 5.27419 20C4.84662 20 4.5 19.6534 4.5 19.2258L4.5 4.77419C4.5 4.34662 4.84662 4 5.27419 4Z"
  />
  <path
    fill-rule="evenodd"
    clip-rule="evenodd"
    d="M19.7258 4C20.1534 4 20.5 4.34662 20.5 4.77419V19.2258C20.5 19.6534 20.1534 20 19.7258 20C19.2982 20 18.9516 19.6534 18.9516 19.2258V4.77419C18.9516 4.34662 19.2982 4 19.7258 4Z"
  />
  <path
    fill-rule="evenodd"
    clip-rule="evenodd"
    d="M17.9384 11.6016C18.0855 11.8468 18.0855 12.1531 17.9384 12.3983L16.39 14.9789C16.1701 15.3455 15.6945 15.4644 15.3279 15.2444C14.9612 15.0245 14.8423 14.5489 15.0623 14.1823L15.9222 12.7491C15.8596 12.7654 15.7939 12.7741 15.7262 12.7741H9.35161L10.1965 14.1823C10.4165 14.5489 10.2976 15.0245 9.93095 15.2444C9.5643 15.4644 9.08875 15.3455 8.86876 14.9789L7.32037 12.3983C7.17327 12.1531 7.17327 11.8468 7.32037 11.6016L8.86876 9.02097C9.08875 8.65433 9.5643 8.53544 9.93095 8.75543C10.2976 8.97541 10.4165 9.45097 10.1965 9.81761L9.35161 11.2257H15.7262C15.7939 11.2257 15.8596 11.2344 15.9222 11.2508L15.0623 9.81761C14.8423 9.45097 14.9612 8.97541 15.3279 8.75543C15.6945 8.53544 16.1701 8.65433 16.39 9.02097L17.9384 11.6016Z"
  />
</svg>
