<svg fill="currentColor" xmlns="http://www.w3.org/2000/svg" viewBox="0 0 17 16">
  <path
    d="M9.11 6.193 6.443 8.86a.667.667 0 0 0 .217 1.092.667.667 0 0 0 .73-.146l2.667-2.666a.67.67 0 1 0-.947-.947Z"
  />
  <path
    stroke="currentColor"
    d="M5.81 13.789a3.3 3.3 0 0 0 2.129-.99l.85-.844-.352-.355.353.354a.17.17 0 0 1 .24.24l-.946.945a3.54 3.54 0 0 1-5.295-.346 3.6 3.6 0 0 1 .396-4.72l.007-.007.846-.854a.167.167 0 0 1 .237 0l.003.003a.167.167 0 0 1 0 .237l-.003.003-.945.951a3.167 3.167 0 0 0 .215 4.694l.007.005.006.005a3.3 3.3 0 0 0 2.252.679Z"
  />
  <path
    fill="currentColor"
    d="M13.357 2.147a4.12 4.12 0 0 0-5.42.453l-.72.734a.727.727 0 0 0-.113 1.073.667.667 0 0 0 .946 0l.867-.873a2.78 2.78 0 0 1 3.713-.267 2.667 2.667 0 0 1 .18 3.967l-.947.953a.666.666 0 0 0 0 .947.666.666 0 0 0 .947 0l.947-.947a4.042 4.042 0 0 0-.4-6.04Z"
  />
</svg>
