<svg viewBox="0 0 25 24" xmlns="http://www.w3.org/2000/svg">
  <path
    fill-rule="evenodd"
    clip-rule="evenodd"
    d="M4.5 19.2258C4.5 18.7982 4.84662 18.4516 5.27419 18.4516H19.7258C20.1534 18.4516 20.5 18.7982 20.5 19.2258C20.5 19.6534 20.1534 20 19.7258 20H5.27419C4.84662 20 4.5 19.6534 4.5 19.2258Z"
  />
  <path
    fill-rule="evenodd"
    clip-rule="evenodd"
    d="M4.5 4.77419C4.5 4.34662 4.84662 4 5.27419 4H19.7258C20.1534 4 20.5 4.34662 20.5 4.77419C20.5 5.20177 20.1534 5.54839 19.7258 5.54839H5.27419C4.84662 5.54839 4.5 5.20177 4.5 4.77419Z"
  />
  <path
    fill-rule="evenodd"
    clip-rule="evenodd"
    d="M12.1016 6.56157C12.3468 6.41447 12.6531 6.41447 12.8983 6.56157L15.4789 8.10996C15.8455 8.32995 15.9644 8.8055 15.7444 9.17214C15.5245 9.53879 15.0489 9.65768 14.6823 9.43769L13.2491 8.57779C13.2654 8.6404 13.2741 8.7061 13.2741 8.77383V15.1484L14.6823 14.3035C15.0489 14.0835 15.5245 14.2024 15.7444 14.5691C15.9644 14.9357 15.8455 15.4113 15.4789 15.6312L12.8983 17.1796C12.6531 17.3267 12.3468 17.3267 12.1016 17.1796L9.52097 15.6312C9.15433 15.4113 9.03544 14.9357 9.25543 14.5691C9.47541 14.2024 9.95097 14.0835 10.3176 14.3035L11.7257 15.1484V8.77383C11.7257 8.7061 11.7344 8.6404 11.7508 8.57779L10.3176 9.43769C9.95097 9.65768 9.47541 9.53879 9.25543 9.17214C9.03544 8.8055 9.15433 8.32995 9.52097 8.10996L12.1016 6.56157Z"
  />
</svg>
