<svg viewBox="0 0 24 24" fill="none" xmlns="http://www.w3.org/2000/svg">
  <path
    d="M9.00046 15.0012L15.0009 9.00072M11.0006 6.00047L11.4636 5.46443C12.4015 4.52668 13.6735 3.99991 14.9997 4C16.326 4.00009 17.5979 4.52704 18.5356 5.46493C19.4733 6.40281 20.0001 7.6748 20 9.00107C19.9999 10.3273 19.473 11.5993 18.5351 12.537L18.0011 13.001M13.0007 18.0015L12.6037 18.5355C11.6549 19.4738 10.3744 20 9.03998 20C7.7056 20 6.42506 19.4738 5.47624 18.5355C5.00857 18.0731 4.63728 17.5224 4.38388 16.9155C4.13048 16.3086 4 15.6574 4 14.9997C4 14.342 4.13048 13.6908 4.38388 13.0839C4.63728 12.477 5.00857 11.9264 5.47624 11.4639L6.00028 11.0009"
    stroke="currentColor"
    stroke-width="1.5"
    stroke-linecap="round"
    stroke-linejoin="round"
  />
</svg>
