<svg xmlns="http://www.w3.org/2000/svg" fill="currentColor" viewBox="0 0 10 11">
  <path d="M4.375 7a.625.625 0 1 1 1.25 0 .625.625 0 0 1-1.25 0Z" />
  <path
    fill-rule="evenodd"
    d="M5 .125A2.875 2.875 0 0 0 2.125 3v.557c0 .033.004.066.013.096A2.5 2.5 0 0 0 .622 5.227C.5 5.604.5 6.07.5 7c0 .93 0 1.396.122 1.773a2.5 2.5 0 0 0 1.605 1.605c.377.122.842.122 1.773.122h2c.93 0 1.396 0 1.773-.122a2.5 2.5 0 0 0 1.605-1.605C9.5 8.396 9.5 7.93 9.5 7c0-.93 0-1.396-.122-1.773a2.5 2.5 0 0 0-1.516-1.574.376.376 0 0 0 .013-.096V3A2.875 2.875 0 0 0 5 .125ZM6 3.5c.483 0 .84 0 1.125.017V3a2.125 2.125 0 0 0-4.25 0v.517C3.16 3.5 3.517 3.5 4 3.5h2ZM3.625 7a1.375 1.375 0 1 1 2.75 0 1.375 1.375 0 0 1-2.75 0Z"
    clip-rule="evenodd"
  />
</svg>
