<svg viewBox="0 0 24 24" fill="none" xmlns="http://www.w3.org/2000/svg">
  <path
    fill-rule="evenodd"
    clip-rule="evenodd"
    d="M4 0C1.79086 0 0 1.79086 0 4V20C0 22.2091 1.79086 24 4 24H20C22.2091 24 24 22.2091 24 20V4C24 1.79086 22.2091 0 20 0H4ZM7.37623 15.5367C7.89561 14.1648 9.80497 9.12168 7.47627 4C7.47627 4 11.7223 9.2604 17.9636 9.93869C17.9636 9.93869 15.9074 15.4646 17.3236 20.2188L13.7424 14.016C14.0425 13.6652 14.105 13.1497 13.861 12.7271C13.5515 12.1911 12.8661 12.0075 12.3301 12.3169C11.7941 12.6264 11.6105 13.3118 11.9199 13.8478C12.1828 14.3032 12.717 14.5042 13.2004 14.3647L15.2519 17.7928L16.8532 20.5662C15.322 18.9996 12.1373 16.4575 7.2599 15.9004C7.23918 15.8986 7.28735 15.7714 7.37623 15.5367Z"
    fill="#F1F1F0"
  />
</svg>
