<svg viewBox="0 0 24 24" xmlns="http://www.w3.org/2000/svg">
  <path
    d="M20.05 11H3.95C3.42533 11 3 11.4253 3 11.95V12.05C3 12.5747 3.42533 13 3.95 13H20.05C20.5747 13 21 12.5747 21 12.05V11.95C21 11.4253 20.5747 11 20.05 11Z"
  />
  <path
    d="M20.05 17H3.95C3.42533 17 3 17.4253 3 17.95V18.05C3 18.5747 3.42533 19 3.95 19H20.05C20.5747 19 21 18.5747 21 18.05V17.95C21 17.4253 20.5747 17 20.05 17Z"
  />
  <path
    d="M20.05 5H3.95C3.42533 5 3 5.42533 3 5.95V6.05C3 6.57467 3.42533 7 3.95 7H20.05C20.5747 7 21 6.57467 21 6.05V5.95C21 5.42533 20.5747 5 20.05 5Z"
  />
</svg>
