<svg viewBox="0 0 32 35" fill="none" xmlns="http://www.w3.org/2000/svg">
  <path
    d="M31 25.5853V14.2439C31 11.3208 28.6304 8.95117 25.7074 8.95117H22.2289C20.8252 8.95117 19.479 9.50879 18.4864 10.5014L14.5549 14.4329L10.6234 18.3644C9.63083 19.357 9.07321 20.7032 9.07321 22.1069V25.5853C9.07321 28.5084 11.4428 30.878 14.3659 30.878H25.7074C28.6304 30.878 31 28.5084 31 25.5853Z"
    fill="url(#paint0_linear_1866_3187)"
  />
  <path
    d="M8.35117 3.74121C9.32985 3.74121 10.3265 4.11652 11.0735 4.86354L19.4066 13.1975L24.317 15.0768L24.7938 15.2734L24.8782 15.7789L26.1406 24.2233L26.3094 25.4292L25.1018 25.2622L16.6555 23.9998L16.1509 23.9154L15.9543 23.4386L14.1864 18.7805L13.7375 18.3603L5.65668 10.2795C4.20842 8.83031 4.18059 6.50484 5.54445 5.00361L5.65668 4.86354C6.00922 4.50776 6.42879 4.22538 6.89113 4.03274C7.35347 3.8401 7.85031 3.74101 8.35117 3.74121ZM8.35117 5.50911C7.84657 5.50911 7.34107 5.73358 6.92087 6.15467C6.07867 6.99597 6.07867 8.17487 6.92087 9.01617L11.438 13.5333L14.3004 10.6718L9.78237 6.15467C9.36217 5.73358 8.85577 5.50911 8.35117 5.50911ZM15.5907 11.963L12.7283 14.8245L14.3561 16.4523L17.2185 13.5899L15.5907 11.963ZM18.5931 14.7966H18.5653L15.6742 17.686L17.443 22.3163L22.6892 23.0732L20.2766 20.6606C20.2272 20.6642 20.185 20.6884 20.1366 20.6884C19.3437 20.6884 18.6766 20.0509 18.6766 19.2581C18.6766 18.4653 19.3437 17.7991 20.1366 17.7991C20.9285 17.7991 21.5669 18.4653 21.5669 19.2581C21.5669 19.3066 21.5426 19.3488 21.539 19.3982L23.9525 21.8108L23.1947 16.5645L18.5931 14.7966Z"
    fill="white"
  />
  <path
    d="M18.5931 14.7966H18.5653L15.6742 17.686L17.443 22.3163L22.6892 23.0732L20.2766 20.6606C20.2272 20.6642 20.185 20.6884 20.1366 20.6884C19.3437 20.6884 18.6766 20.0509 18.6766 19.2581C18.6766 18.4653 19.3437 17.7991 20.1366 17.7991C20.9285 17.7991 21.5669 18.4653 21.5669 19.2581C21.5669 19.3066 21.5426 19.3488 21.539 19.3982L23.9525 21.8108L23.1947 16.5645L18.5931 14.7966Z"
    fill="white"
  />
  <path d="M15.5907 11.963L12.7283 14.8245L14.3561 16.4523L17.2185 13.5899L15.5907 11.963Z" fill="white" />
  <path
    d="M8.35117 5.50911C7.84657 5.50911 7.34107 5.73358 6.92087 6.15467C6.07867 6.99597 6.07867 8.17487 6.92087 9.01617L11.438 13.5333L14.3004 10.6718L9.78237 6.15467C9.36217 5.73358 8.85577 5.50911 8.35117 5.50911Z"
    fill="white"
  />
  <path
    d="M8.35117 3.74121C9.32985 3.74121 10.3265 4.11652 11.0735 4.86354L19.4066 13.1975L24.317 15.0768L24.7938 15.2734L24.8782 15.7789L26.1406 24.2233L26.3094 25.4292L25.1018 25.2622L16.6555 23.9998L16.1509 23.9154L15.9543 23.4386L14.1864 18.7805L13.7375 18.3603L5.65668 10.2795C4.20842 8.83031 4.18059 6.50484 5.54445 5.00361L5.65668 4.86354C6.00922 4.50776 6.42879 4.22538 6.89113 4.03274C7.35347 3.8401 7.85031 3.74101 8.35117 3.74121ZM18.5931 14.7966H18.5653L15.6742 17.686L17.443 22.3163L22.6892 23.0732L20.2766 20.6606C20.2272 20.6642 20.185 20.6884 20.1366 20.6884C19.3437 20.6884 18.6766 20.0509 18.6766 19.2581C18.6766 18.4653 19.3437 17.7991 20.1366 17.7991C20.9285 17.7991 21.5669 18.4653 21.5669 19.2581C21.5669 19.3066 21.5426 19.3488 21.539 19.3982L23.9525 21.8108L23.1947 16.5645L18.5931 14.7966Z"
    fill="#44403C"
  />
  <path
    d="M20.0366 8.95117H25.7074C28.6304 8.95117 31 11.3208 31 14.2439V25.5853C31 28.5084 28.6304 30.878 25.7074 30.878H14.3659C11.4428 30.878 9.07321 28.5084 9.07321 25.5853V19.9146"
    stroke="#44403C"
    stroke-width="1.81463"
    stroke-linecap="round"
  />
  <defs>
    <linearGradient id="paint0_linear_1866_3187" x1="31" y1="31" x2="14.5" y2="13" gradientUnits="userSpaceOnUse">
      <stop stop-color="#D9D9D9" />
      <stop offset="1" stop-color="#D9D9D9" stop-opacity="0" />
    </linearGradient>
  </defs>
</svg>
