<svg xmlns="http://www.w3.org/2000/svg" viewBox="0 0 20 20">
  <path fill="#1C1917" d="M15.833 16.666H4.167a.833.833 0 1 0 0 1.667h11.666a.833.833 0 0 0 0-1.666Z" />
  <path
    fill="#78716C"
    d="M4.167 15h.075l3.475-.317c.38-.037.736-.205 1.008-.475l7.5-7.5a1.6 1.6 0 0 0-.058-2.258l-2.284-2.283a1.667 1.667 0 0 0-2.216-.059l-7.5 7.5c-.27.272-.437.628-.475 1.009l-.359 3.475a.833.833 0 0 0 .834.908Zm8.558-11.667L15 5.608l-1.667 1.625L11.1 5l1.625-1.667Zm-7.417 7.425L10 6.1l2.25 2.25-4.667 4.667-2.5.233.225-2.492Z"
  />
</svg>
