<svg viewBox="0 0 24 24" xmlns="http://www.w3.org/2000/svg">
  <path
    d="M21.75 6V18C21.75 18.3978 21.592 18.7794 21.3107 19.0607C21.0294 19.342 20.6479 19.5 20.25 19.5H7.7344L4.7269 22.1353C4.72328 22.1392 4.71919 22.1427 4.71471 22.1456C4.44537 22.3744 4.10344 22.5 3.75003 22.5C3.52997 22.4996 3.31268 22.451 3.11346 22.3575C2.85434 22.2381 2.63511 22.0465 2.48198 21.8058C2.32886 21.5651 2.24833 21.2853 2.25003 21V6C2.25003 5.60218 2.40806 5.22064 2.68937 4.93934C2.97067 4.65804 3.3522 4.5 3.75003 4.5H20.25C20.6479 4.5 21.0294 4.65804 21.3107 4.93934C21.592 5.22064 21.75 5.60218 21.75 6Z"
  />
</svg>
