<svg viewBox="0 0 14 12" fill="none" xmlns="http://www.w3.org/2000/svg">
  <path
    d="M13.5 1V9C13.5 9.26522 13.3947 9.51957 13.2071 9.70711C13.0196 9.89464 12.7652 10 12.5 10H4.15627L2.15127 11.7569C2.14885 11.7595 2.14612 11.7618 2.14314 11.7638C1.96358 11.9163 1.73563 12 1.50002 12C1.35331 11.9997 1.20845 11.9673 1.07564 11.905C0.902895 11.8254 0.756739 11.6977 0.654656 11.5372C0.552574 11.3767 0.498887 11.1902 0.500017 11V1C0.500017 0.734784 0.605374 0.48043 0.792911 0.292893C0.980447 0.105357 1.2348 0 1.50002 0H12.5C12.7652 0 13.0196 0.105357 13.2071 0.292893C13.3947 0.48043 13.5 0.734784 13.5 1Z"
    fill="#A8A29E"
  />
</svg>
