<svg viewBox="0 0 25 24" xmlns="http://www.w3.org/2000/svg">
  <path
    fill-rule="evenodd"
    clip-rule="evenodd"
    d="M10.0556 4C9.7868 4 9.52048 4.05202 9.27173 4.15329C9.02297 4.25457 8.79638 4.40324 8.60512 4.59122C8.41385 4.77923 8.26165 5.00289 8.15765 5.24966C8.05365 5.49646 8 5.76128 8 6.02894C8 6.29659 8.05365 6.56141 8.15765 6.80821C8.26165 7.05499 8.41385 7.27865 8.60512 7.46665C8.79638 7.65463 9.02297 7.8033 9.27173 7.90458C9.52048 8.00585 9.7868 8.05787 10.0556 8.05787C10.3243 8.05787 10.5906 8.00585 10.8394 7.90458C10.9299 7.86772 11.0175 7.82459 11.1015 7.77557C11.0724 8.10254 10.978 8.39412 10.8362 8.60686C10.6737 8.85062 10.4535 8.99119 10.1508 8.99881C10.1198 8.99959 10.088 9 10.0556 9C9.62258 9 9.33363 8.8607 9.15611 8.73378C9.06529 8.66885 9.00125 8.60526 8.96212 8.56122C8.94265 8.53932 8.92972 8.52266 8.92308 8.51372L8.91828 8.50707C8.76893 8.27889 8.4635 8.21221 8.23237 8.35868C7.99911 8.50649 7.92985 8.8154 8.07766 9.04865L8.48073 8.79323C8.07766 9.04866 8.07751 9.04843 8.07766 9.04865L8.07825 9.04959L8.07889 9.05059L8.08031 9.0528L8.08372 9.05803L8.09282 9.07157C8.09991 9.08192 8.10908 9.0949 8.12037 9.11011C8.14295 9.14049 8.1742 9.18 8.21463 9.2255C8.2953 9.31627 8.41391 9.43243 8.57449 9.54724C8.89976 9.77981 9.38858 10 10.0556 10C10.0964 10 10.1365 9.99949 10.176 9.99849C10.8466 9.9816 11.3503 9.6386 11.6683 9.16151C11.9762 8.69962 12.1111 8.11727 12.1111 7.55787V4.5C12.1111 4.22386 11.8873 4 11.6111 4C11.4021 4 11.223 4.12829 11.1483 4.31043C11.0502 4.24964 10.9468 4.19704 10.8394 4.15329C10.5906 4.05202 10.3243 4 10.0556 4ZM9.64881 5.07947C9.77751 5.02708 9.91575 5 10.0556 5C10.1954 5 10.3336 5.02708 10.4623 5.07947C10.591 5.13187 10.7074 5.20844 10.805 5.30441C10.9026 5.40035 10.9796 5.51379 11.0319 5.63801C11.0843 5.76221 11.1111 5.89502 11.1111 6.02894C11.1111 6.16285 11.0843 6.29566 11.0319 6.41986C10.9796 6.54408 10.9026 6.65752 10.805 6.75347C10.7074 6.84943 10.591 6.926 10.4623 6.9784C10.3336 7.0308 10.1954 7.05787 10.0556 7.05787C9.91575 7.05787 9.77751 7.0308 9.64881 6.9784C9.52011 6.926 9.40374 6.84943 9.3061 6.75347C9.20848 6.65752 9.13152 6.54408 9.07917 6.41986C9.02682 6.29566 9 6.16285 9 6.02894C9 5.89502 9.02682 5.76221 9.07917 5.63801C9.13152 5.51379 9.20848 5.40035 9.3061 5.30441C9.40374 5.20844 9.52011 5.13187 9.64881 5.07947Z"
  />
  <path
    fill-rule="evenodd"
    clip-rule="evenodd"
    d="M14.9444 4C14.402 4 13.8801 4.2117 13.494 4.59122C13.1076 4.97103 12.8889 5.48802 12.8889 6.02894C12.8889 6.56986 13.1076 7.08684 13.494 7.46665C13.8801 7.84617 14.402 8.05787 14.9444 8.05787C15.3334 8.05787 15.7118 7.94901 16.0372 7.74745C16.1119 7.92959 16.291 8.05787 16.5 8.05787C16.7761 8.05787 17 7.83401 17 7.55787V4.5C17 4.22386 16.7761 4 16.5 4C16.291 4 16.1119 4.12828 16.0372 4.31042C15.7118 4.10887 15.3334 4 14.9444 4ZM14.195 5.30441C14.3923 5.11047 14.6617 5 14.9444 5C15.2272 5 15.4966 5.11047 15.6939 5.30441C15.8909 5.49806 16 5.75886 16 6.02894C16 6.29902 15.8909 6.55981 15.6939 6.75347C15.4966 6.94741 15.2272 7.05787 14.9444 7.05787C14.6617 7.05787 14.3923 6.94741 14.195 6.75347C13.998 6.55981 13.8889 6.29901 13.8889 6.02894C13.8889 5.75886 13.998 5.49806 14.195 5.30441Z"
  />
  <path
    d="M15.5 10C15.0481 10 14.6818 10.3663 14.6818 10.8182V19.1818C14.6818 19.6337 15.0481 20 15.5 20C15.9519 20 16.3182 19.6337 16.3182 19.1818V15.7143H17.7481C18.1634 15.7143 18.5 15.3777 18.5 14.9624C18.5 14.5472 18.1634 14.2105 17.7481 14.2105H16.3182V10.8182C16.3182 10.3663 15.9519 10 15.5 10Z"
  />
  <path
    d="M7.85188 12.9574H10.973C10.7748 14.2372 10.4827 15.2953 9.9377 16.0708C9.42182 16.8048 8.63643 17.3432 7.25126 17.483C6.83811 17.5247 6.5 17.8554 6.5 18.2707C6.5 18.6859 6.83772 19.0266 7.25165 18.9935C9.1693 18.8398 10.4706 18.0843 11.3123 16.8866C12.2029 15.6194 12.5136 13.9388 12.7132 12.2885C12.7669 11.8446 12.4203 11.4536 11.9731 11.4536H7.85188C7.43663 11.4536 7.1 11.7903 7.1 12.2055C7.1 12.6208 7.43663 12.9574 7.85188 12.9574Z"
  />
</svg>
