<svg viewBox="0 0 24 24" xmlns="http://www.w3.org/2000/svg">
  <path
    d="M10.32 2.025c-.882.081-1.854.305-2.593.598C4.694 3.824 2.589 6.477 2.094 9.72c-.097.634-.097 1.926 0 2.56.608 3.985 3.641 7.018 7.626 7.626.633.097 1.926.097 2.56.001 1.489-.227 2.964-.838 4.095-1.696l.236-.178 1.924 1.921c1.453 1.45 1.969 1.941 2.105 2.003.363.164.729.076 1.061-.256.332-.332.42-.698.256-1.061-.062-.136-.553-.652-2.003-2.105l-1.921-1.924.178-.236a9.023 9.023 0 0 0 1.485-3.095c.22-.845.281-1.339.281-2.28 0-.941-.061-1.435-.281-2.28-.902-3.471-3.812-6.083-7.376-6.619-.412-.062-1.644-.109-2-.076m1.82 2.069c1.101.203 2.082.609 2.938 1.217.484.345 1.266 1.127 1.611 1.611a7.282 7.282 0 0 1 1.089 2.358c.168.672.201.953.201 1.72s-.033 1.048-.201 1.72a6.997 6.997 0 0 1-5.058 5.058c-.672.168-.953.201-1.72.201-1.23 0-2.165-.226-3.24-.783a6.486 6.486 0 0 1-1.698-1.258c-1.081-1.081-1.708-2.311-1.988-3.898-.069-.395-.069-1.685 0-2.08.203-1.149.616-2.164 1.237-3.038.345-.484 1.127-1.266 1.611-1.611A7.274 7.274 0 0 1 9.28 4.222c.33-.083.54-.121 1.1-.199.247-.034 1.452.014 1.76.071"
    fill-rule="evenodd"
  />
</svg>
