<svg xmlns="http://www.w3.org/2000/svg" fill="none" viewBox="0 0 24 24">
  <path
    stroke="currentColor"
    stroke-linecap="round"
    stroke-linejoin="round"
    stroke-width="1.5"
    d="M10.511 5.17c.379-1.56 2.6-1.56 2.978 0a1.532 1.532 0 0 0 2.287.948c1.372-.835 2.942.734 2.107 2.107a1.531 1.531 0 0 0 .946 2.286c1.561.379 1.561 2.6 0 2.978a1.532 1.532 0 0 0-.947 2.287c.835 1.372-.734 2.942-2.107 2.107a1.531 1.531 0 0 0-2.286.946c-.379 1.561-2.6 1.561-2.978 0a1.532 1.532 0 0 0-2.287-.947c-1.372.835-2.942-.734-2.107-2.107a1.532 1.532 0 0 0-.946-2.286c-1.561-.379-1.561-2.6 0-2.978a1.532 1.532 0 0 0 .947-2.287c-.835-1.372.734-2.942 2.107-2.107.889.54 2.04.063 2.286-.946Z"
  />
  <path
    stroke="currentColor"
    stroke-linecap="round"
    stroke-linejoin="round"
    stroke-width="1.5"
    d="M9.333 12a2.667 2.667 0 1 0 5.334 0 2.667 2.667 0 0 0-5.334 0Z"
  />
</svg>
