<svg viewBox="0 0 24 24" xmlns="http://www.w3.org/2000/svg">
  <path
    d="M19.7539 11C19.9351 11 20.1102 11.0656 20.2468 11.1847C20.3834 11.3039 20.4723 11.4684 20.4969 11.648L20.5039 11.75V18.75C20.5042 19.5803 20.1867 20.3792 19.6166 20.9828C19.0464 21.5865 18.2669 21.949 17.4379 21.996L17.2539 22.001H6.25391C5.42377 22.001 4.62508 21.6834 4.02168 21.1133C3.41827 20.5432 3.0559 19.7638 3.00891 18.935L3.00391 18.751V11.75C3.00396 11.56 3.07615 11.377 3.20588 11.2382C3.33561 11.0993 3.5132 11.0149 3.70279 11.002C3.89237 10.989 4.0798 11.0485 4.22721 11.1684C4.37461 11.2883 4.47101 11.4597 4.49691 11.648L4.50391 11.75V18.75C4.50367 19.1893 4.66871 19.6127 4.96625 19.936C5.26378 20.2593 5.67203 20.4588 6.10991 20.495L6.25391 20.501H17.2539C17.6933 20.5009 18.1165 20.3356 18.4396 20.0379C18.7627 19.7402 18.962 19.3319 18.9979 18.894L19.0039 18.751V11.75C19.0039 11.5511 19.0829 11.3603 19.2236 11.2196C19.3642 11.079 19.555 11 19.7539 11ZM6.21891 7.21598L11.2159 2.21998C11.3429 2.09296 11.5112 2.01573 11.6904 2.00233C11.8695 1.98894 12.0474 2.04026 12.1919 2.14698L12.2759 2.21898L17.2809 7.21598C17.4154 7.34963 17.4944 7.52929 17.5018 7.71879C17.5091 7.90829 17.4445 8.09356 17.3208 8.2373C17.1971 8.38103 17.0235 8.47257 16.835 8.49348C16.6465 8.51438 16.4571 8.46311 16.3049 8.34998L16.2209 8.27698L12.4979 4.56098V16.255C12.4979 16.4361 12.4324 16.611 12.3135 16.7476C12.1946 16.8842 12.0303 16.9731 11.8509 16.998L11.7489 17.005C11.5677 17.005 11.3926 16.9393 11.256 16.8202C11.1194 16.7011 11.0306 16.5365 11.0059 16.357L10.9989 16.255L10.9979 4.55798L7.27991 8.27698C7.15286 8.40426 6.98431 8.48165 6.80497 8.49505C6.62564 8.50845 6.44746 8.45696 6.30291 8.34998L6.21891 8.27698C6.09178 8.1498 6.01457 7.98119 6.00135 7.80186C5.98814 7.62252 6.03979 7.44441 6.14691 7.29998L6.21891 7.21598Z"
  />
</svg>
