<svg xmlns="http://www.w3.org/2000/svg" viewBox="0 0 6 6">
  <path
    d="M3.04947 0.185063C3.05729 0.145219 3.11429 0.145219 3.12211 0.185063C3.35668 1.38037 4.29121 2.3149 5.48652 2.54947C5.52636 2.55729 5.52636 2.61429 5.48652 2.62211C4.29121 2.85668 3.35668 3.79121 3.12211 4.98652C3.11429 5.02636 3.05729 5.02636 3.04947 4.98652C2.8149 3.79121 1.88037 2.85668 0.685063 2.62211C0.645219 2.61429 0.645219 2.55729 0.685063 2.54947C1.88037 2.3149 2.8149 1.38037 3.04947 0.185063Z"
  />
  <path
    d="M3.04947 0.185063C3.05729 0.145219 3.11429 0.145219 3.12211 0.185063C3.35668 1.38037 4.29121 2.3149 5.48652 2.54947C5.52636 2.55729 5.52636 2.61429 5.48652 2.62211C4.29121 2.85668 3.35668 3.79121 3.12211 4.98652C3.11429 5.02636 3.05729 5.02636 3.04947 4.98652C2.8149 3.79121 1.88037 2.85668 0.685063 2.62211C0.645219 2.61429 0.645219 2.55729 0.685063 2.54947C1.88037 2.3149 2.8149 1.38037 3.04947 0.185063Z"
  />
</svg>
