<svg xmlns="http://www.w3.org/2000/svg" viewBox="0 0 3000.15 914.15">
  <defs>
    <clipPath id="a">
      <path
        fill="none"
        stroke-width="0"
        d="M981.68 433.81c.17 26.46-3.89 50.17-10.84 73.44-9.42 31.56-23.8 60.79-41.51 88.47-14.24 22.26-30.31 43.11-47.75 62.95-7.89 8.97-16 17.75-24.45 26.17a730.6 730.6 0 0 1-51.31 46.61 823.73 823.73 0 0 1-66.19 49.05 877.18 877.18 0 0 1-65.47 39.61 919.6 919.6 0 0 1-81.91 39.87c-34.98 14.88-70.69 27.72-107.45 37.55-19.14 5.12-38.43 9.55-58.05 12.39-7.59 1.1-15.23 2.1-22.92.86-9.78-1.58-13.23-5.77-13.92-15.81-.8-11.63.32-23.17 1.19-34.72.77-10.11 1.91-20.2 2.83-30.3 1.07-11.89 2.65-23.73 4.2-35.56 2.67-20.38 5.77-40.7 9.2-60.97.94-5.55 1.83-11.11 2.85-16.65.39-2.13-.13-2.67-2.36-2.39a726.53 726.53 0 0 1-46.84 4.43 572.16 572.16 0 0 1-62.67.27c-41.88-2.18-82.89-9.18-122.57-23.11-30.95-10.86-60.04-25.37-86.41-44.98-23.23-17.27-43.12-37.73-58.15-62.62a197.9 197.9 0 0 1-27-76.71 222.91 222.91 0 0 1-1.81-39.82 255.02 255.02 0 0 1 10.52-61.38c7.69-25.89 18.51-50.41 31.8-73.89 12.27-21.67 26.45-42.02 42-61.42 16.62-20.73 34.82-40.05 54.11-58.3a758.76 758.76 0 0 1 87.17-70.72 908.95 908.95 0 0 1 81.21-50.61A927.64 927.64 0 0 1 413.66 46c33.65-13.44 67.96-24.83 103.17-33.42 16.33-3.98 32.79-7.41 49.53-9.26 6.28-.7 12.56-.84 18.79.8 5.06 1.34 8.18 4.36 9.28 9.46.58 2.67.95 5.37.97 8.12.1 19.81-1.06 39.55-2.91 59.26-3.75 40.04-9.91 79.73-16.78 119.33-.56 3.22-.36 3.47 3.14 3.01 30.69-4.02 61.53-5.27 92.44-4.42 20.47.56 40.85 2.47 61.09 5.63 25.61 4 50.72 10.01 75.17 18.66 30.66 10.85 59.65 24.97 85.91 44.31 21.04 15.49 39.48 33.63 54.26 55.27a191.83 191.83 0 0 1 31.91 82.32c1.45 10.24 2.24 20.52 2.07 28.77Z"
      />
    </clipPath>
  </defs>
  <path
    fill="#202632"
    d="M1212.4 575.87V377.03h-103.76V271.9h103.76V146.2l127.08-33.83V271.9h157.7v105.13h-157.7v197.01c0 52.57 28.34 83.19 77.25 83.19 27.88 0 48-5.49 69.48-21.03l45.25 94.62c-33.37 26.06-78.17 38.4-126.16 38.4-123.88-.91-192.9-70.39-192.9-193.36Zm325-62.62c0-144.45 112.45-253.24 263.75-253.24S2064.9 368.8 2064.9 513.25s-112.45 253.24-263.75 253.24-263.75-107.88-263.75-253.24Zm263.76 140.79c77.71 0 135.3-59.88 135.3-139.88s-58.05-140.33-135.3-140.33-135.3 59.88-135.3 139.88 58.05 140.33 135.3 140.33Zm296.2-13.26 126.16-33.83c8.23 39.31 44.34 61.25 103.31 61.25 48 0 83.19-21.94 83.19-50.74 0-21.03-24.68-36.57-62.17-44.34l-94.16-20.11c-89.14-18.74-143.53-66.74-143.53-134.39 0-95.08 82.28-158.16 202.96-158.16 107.88 0 189.7 49.37 211.18 128.45l-118.85 32c-7.77-37.94-44.8-63.08-96.91-63.08-43.43 0-72.68 20.57-72.68 49.37 0 22.4 19.66 33.83 52.57 41.6l110.16 25.14c84.11 18.74 134.85 66.28 134.85 133.93 0 99.65-83.19 159.07-218.04 159.07-118.39 0-200.67-48-218.04-126.16Zm466.71 0 126.16-33.83c8.23 39.31 44.34 61.25 103.31 61.25 48 0 83.19-21.94 83.19-50.74 0-21.03-24.68-36.57-62.17-44.34l-94.16-19.66c-89.14-18.74-143.53-66.74-143.53-134.39 0-95.08 82.28-158.16 202.96-158.16 107.88 0 189.7 49.37 211.18 128.45l-118.85 32c-7.77-37.94-44.8-63.08-96.91-63.08-43.43 0-72.68 20.57-72.68 49.37 0 22.4 19.66 33.83 52.57 41.6l110.16 25.14c84.11 18.74 134.85 66.28 134.85 133.93 0 99.65-83.19 159.07-218.04 159.07-118.39-.46-200.21-48.45-218.04-126.62Z"
  />
  <g clip-path="url(#a)">
    <path fill="#0064ff" d="M0 1.41h981.7v911.34H0z" />
  </g>
</svg>
