<svg xmlns="http://www.w3.org/2000/svg" fill="none" viewBox="0 0 24 24">
  <path
    fill="#0C0A09"
    fill-rule="evenodd"
    d="M4.774 4c.428 0 .774.347.774.774v14.452a.774.774 0 1 1-1.548 0V4.774C4 4.347 4.347 4 4.774 4ZM19.226 4c.427 0 .774.347.774.774v14.452a.774.774 0 1 1-1.548 0V4.774c0-.427.346-.774.774-.774ZM17.438 11.602a.774.774 0 0 1 0 .796l-1.548 2.58a.774.774 0 1 1-1.328-.796l.86-1.433a.777.777 0 0 1-.196.025H8.852l.844 1.408a.774.774 0 1 1-1.327.797l-1.549-2.58a.774.774 0 0 1 0-.797L8.37 9.02a.774.774 0 0 1 1.327.797l-.844 1.408h6.374c.068 0 .134.008.196.025l-.86-1.433a.774.774 0 1 1 1.328-.797l1.548 2.58Z"
    clip-rule="evenodd"
  />
</svg>
