<svg viewBox="0 0 16 16" xmlns="http://www.w3.org/2000/svg">
  <path
    d="M14.0002 3.99962H10.6668V2.88628C10.6512 2.4595 10.467 2.05632 10.1545 1.76515C9.84212 1.47397 9.42699 1.31855 9.00016 1.33295H7.00016C6.57333 1.31855 6.1582 1.47397 5.84578 1.76515C5.53336 2.05632 5.34914 2.4595 5.3335 2.88628V3.99962H2.00016C1.82335 3.99962 1.65378 4.06985 1.52876 4.19488C1.40373 4.3199 1.3335 4.48947 1.3335 4.66628C1.3335 4.84309 1.40373 5.01266 1.52876 5.13769C1.65378 5.26271 1.82335 5.33295 2.00016 5.33295H2.66683V12.6663C2.66683 13.1967 2.87754 13.7054 3.25262 14.0805C3.62769 14.4556 4.1364 14.6663 4.66683 14.6663H11.3335C11.8639 14.6663 12.3726 14.4556 12.7477 14.0805C13.1228 13.7054 13.3335 13.1967 13.3335 12.6663V5.33295H14.0002C14.177 5.33295 14.3465 5.26271 14.4716 5.13769C14.5966 5.01266 14.6668 4.84309 14.6668 4.66628C14.6668 4.48947 14.5966 4.3199 14.4716 4.19488C14.3465 4.06985 14.177 3.99962 14.0002 3.99962ZM6.66683 2.88628C6.66683 2.77962 6.80683 2.66628 7.00016 2.66628H9.00016C9.1935 2.66628 9.3335 2.77962 9.3335 2.88628V3.99962H6.66683V2.88628ZM12.0002 12.6663C12.0002 12.8431 11.9299 13.0127 11.8049 13.1377C11.6799 13.2627 11.5103 13.3329 11.3335 13.3329H4.66683C4.49002 13.3329 4.32045 13.2627 4.19543 13.1377C4.0704 13.0127 4.00016 12.8431 4.00016 12.6663V5.33295H12.0002V12.6663Z"
    fill="currentColor"
  />
  <path
    d="M6.00016 11.333C6.17697 11.333 6.34654 11.2628 6.47157 11.1377C6.59659 11.0127 6.66683 10.8432 6.66683 10.6663V7.99967C6.66683 7.82286 6.59659 7.65329 6.47157 7.52827C6.34654 7.40325 6.17697 7.33301 6.00016 7.33301C5.82335 7.33301 5.65378 7.40325 5.52876 7.52827C5.40373 7.65329 5.3335 7.82286 5.3335 7.99967V10.6663C5.3335 10.8432 5.40373 11.0127 5.52876 11.1377C5.65378 11.2628 5.82335 11.333 6.00016 11.333Z"
    fill="currentColor"
  />
  <path
    d="M10.0002 11.333C10.177 11.333 10.3465 11.2628 10.4716 11.1377C10.5966 11.0127 10.6668 10.8432 10.6668 10.6663V7.99967C10.6668 7.82286 10.5966 7.65329 10.4716 7.52827C10.3465 7.40325 10.177 7.33301 10.0002 7.33301C9.82335 7.33301 9.65378 7.40325 9.52876 7.52827C9.40373 7.65329 9.3335 7.82286 9.3335 7.99967V10.6663C9.3335 10.8432 9.40373 11.0127 9.52876 11.1377C9.65378 11.2628 9.82335 11.333 10.0002 11.333Z"
    fill="currentColor"
  />
</svg>
