<svg xmlns="http://www.w3.org/2000/svg" viewBox="0 0 221.15 158.21">
  <path
    d="M3.25 68.54h7.16l.36 3.66c1.68-2.69 4.78-4.42 8.54-4.42 7.27 0 11.43 6.05 11.43 13.52s-4.42 13.67-11.43 13.67c-3.71 0-6.61-1.58-8.38-4.22v16.16H3.25V68.55Zm19.82 12.75c0-3.71-2.08-6.61-6.1-6.61-3.66 0-6.05 2.85-6.05 6.61s2.39 6.76 6.05 6.76c4.01 0 6.1-2.95 6.1-6.76Zm11.38.15c0-7.52 4.88-13.67 13.52-13.67S60.42 73 60.42 79.86c0 1.78-.36 3.25-.36 3.25H42.17c.46 3.46 2.49 5.69 6.25 5.69 4.57 0 5.49-2.34 5.49-2.34h6v3.4s-2.49 5.08-11.64 5.08-13.82-5.89-13.82-13.52Zm18.59-2.94c0-2.44-1.68-4.62-5.13-4.62s-4.98 1.93-5.59 4.62h10.72Zm12.45-9.96h7.16l.36 3.4a8.7 8.7 0 0 1 7.67-4.17c6.81 0 9.2 4.88 9.2 10.47V94.2h-7.62V79.67c0-3-1.17-5.03-4.22-5.03-3.71 0-4.88 2.64-4.88 5.13V94.2h-7.67V68.54Zm28.96 22.2 8.03-9.6-7.88-9.04v-3.56h7.01l5.79 7.42 5.74-7.42h6.4v3.4l-7.93 9.3 8.08 9.4v3.56h-7.01l-6-7.67-5.84 7.67h-6.4v-3.46Zm30.07-34.65h7.67V94.2h-7.67V56.09Zm12.75 25.35c0-7.52 4.88-13.67 13.52-13.67s12.45 5.23 12.45 12.09c0 1.78-.36 3.25-.36 3.25h-17.89c.46 3.46 2.49 5.69 6.25 5.69 4.57 0 5.49-2.34 5.49-2.34h6v3.4s-2.49 5.08-11.64 5.08-13.82-5.89-13.82-13.52Zm18.6-2.94c0-2.44-1.68-4.62-5.13-4.62s-4.98 1.93-5.59 4.62h10.72ZM1.83 132.25c0-7.52 4.98-13.72 13.41-13.72s10.52 6 10.52 6v3.4h-5.74s-.76-2.74-4.78-2.74-5.74 3.2-5.74 7.06 1.83 6.86 5.74 6.86c4.22 0 4.83-2.74 4.83-2.74h5.74v3.4s-1.98 6-10.57 6-13.41-6.1-13.41-13.52Zm27.69-.16c0-7.47 5.03-13.52 13.57-13.52s13.57 6.05 13.57 13.52-5.08 13.67-13.57 13.67-13.57-6.15-13.57-13.67Zm19.46 0c0-3.76-1.88-6.86-5.89-6.86s-5.89 3.1-5.89 6.86 1.88 7.01 5.89 7.01 5.89-3.15 5.89-7.01Zm12.75-12.75h7.11l.36 3.25a7.63 7.63 0 0 1 6.76-4.01c3.76 0 6.1 1.88 7.16 4.42a8.56 8.56 0 0 1 7.62-4.42c6.4 0 8.84 4.73 8.84 10.47v15.96h-7.62v-14.99c0-2.74-.97-4.57-3.66-4.57-2.9 0-3.96 2.34-3.96 4.47v15.09h-7.37v-15.19c0-2.64-1.07-4.37-3.66-4.37-2.95 0-3.96 2.49-3.96 4.88v14.68h-7.62v-25.66Zm44.1 0h7.16l.36 3.66c1.68-2.69 4.78-4.42 8.54-4.42 7.27 0 11.43 6.05 11.43 13.52s-4.42 13.67-11.43 13.67c-3.71 0-6.61-1.58-8.38-4.22v16.16h-7.67v-38.36Zm19.81 12.75c0-3.71-2.08-6.61-6.1-6.61-3.66 0-6.05 2.85-6.05 6.61s2.39 6.76 6.05 6.76c4.01 0 6.1-2.95 6.1-6.76Zm11.12 5.7c0-4.88 3.56-7.98 11.03-7.98 2.64 0 4.78.51 4.78.51v-1.12c0-2.79-1.32-4.27-4.22-4.27-3.3 0-4.37 2.34-4.37 2.34h-5.79v-3.4s2.18-5.28 10.31-5.28 11.74 3.71 11.74 10.87v15.55h-6.91l-.51-3.25c-1.27 2.08-3.56 4.01-7.62 4.01-5.64 0-8.43-3.61-8.43-7.98Zm15.81-2.09v-1.12s-1.78-.41-4.27-.41c-3 0-3.96 1.27-3.96 2.9 0 1.98 1.27 2.79 3.35 2.79 3.3 0 4.88-2.34 4.88-4.17Zm13.86-16.36h7.16l.36 3.4a8.7 8.7 0 0 1 7.67-4.17c6.81 0 9.2 4.88 9.2 10.47V145h-7.62v-14.53c0-3-1.17-5.03-4.22-5.03-3.71 0-4.88 2.64-4.88 5.13V145h-7.67v-25.66Zm30.94 38.36v-3.56l6.4-11.48-9.25-19.77v-3.56h6.91l6.55 15.04 6.81-15.04h6.35v3.4l-17.28 34.96h-6.5Z"
    fill="currentColor"
  />
  <rect width="49.61" height="49.61" rx="7.94" ry="7.94" fill="currentColor" />
  <path
    fill="#fff"
    d="M15.43 8.09c4.81 10.57.87 20.98-.21 23.81-.18.48-.28.75-.24.75a32.96 32.96 0 0 1 19.8 9.63l-3.3-5.72-4.23-7.07a2.31 2.31 0 1 1 1.37-3.38c.5.87.37 1.94-.24 2.66l7.39 12.8c-2.92-9.81 1.32-21.21 1.32-21.21-12.88-1.4-21.64-12.25-21.64-12.25Z"
  />
</svg>
