<svg viewBox="0 0 12 12" xmlns="http://www.w3.org/2000/svg" fill="currentColor">
  <path
    d="M2 0C0.895431 0 0 0.895431 0 2V10C0 11.1046 0.895431 12 2 12H10C11.1046 12 12 11.1046 12 10V2C12 0.895431 11.1046 0 10 0H2ZM3.68811 7.76833C3.9478 7.08242 4.90248 4.56084 3.73813 2C3.73813 2 5.86116 4.6302 8.98178 4.96935C8.98178 4.96935 7.95368 7.73228 8.6618 10.1094L6.87122 7.00801C7.02124 6.83258 7.05249 6.57486 6.93051 6.36357C6.77577 6.09556 6.43307 6.00374 6.16506 6.15847C5.89705 6.31321 5.80523 6.65591 5.95996 6.92392C6.0914 7.15158 6.35848 7.25211 6.60019 7.18237L7.62597 8.89638L8.42661 10.2831C7.66102 9.4998 6.06865 8.22877 3.62995 7.95019C3.61959 7.94932 3.64368 7.8857 3.68811 7.76833Z"
  />
</svg>
