<svg viewBox="0 0 110 22" fill="none" xmlns="http://www.w3.org/2000/svg">
  <path
    d="M0.397217 21.5V0.5H7.36364C12.4801 0.5 15.7176 3.188 15.7176 7.416C15.7176 11.112 12.9136 14.64 7.36364 14.64H5.19566V21.5H0.397217ZM5.10894 10.776H7.33473C9.56051 10.776 10.9191 9.432 10.9191 7.444C10.9191 5.68 9.61833 4.364 7.33473 4.364H5.10894V10.776Z"
    fill="#F1F1F0"
  />
  <path
    d="M18.9718 21.5V0.5H32.5866V4.448H23.7702V8.9H31.5749V12.54H23.7702V17.552H32.5866V21.5H18.9718Z"
    fill="#F1F1F0"
  />
  <path
    d="M36.3889 21.5V0.5H40.8983L50.1194 13.856V0.5H54.6288V21.5H50.1194L40.8983 8.368V21.5H36.3889Z"
    fill="#F1F1F0"
  />
  <path
    d="M57.7773 21.5V19.4L64.1367 10.86L58.0953 2.684V0.5H62.3156L67.3164 7.5L71.9993 0.5H75.786V2.6L69.8602 10.72L76.1907 19.316V21.5H71.9703L66.7383 14.108L61.5641 21.5H57.7773Z"
    fill="#F1F1F0"
  />
  <path d="M79.325 21.5V0.5H84.1234V17.552H92.7953V21.5H79.325Z" fill="#F1F1F0" />
  <path
    d="M95.7824 21.5V0.5H109.397V4.448H100.581V8.9H108.385V12.54H100.581V17.552H109.397V21.5H95.7824Z"
    fill="#F1F1F0"
  />
</svg>
