<svg xmlns="http://www.w3.org/2000/svg" viewBox="0 0 357 71" fill="currentColor">
  <path
    d="M0 71V0h22.82c16.75 0 27.36 9.09 27.36 23.38 0 12.5-9.19 24.43-27.36 24.43h-7.1V71H0Zm15.43-36.26h7.3c7.28 0 11.73-4.54 11.73-11.26 0-5.97-4.26-10.42-11.74-10.42h-7.29v21.68ZM60.84 71V0h44.59v13.35H76.55V28.4h25.56v12.3H76.55v16.95h28.88V71h-44.6Zm57.04 0V0h14.77l30.2 45.16V0h14.77v71h-14.77l-30.2-44.4V71h-14.77Zm70.05 0v-7.1l20.83-28.87-19.78-27.65V0h13.82l16.38 23.67L234.5 0h12.4v7.1l-19.4 27.45 20.73 29.07V71h-13.82l-17.14-25-16.94 25h-12.4Zm70.57 0V0h15.72v57.65h28.4V71h-44.11Zm53.9 0V0H357v13.35h-28.88V28.4h25.57v12.3h-25.57v16.95H357V71h-44.6Z"
  />
</svg>
