<svg xmlns="http://www.w3.org/2000/svg" fill="none" viewBox="0 0 297 27">
  <path
    fill="#292524"
    d="M4.13.76c.3-.13.53-.13.7 0 .07.04.27.33.61.86a4.62 4.62 0 0 1 .64 1.22 25.32 25.32 0 0 1 .64 1.95 5.4 5.4 0 0 1 .26.7c.1.28.19.43.25.45.09.03.36-.02.83-.12.52-.11.94-.12 1.28-.04.37.09.55.27.55.55 0 .23-.15.42-.45.57a11 11 0 0 1-1.8.58c-.25.06-.43.12-.54.16-.44.17-.8.26-1.05.26-.2 0-.32.02-.39.06-.17.17-1.16.3-2.97.42-.83.06-1.36.05-1.57-.04-.21-.08-.32-.3-.32-.67 0-.36.1-.58.32-.67.23-.1.86-.2 1.89-.26l.57-.06c1-.06 1.56-.15 1.67-.26.13-.12.05-.5-.23-1.12a6.94 6.94 0 0 0-.16-.35 11 11 0 0 0-1.12-2.14c-.38-.4-.54-.8-.48-1.15.09-.39.38-.69.87-.9Zm9.34 2.53c.39-.2.73-.16 1.03.1.3.23.45.61.48 1.15 0 .2.03.58.1 1.12.08.42.12 1.08.12 1.98 0 .85.03 1.32.1 1.4.06.07.63.1 1.7.07a7 7 0 0 1 1.88.13c.43.17.67.42.74.74.08.32-.03.58-.32.8-.28.19-.65.23-1.12.12-.26-.06-.7-.08-1.32-.06-.61 0-.99.04-1.12.13-.27.15-.3 1.06-.06 2.75.09.51.1.87.06 1.09a.9.9 0 0 1-.35.51c-.23.17-.52.2-.86.1a1.05 1.05 0 0 1-.7-.61c-.13-.32-.26-1-.39-2.05-.1-1.05-.17-2.08-.2-3.1 0-1.35-.09-2.82-.28-4.42a5.6 5.6 0 0 1-.06-1.38c.06-.2.25-.4.57-.57ZM5.86 9.2c.17-.2.3-.29.38-.29.1 0 .53.04 1.28.13.51.06.9.24 1.15.54.28.28.59.84.93 1.7.26.66.35 1.2.29 1.63-.04.43-.29.95-.74 1.57a11.35 11.35 0 0 1-1.63 1.66c-.04 0-.12.04-.22.13-.13.1-.52.13-1.16.06a3 3 0 0 1-1.28-.32 3.83 3.83 0 0 1-.73-.64 2.34 2.34 0 0 1-.48-.64c-.09-.2-.2-.49-.32-.83-.39-.94-.2-1.79.57-2.56.32-.3.53-.51.61-.64l.61-.7.74-.8Zm1.21 1.47c-.21-.13-.35-.18-.41-.16-.05 0-.16.1-.36.29a3.34 3.34 0 0 0-.96 2.08c-.12.9.01 1.43.42 1.6.51.23.98.08 1.4-.45.43-.55.64-1.16.62-1.82 0-.67-.24-1.18-.7-1.54Zm7.49 6.05a6.47 6.47 0 0 1 2.02.03c.4.1.69.35.86.74.13.27.2.8.22 1.56.03.77-.02 1.5-.12 2.18-.07.64-.1 1.07-.1 1.28.02.2.1.34.22.45.15.13.2.3.16.54-.04.26-.16.47-.35.64-.17.17-.34.28-.51.32-.15.07-.45.13-.9.2-.85.1-1.77.3-2.75.57-.4.1-.72.16-.96.16-.19 0-.45.09-.77.26-.7.4-1.29.45-1.76.16-.47-.28-.75-.87-.86-1.76-.06-.5-.15-.94-.26-1.35-.1-.42-.16-1.24-.16-2.43 0-1.13.06-1.8.16-2.02.13-.2.48-.32 1.06-.32.5 0 .9-.08 1.22-.25.34-.15.61-.24.83-.26.21-.04.34-.08.38-.13.02-.04.1-.06.26-.06a3 3 0 0 0 .83-.22 7.3 7.3 0 0 1 1.28-.3Zm.86 1.95c-.08-.06-.27-.1-.57-.1-.3-.02-.52 0-.67.07-.11.04-.32.1-.64.16a13.94 13.94 0 0 0-2.63.83c-.23.02-.37.23-.41.64-.05.38 0 1.07.16 2.05.06.55.15.92.25 1.09.13.17.33.23.61.19a18.7 18.7 0 0 0 2.94-.55c.45-.12.73-.26.84-.41.12-.15.2-.47.25-.96.1-1 .15-1.7.13-2.11-.02-.43-.1-.73-.26-.9ZM42.45 5.11c.39-.19.7-.16.93.1.24.25.35.68.35 1.28a44.26 44.26 0 0 1 .38 6.05c.03 1.79.15 3.52.36 5.18.15 1.26.18 2.13.1 2.62-.09.5-.32.84-.7 1.03-.18.08-.32.14-.42.16a.62.62 0 0 1-.32-.1c-.09-.08-.16-.2-.23-.35a3.98 3.98 0 0 1-.2-.64l-.12-1a67.6 67.6 0 0 0-.25-3c-.07-.23-.1-.82-.1-1.76 0-.85-.03-1.7-.1-2.53a62.8 62.8 0 0 1-.1-2.5 46.6 46.6 0 0 0-.12-2.1 6.01 6.01 0 0 1-.06-1.7.97.97 0 0 1 .6-.74ZM37.3 7c.2-.2.43-.29.7-.29a1 1 0 0 1 .7.26c.4.4.6 1.4.65 3 .04 1.26.17 2.97.38 5.13.13 1.36.17 2.28.13 2.75-.04.45-.18.74-.41.9-.69.4-1.15 0-1.38-1.19-.1-.53-.2-1.27-.26-2.2-.1-1.74-.3-2.6-.57-2.6a.25.25 0 0 0-.1.03.8.8 0 0 1-.35.1c-.13 0-.21.03-.26.1-.08.04-.3.07-.67.09-.66.06-1.21.18-1.66.35l-.64.16c-.22.04-.34.1-.39.16-.12.17-.2 1.26-.22 3.27 0 .7-.08 1.18-.22 1.44-.13.23-.39.35-.77.35-.47 0-.77-.35-.9-1.06-.1-.7-.07-2.06.1-4.06.06-.73.1-1.6.1-2.63 0-1.04-.05-1.63-.13-1.76-.09-.17-.35-.17-.77 0-.13.07-.46.15-1 .26-.25.06-.42.12-.5.16-.1.04-.16.13-.2.26l-.1.5c-.06.2-.07.45-.03.74.02.24 0 .7-.06 1.38a114.36 114.36 0 0 0-.32 3.71 9.1 9.1 0 0 1-.32 2.21c-.13.3-.42.45-.86.45-.45 0-.74-.15-.87-.45a5.4 5.4 0 0 1-.03-1.86 96.3 96.3 0 0 0 .26-3.23l.1-1.44a14.29 14.29 0 0 0 .06-2.53c-.03-.36-.15-.55-.39-.57-.21-.04-1 0-2.33.16l-.84.1c-.5.06-.86.08-1.05.06a.75.75 0 0 1-.45-.23c-.21-.19-.26-.41-.13-.67.15-.28.4-.47.77-.57l.54-.16c.2-.09.68-.17 1.44-.26.47-.04.89-.1 1.25-.16a4.03 4.03 0 0 1 1.83.03c.6.15.97.38 1.12.67.17.4.37.5.6.3.07-.05.3-.13.7-.23.43-.09.83-.22 1.2-.39.84-.42 1.48-.4 1.91.07.43.47.64 1.38.64 2.75 0 .87.07 1.32.2 1.34a27.53 27.53 0 0 1 2.85-.54c.2-.02.32-.05.34-.1.05-.06.13-.1.26-.1.17 0 .27-.09.29-.28.04-.2.04-.67 0-1.44-.07-.87-.1-1.44-.13-1.7-.04-.19.02-.37.2-.54Zm28.83-2.78a3 3 0 0 1 .9 0c.45.02.76.06.93.12.4.17.64.52.7 1.03.07.51.1 2.17.1 4.99.02 3.11-.03 4.98-.16 5.6-.1.62-.46.93-1.06.93h-.13c-.27.02-.44-.12-.5-.42-.05-.32-.06-1.42-.04-3.3v-.73c0-2.75-.03-4.26-.1-4.51-.06-.24-.1-.57-.1-1 0-.46-.06-.73-.18-.8a5.85 5.85 0 0 0-1.44-.09c-.92.02-1.52.1-1.8.22-.27.11-.73.19-1.37.23-.64.04-1.2.1-1.7.16-.43.04-.71.05-.86.03a1.17 1.17 0 0 1-.45-.35c-.64-.66-.2-1.1 1.31-1.31a24.25 24.25 0 0 0 1.7-.2c.19-.08.64-.17 1.34-.25l1.09-.16c.3-.07.64-.1 1.02-.1.39-.02.65-.05.8-.1Zm4.77 14.72c.04-.05.4-.06 1.06-.04.68.03 1.07.06 1.18.1.13.06.24.2.32.38.09.17.12.33.1.48-.09.3-.27.5-.55.61a9.7 9.7 0 0 1-1.82.23c-1.32.1-2.1.23-2.3.38-.05.02-.46.07-1.25.16-.77.06-1.18.1-1.22.13-.2.13-.8.25-1.85.38l-2.88.32c-.99.09-1.68.2-2.08.32-.2.07-.54.1-1.03.1s-.8-.03-.93-.1c-.21-.1-.35-.32-.41-.64-.05-.34 0-.6.16-.8.15-.15.63-.28 1.44-.38.83-.13 2.37-.27 4.6-.42.8-.06 1.32-.13 1.57-.19a19.13 19.13 0 0 1 1.95-.32c.43-.04.84-.1 1.22-.2.56-.14 1.25-.27 2.08-.38.4-.04.62-.08.64-.12ZM89.7 4.3c.11-.06.27-.07.48-.03.24.04.4.1.52.2.34.23.5.7.5 1.4 0 .51.15 2.66.42 6.43.15 2.07.38 4.08.68 6.02.32 2.09.24 3.33-.23 3.71-.51.4-.92.47-1.21.2-.3-.3-.47-.91-.52-1.83a44.77 44.77 0 0 0-.32-3.75 56.8 56.8 0 0 1-.38-4.73c-.17-3.14-.38-5.19-.64-6.15-.2-.68.04-1.17.7-1.47Zm-8.1.64c.07-.06.24-.05.52.03.3.07.53.15.7.26.32.23.52.83.58 1.8.09.95 0 1.91-.26 2.87-.06.34-.12.78-.19 1.31-.04.7-.18 1.19-.41 1.44-.24.26-.68.4-1.32.45a7.5 7.5 0 0 0-1.72.23c-.3.1-.45.27-.45.5 0 .54.08 1.2.25 1.96.2.77.38 1.24.55 1.4.08.14.34.2.77.2.42-.02.8-.1 1.15-.26a9 9 0 0 1 .86-.28c.77-.24 1.63-.62 2.6-1.16.19-.1.32-.17.41-.19.02-.02.17-.08.45-.19.49-.2.79-.1.9.26.12.38-.06.72-.55 1.02a.37.37 0 0 0-.1.06c-.17.07-.38.2-.64.39-.6.4-.99.6-1.18.6-.21 0-.84.26-1.89.77a10.05 10.05 0 0 1-2.14.84c-.17.04-.52.06-1.06.06-.64 0-1.08-.16-1.31-.48-.23-.32-.5-1.1-.77-2.37a13.37 13.37 0 0 1-.38-2.33c0-.26-.03-.54-.1-.84-.08-.42.02-.73.32-.92.32-.22.83-.32 1.54-.32.32 0 .5-.03.54-.07.02-.06.1-.1.26-.1.17 0 .28-.02.32-.06.02-.02.24-.1.67-.25.36-.13.58-.24.64-.32.09-.11.16-.42.22-.93.2-1.26.27-2.19.23-2.79l-.1-.8-1.15.04a8.06 8.06 0 0 0-1.92.25c-.38.02-.75.07-1.09.13-.85.1-1.34.16-1.47.16-.13-.02-.28-.12-.45-.29a1 1 0 0 1-.29-.77c.05-.3.19-.44.42-.44.1 0 .17-.04.2-.1.03-.04.12-.06.25-.06s.2-.03.22-.07c.04-.06.33-.1.87-.13.55-.04 1.03-.1 1.44-.19.42-.08 1.03-.15 1.82-.19.79-.04 1.2-.09 1.25-.13Zm15.9-3.42c.45-.1.77-.02.96.25.22.28.34.8.39 1.54.04.73.07 1.23.1 1.5l.22 1.83.19 1.73c.04.44.2.73.45.86s.67.1 1.25-.06c.08-.05.4-.14.95-.3a8.25 8.25 0 0 0 1.6-.54c1.45-.68 2.18-.57 2.18.32 0 .26-.06.47-.2.64-.1.13-.22.23-.34.3a48.11 48.11 0 0 1-1.73.63.47.47 0 0 1-.29.1c-.13 0-.2.02-.22.06-.05.07-.14.1-.3.1-.12 0-.27.02-.44.06-.28.09-.9.22-1.89.39l-1.09.19a1.3 1.3 0 0 1-.99-.16c-.34-.2-.5-.4-.5-.64a4.89 4.89 0 0 1-.29-1.15 16.76 16.76 0 0 1-.45-3.07 34.3 34.3 0 0 1-.1-4.2c.06-.17.24-.3.54-.38Zm10.34 11.2c.47-.2.85-.08 1.15.35.28.38.23.7-.16.93a.4.4 0 0 1-.1.06c-.08.02-.2.08-.35.16-.08.04-.78.18-2.08.42-.3.06-.55.13-.77.19-.19.04-.41.06-.67.06-.25 0-.44.03-.54.07-.7.36-1.36.6-1.95.7-.24.02-.53.08-.87.16l-.96.16c-.13 0-.6.07-1.44.2-1.32.19-2.2.26-2.62.22a1.03 1.03 0 0 1-.9-.64c-.21-.51.1-.86.93-1.03.43-.08.7-.15.8-.19l.54-.1c1.2-.19 1.97-.31 2.3-.38.2-.06.55-.12 1.06-.16.52-.06.87-.12 1.06-.16.58-.15 1.33-.3 2.27-.48.92-.15 1.55-.28 1.9-.38.12-.04.36-.07.73-.07.34 0 .56-.03.67-.1Zm-7.1 4.1c.2-.1.46-.11.76-.07.3.02.52.1.64.22.13.13.2.25.23.36.02.1.02.42 0 .96-.03.8 0 1.68.1 2.62.08.94.19 1.53.31 1.76.05.1.09.17.13.2h.32c.94-.18 1.54-.3 1.8-.4l.7-.25a17 17 0 0 0 .99-.35c.21-.09.46-.16.73-.22a21.68 21.68 0 0 1 2.72-.64c.47-.11.85-.07 1.13.12.27.17.36.43.25.77-.04.15-.16.31-.35.48-.17.17-.32.26-.45.26a.56.56 0 0 0-.25.06c-.35.17-.67.26-.97.26a27.07 27.07 0 0 0-3.61.96 40.87 40.87 0 0 0-2.37.8l-.73.22c-.7.28-1.26.27-1.67-.03-.4-.3-.6-.83-.6-1.6a5 5 0 0 0-.07-.86c-.06-.28-.14-1.06-.23-2.34a23.18 23.18 0 0 1-.1-2.2c.05-.24.13-.47.23-.68.13-.21.25-.35.36-.42Zm33.84-14.28c.34-.3.71-.32 1.12-.06.27.15.45.41.5.8.07.38.14 1.4.2 3.04a21.4 21.4 0 0 0 .2 2.75c.01.13.08.2.19.22.12 0 .5 0 1.15-.03 1.09-.04 1.86 0 2.33.1.5.08.75.26.77.54.04.3-.06.51-.32.64-.25.13-.76.2-1.5.23-1.58.04-2.41.22-2.5.54-.02.13 0 .78.06 1.95a8.96 8.96 0 0 1-.03 2.21c-.06.26-.32.38-.76.38-.41 0-.67-.1-.77-.28-.11-.2-.23-.7-.35-1.54-.2-1.37-.31-2.65-.36-3.84a221.05 221.05 0 0 0-.16-4.51l-.06-2.53c.02-.28.1-.46.22-.54l.07-.07Zm-11.17.51c.36-.19.65-.13.86.16.09.09.14.22.16.39.04.15.14.8.3 1.95.16 1.24.28 1.97.34 2.2.05.2.09.49.13.87.02.28.04.44.06.48a6.87 6.87 0 0 0 .58-.03l.42-.1a3 3 0 0 0 .86-.22c.32-.13.79-.25 1.4-.35l.68-.16c.09-.04.14-.14.16-.29a5.4 5.4 0 0 0-.06-1.31 8.87 8.87 0 0 0-.26-1.57c-.2-.73-.25-1.22-.16-1.47.09-.28.34-.4.77-.39.36 0 .63.11.8.32.2.22.36.6.51 1.16.13.49.2.91.22 1.28.05.36.05.99 0 1.88a96.33 96.33 0 0 0-.06 3.4c0 .76-.01 1.22-.03 1.37a.9.9 0 0 1-.22.45c-.37.51-1.1.84-2.21 1a4.1 4.1 0 0 0-1.92.66 3 3 0 0 1-1.16.3c-.55.03-.9 0-1.05-.1-.36-.22-.62-.89-.77-2.02-.06-.55-.13-1-.2-1.34a8.16 8.16 0 0 1-.15-1.25 57.5 57.5 0 0 0-.26-2.27c-.28-2.07-.4-3.37-.38-3.9.02-.56.23-.93.64-1.1Zm5.76 7.36c-.02-.12-.14-.18-.35-.16a6.8 6.8 0 0 0-2.15.36c-.19.08-.41.16-.67.22-.51.09-.7.32-.54.7a4 4 0 0 1 .19.74c.08.5.22.77.41.83.2.07.69 0 1.48-.22a5.2 5.2 0 0 0 1.56-.83c.07-.09.11-.32.13-.7.02-.41 0-.72-.06-.94Zm1.47 6.79c.21-.09.48-.04.8.13.24.1.37.65.42 1.63.02.7.06 1.18.13 1.44l.16 1.02c.06.51.16.86.28 1.03.15.15.35.16.61.03.13-.07.27-.1.42-.1.1 0 .35-.05.73-.16.4-.13.72-.23.93-.32.56-.25 1.67-.56 3.36-.93a6.53 6.53 0 0 1 1.99-.03c.12.07.2.24.25.51.02.28-.1.5-.35.68-.26.17-.8.37-1.63.6l-.58.16a6.14 6.14 0 0 0-1.66.42c-1.26.43-2.25.73-2.98.9-.7.19-1.3.26-1.8.22-.48-.02-.82-.16-1.01-.42a3 3 0 0 1-.39-1.21l-.22-1.03c-.09-.4-.14-1.12-.16-2.14 0-1.02.05-1.62.16-1.8.19-.33.37-.55.54-.63Zm28.13-15.3c.22-.08.43-.1.64-.06.22.04.39.14.51.29.15.19.3 1.7.45 4.5.04.84.09 1.32.13 1.45.06.13.25.15.54.06a6.32 6.32 0 0 1 2.4-.06c.94.1 1.48.3 1.6.6.17.35.07.6-.32.77-.38.17-1.1.3-2.17.36-.09 0-.22 0-.39.03-.83.02-1.32.08-1.47.19-.13.09-.16.37-.1.86a18.03 18.03 0 0 1 .16 2.43c0 .33-.07.55-.22.68-.38.32-.72.4-1.02.25-.28-.15-.46-.5-.55-1.08-.06-.43-.12-.78-.19-1.06-.04-.26-.06-.5-.06-.7 0-.24-.03-.42-.1-.55-.08-.25-.19-1.67-.32-4.25l-.16-2.72c-.04-.7-.03-1.17.03-1.38.09-.23.3-.44.61-.6Zm-10.69 1.31c.2-.08.33-.12.42-.12.1-.03.27 0 .48.06.36.1.59.23.67.38.1.13.18.46.23 1l.1.92.28-.28c.23-.22.53-.39.9-.52l.41-.16c.51-.2 1.1-.33 1.76-.35.66-.02 1.11.07 1.35.26.36.32.54.62.54.9 0 .25-.16.76-.48 1.53-.24.55-.42 1.1-.54 1.63-.13.51-.16.81-.1.9.04.1.28.28.7.51.45.21.85.38 1.19.51.53.2.88.44 1.05.74.2.28.19.52-.03.73-.21.22-.58.32-1.12.32-.53 0-1.21-.2-2.05-.64-.25-.15-.43-.2-.54-.19-.1.02-.18.12-.22.29-.09.4-.34.84-.74 1.31-.38.47-.7.7-.96.7a.52.52 0 0 1-.48-.28 1 1 0 0 1 0-.7c.04-.1.04-.14 0-.17-.02-.02-.12-.03-.29-.03-.47 0-1-.38-1.6-1.15-.55-.66-.9-1-1.05-1-.05 0-.13.16-.26.46l-.45 1.08a8.31 8.31 0 0 0-.57 1.22c-.18.36-.32.6-.45.7-.13.11-.3.13-.51.07-.32-.07-.53-.28-.61-.64a1.7 1.7 0 0 1 .16-1.15 23.44 23.44 0 0 1 .7-1.54 21.99 21.99 0 0 0 1.41-3c.04-.24.17-.53.38-.87.67-1 .45-1.5-.64-1.5-.49 0-1.22.11-2.2.35-1 .23-1.63.28-1.86.16-.28-.15-.42-.35-.42-.58 0-.26.14-.48.42-.67.23-.17.71-.32 1.44-.45.66-.1 1.04-.18 1.15-.22a4.68 4.68 0 0 1 1.54-.36c.38 0 .68-.05.9-.16Zm5.06 2.47c-.04-.04-.21-.04-.51 0-.28.02-.5.06-.64.13-.69.27-1.23.41-1.63.41-.2 0-.31.02-.36.07a14.36 14.36 0 0 1-.51 1.25c-.28.57-.33 1.07-.16 1.5.2.4.66.88 1.41 1.44.28.19.46.28.54.25.09-.02.16-.16.23-.41a31.71 31.71 0 0 1 .7-2.02c.2-.6.38-1.05.55-1.37.34-.75.47-1.17.38-1.25Zm5.54 10.14c1.3-.15 2.1.09 2.43.7.15.33.22 1.49.22 3.5.02 1.98-.05 3.25-.22 3.8-.1.39-.32.66-.64.83-.32.17-.6.17-.83 0a.87.87 0 0 1-.39-.57c-.04-.22-.02-.6.07-1.15.12-.88.16-1.9.1-3.04-.05-1.18-.16-1.88-.33-2.12-.08-.08-.35-.13-.8-.16-.42-.02-.77.01-1.02.1a75.87 75.87 0 0 1-2.43.6 1.8 1.8 0 0 1-.42.07.57.57 0 0 0-.29.1c-.3.15-.75.23-1.34.25-.58.03-.93-.04-1.06-.19-.23-.3-.26-.58-.1-.86.18-.3.46-.45.87-.45.23 0 .7-.12 1.38-.35.34-.13.9-.27 1.7-.42.57-.08 1.16-.21 1.78-.38.45-.13.89-.22 1.32-.26Zm20.31-13.98c.47-.24.85-.2 1.12.1.28.3.45.84.52 1.63.19 3.22.3 6.36.32 9.44a3.4 3.4 0 0 1-.2 1.53c-.12.28-.37.4-.73.35a.71.71 0 0 1-.39-.16c-.12-.12-.19-.22-.19-.28 0-.05-.06-.19-.19-.42-.1-.23-.16-.45-.16-.64a51.72 51.72 0 0 1-.42-7.14c0-.8-.02-1.33-.06-1.56a8 8 0 0 1-.06-2.44c.04-.15.19-.28.44-.41Zm-8.96 1.92c.3-.13.59-.14.87-.03.1.04.4.12.86.25.66.17 1.15.4 1.47.7.32.28.63.76.93 1.45a7.14 7.14 0 0 1 .51 2.84c-.04.22-.22.63-.54 1.25-.3.62-.52 1.04-.67 1.25-.24.3-.59.64-1.06 1.02-.45.39-.76.58-.93.58a.34.34 0 0 0-.19.06c-.06.09-.41.13-1.05.13a4.53 4.53 0 0 1-1.19-.13 4.36 4.36 0 0 1-1.63-1.76 5.83 5.83 0 0 1-.58-3.74c.07-.09.1-.16.1-.22 0-.32.4-.96 1.22-1.92a7.08 7.08 0 0 1 1.88-1.73Zm1.48 1.79c-.32-.26-.6-.34-.8-.26-.2.07-.43.35-.7.84l-.42.64a3.6 3.6 0 0 0-.87 2.52c.07.75.32 1.38.77 1.9.45.5.88.66 1.31.47.13-.06.32-.15.58-.25.17-.09.29-.16.35-.23.06-.06.14-.2.22-.41.15-.3.3-.55.42-.74.45-.6.58-1.37.38-2.3a3.3 3.3 0 0 0-1.24-2.18Zm7.13 10.08c.09-.15.51-.16 1.28-.03.77.1 1.24.25 1.41.45.23.23.36.84.38 1.82.05.96-.03 1.92-.22 2.88-.09.51-.13.82-.13.93.02.08.1.16.23.22.53.22.74.51.64.9-.09.38-.44.66-1.06.83a9.1 9.1 0 0 1-.58.16c-.19.06-.41.1-.67.1-.25 0-.53.06-.83.19-.28.1-.66.18-1.15.22-.58.07-.93.1-1.06.13-.23.04-.55.15-.96.32-1.68.75-2.65.23-2.91-1.54-.04-.3-.1-.58-.16-.86a4.53 4.53 0 0 1-.03-1c.02-.46 0-.96-.07-1.5a6.86 6.86 0 0 1-.16-2.4c.13-.34.5-.5 1.1-.48.42.03.75-.02.98-.12.28-.13.54-.23.77-.3a7.53 7.53 0 0 0 .96-.28c.53-.1 1-.23 1.38-.38.3-.11.51-.16.64-.16.1 0 .18-.04.22-.1Zm1.12 3.04-.03-1.31-.48-.03c-.3-.03-.5 0-.58.06-.08.06-.2.1-.35.1-.15 0-.23.02-.25.06a.28.28 0 0 1-.23.1c-.25 0-.83.18-1.73.54-.87.36-1.33.6-1.37.74-.05.12.02 1 .19 2.62.06.62.17 1 .32 1.15.17.15.54.18 1.12.1.53-.07.83-.12.9-.16a.6.6 0 0 1 .35-.1c.15 0 .28-.02.38-.06.07-.04.31-.14.74-.29.45-.17.73-.48.86-.93.13-.45.18-1.31.16-2.59Zm6.82.22c.15-.06.27-.08.35-.06.13.02.28.05.45.1.45.06.75.25.9.57.15.3.24.9.28 1.83a4 4 0 0 1-.03.99c-.02.19-.15.54-.38 1.05-.2.45-.45.87-.77 1.25-.38.5-.67.78-.86.87-.4.2-.75.19-1.03-.07-.15-.15-.21-.3-.19-.48a9 9 0 0 1 .54-1.15c.39-.79.6-1.28.61-1.47.05-.2-.05-.51-.29-.96-.66-1.22-.52-2.04.42-2.47ZM200.6 2.33c.47-.22.95-.18 1.44.1.2.1.35.15.48.15s.42-.04.86-.12c1.33-.28 2.92-.07 4.77.64 1.86.7 3.09 1.57 3.68 2.62.66 1.1.58 2.43-.25 3.97a9.74 9.74 0 0 1-3.9 3.8c-.54.3-.87.5-1 .61-.13.11-.51.3-1.15.55l-1.41.6a1 1 0 0 0-.64.84c-.06.4-.03 1.17.1 2.3.17 1.3.18 2.36.03 3.17-.13.79-.39 1.24-.77 1.34a1.4 1.4 0 0 1-.67-.16c-.3-.15-.5-.28-.58-.41-.08-.1-.17-.7-.25-1.76a36.62 36.62 0 0 1-.13-2.88c0-.5-.03-.86-.1-1.09-.04-.23-.1-.9-.16-2.02a10.97 10.97 0 0 0-.22-2.08c-.07-.3-.13-.91-.2-1.85-.14-2.73-.34-4.5-.57-5.28a7.96 7.96 0 0 1-.16-2.18c.04-.15.14-.3.29-.48.17-.19.34-.32.51-.38Zm5.95 1.89c-.55-.15-1.34-.24-2.37-.26-1-.04-1.56.01-1.7.16-.1.1-.15.55-.15 1.34 0 .77.05 1.47.16 2.08a49 49 0 0 1 .38 4.58c.02.64.07 1.03.13 1.18.06.15.21.23.45.23.79 0 1.93-.45 3.42-1.35 1.52-.91 2.5-1.76 2.98-2.52.68-1.13.55-2.38-.39-3.75-.47-.7-1.44-1.27-2.9-1.7Zm7.92-1.8c.36-.2.87-.17 1.5.13.3.13.58.2.84.23.25.02 1.03.04 2.33.06 2.58 0 4.3.05 5.12.16.86.09 1.49.28 1.9.58.48.38.6.76.34 1.15-.23.38-.68.51-1.34.38a5.91 5.91 0 0 0-1.12-.16l-1.44-.16c-.88-.13-2.07-.14-3.59-.03-1.49.09-2.27.21-2.33.38-.06.15-.1 1.26-.1 3.33.02 2.05.07 3.13.13 3.23.06.11.2.17.38.2.2.02.61-.01 1.25-.1 1.39-.17 2.58-.29 3.59-.35.55-.04 1.1-.1 1.66-.16a9.23 9.23 0 0 1 1.6-.16c.24 0 .44.08.6.25.59.58.34 1.03-.73 1.35-.6.19-1.37.3-2.33.32-1.37.06-2.58.17-3.65.32a4.96 4.96 0 0 0-1.95.51c-.09.09-.12.73-.1 1.92.04 1.2.12 2.19.22 2.98a9.1 9.1 0 0 0 .39 1.92c.13.2.38.32.77.32.23 0 .67-.09 1.3-.26.67-.17 1.05-.3 1.16-.38.15-.13.6-.28 1.38-.45a24.26 24.26 0 0 1 3.42-.61c.13-.06.6-.16 1.4-.29a5.51 5.51 0 0 1 1.45-.13c.55.13.7.47.45 1.03-.26.57-.78 1-1.57 1.28-.51.19-1.44.33-2.78.41-1.82.09-3 .24-3.53.45-.74.28-1.48.46-2.2.55a134.48 134.48 0 0 0-2.34.32c-.2 0-.37-.04-.54-.1a.86.86 0 0 1-.39-.26 4.64 4.64 0 0 1-.22-.57 7.72 7.72 0 0 1-.23-2.15 80.49 80.49 0 0 0-.16-2.84c-.2-2.76-.35-5.06-.41-6.92-.09-2.21-.26-3.8-.51-4.76a6.21 6.21 0 0 1-.23-1.9c.07-.44.27-.78.61-1.02Zm27.37.07c.3-.32.65-.34 1.06-.07a2 2 0 0 1 .83 1.28c.1.45.2 2.83.29 7.14.02 1.32.06 2.7.13 4.13.13 2.77.17 4.47.13 5.09-.05.61-.2 1-.45 1.15-.45.21-.84.2-1.16-.03-.3-.26-.8-.93-1.5-2.02-.36-.55-.71-1.07-1.05-1.54a25 25 0 0 1-2.47-4l-.67-1.24c-.24-.4-.48-.86-.74-1.35-.15-.3-.41-.73-.8-1.31-.32-.5-.6-.98-.83-1.47-.4-.8-.77-1.14-1.09-1.06-.23.07-.32.36-.25.9.04.42.08 1.65.13 3.68.04 2.13.12 3.5.25 4.13.17 1 .27 2.26.29 3.77.04 1.5 0 2.41-.13 2.75-.23.52-.71.62-1.44.32a.68.68 0 0 1-.38-.38c-.07-.17-.1-.48-.1-.93 0-.53-.02-1.12-.06-1.76a227.06 227.06 0 0 1-.36-4.6 39 39 0 0 1-.16-1.64l-.16-2.01c-.08-1.18-.16-2.08-.22-2.72-.2-2.63-.28-4.2-.25-4.74.04-.55.24-.9.6-1.02.37-.13.7-.11 1 .06.3.17.61.52.96 1.06.27.47.67 1.04 1.18 1.72a35.84 35.84 0 0 1 2.3 3.33l1.16 1.89a65.43 65.43 0 0 0 2.46 3.74 10.2 10.2 0 0 0 1.25 1.6c.17.11.26.05.28-.19.07-.32.09-1.92.07-4.8a72.6 72.6 0 0 0-.29-7.17c-.1-.87-.04-1.44.2-1.7Zm16.92-.23c.34-.08.63-.08.86 0 .28.13.43.3.45.52.02.2-.09.54-.32.99a70.74 70.74 0 0 1-3 5.15c-.07.15-.19.36-.36.64-.15.23-.22.36-.22.38 0 .03-.11.2-.32.52l-.61.9c-.1.18-.22.4-.32.63-.09.24-.13.4-.13.51 0 .09.04.24.13.45.08.2.19.35.32.48l.57.61 1 1.02c.17.22.6.62 1.28 1.22a47.3 47.3 0 0 1 3.42 3.4c.38.4.56.73.54.98-.02.24-.22.44-.6.61-.45.22-.86.22-1.22 0-.36-.21-.9-.77-1.6-1.66-.47-.58-1.02-1.2-1.66-1.89a15.04 15.04 0 0 1-1.7-1.98c-.56-.77-.93-1.19-1.12-1.25-.2-.09-.44.08-.74.51-1.51 2.18-2.6 3.8-3.26 4.86a14.14 14.14 0 0 1-1.98 2.79c-.37.32-.8.32-1.28 0-.24-.17-.37-.33-.39-.48 0-.17.1-.43.32-.77s.4-.67.58-1l.48-.82c.04-.03.33-.46.86-1.32a37.15 37.15 0 0 1 3.49-4.86c.3-.3.43-.53.38-.7-.02-.17-.26-.54-.73-1.1l-1.41-1.72c-.4-.53-.78-.97-1.12-1.31l-2.11-2.08c-.47-.51-.82-.95-1.06-1.31-.23-.37-.33-.62-.29-.77.05-.17.19-.33.42-.48.81-.4 1.88.19 3.2 1.79a162.23 162.23 0 0 0 3.01 3.52c.62.79.99 1.18 1.12 1.18.06 0 .18-.12.35-.38.17-.28.26-.47.26-.58 0-.08.13-.4.41-.92.3-.56.61-1.08.93-1.57l.9-1.41a25.16 25.16 0 0 0 1.4-2.46c0-.11.11-.27.32-.48.22-.22.4-.33.55-.36Zm5.52.45c.69-.1 1.1.22 1.25.96.17.73.28 2.79.32 6.18.04 3.3.1 5.1.2 5.37.1.32.19.9.25 1.73.08.81.16 1.3.22 1.44.07.17.12.48.16.93.13.85.28 1.38.45 1.57.17.19.57.26 1.19.22a19 19 0 0 0 3.74-.73c.4-.13 1-.3 1.76-.48 1.62-.4 2.73-.74 3.33-1 .64-.27 1.12-.34 1.44-.19.32.13.46.45.41.96-.08 1.05-.71 1.67-1.88 1.86-.2.04-.37.08-.52.13-.3.1-1.67.26-4.12.48a4.4 4.4 0 0 0-1.16.22c-.23.06-.6.14-1.12.22-.72.09-1.22.15-1.5.2-.51.08-1.15.12-1.92.12-.75 0-1.2-.04-1.34-.12-.41-.24-.65-1.08-.74-2.53a149.53 149.53 0 0 1-.45-4.6 118.5 118.5 0 0 1-.32-5.8 89.7 89.7 0 0 0-.16-3.23l-.13-2.08a6 6 0 0 1 .04-1.12c.04-.3.1-.48.19-.55.08-.06.22-.12.41-.16Zm16.94-.29c.36-.2.86-.17 1.5.13.3.13.58.2.84.23.25.02 1.03.04 2.33.06 2.58 0 4.3.05 5.12.16.86.09 1.49.28 1.9.58.48.38.6.76.34 1.15-.23.38-.68.51-1.34.38a5.91 5.91 0 0 0-1.12-.16l-1.44-.16c-.88-.13-2.07-.14-3.59-.03-1.49.09-2.27.21-2.33.38-.06.15-.1 1.26-.1 3.33.02 2.05.07 3.13.13 3.23.06.11.2.17.39.2.19.02.6-.01 1.24-.1 1.39-.17 2.58-.29 3.59-.35.55-.04 1.1-.1 1.66-.16a9.23 9.23 0 0 1 1.6-.16c.24 0 .44.08.6.25.58.58.34 1.03-.73 1.35-.6.19-1.37.3-2.33.32-1.37.06-2.59.17-3.65.32a4.96 4.96 0 0 0-1.95.51c-.09.09-.12.73-.1 1.92.04 1.2.12 2.19.23 2.98a9.1 9.1 0 0 0 .38 1.92c.13.2.38.32.77.32.23 0 .67-.09 1.3-.26.67-.17 1.05-.3 1.16-.38.15-.13.6-.28 1.38-.45a24.26 24.26 0 0 1 3.42-.61c.13-.06.6-.16 1.4-.29a5.51 5.51 0 0 1 1.45-.13c.55.13.7.47.45 1.03-.26.57-.78 1-1.57 1.28-.51.19-1.44.33-2.78.41-1.82.09-3 .24-3.52.45-.75.28-1.49.46-2.21.55a134.48 134.48 0 0 0-2.34.32c-.2 0-.37-.04-.54-.1a.86.86 0 0 1-.39-.26 4.64 4.64 0 0 1-.22-.57 7.72 7.72 0 0 1-.23-2.15 80.49 80.49 0 0 0-.16-2.84c-.2-2.76-.35-5.06-.41-6.92-.09-2.21-.26-3.8-.51-4.76a6.21 6.21 0 0 1-.23-1.9c.07-.44.27-.78.61-1.02Z"
  />
</svg>
