<svg  viewBox="0 0 18 19" fill="none" xmlns="http://www.w3.org/2000/svg">
  <path id="Vector" d="M9 5.625V9.375L11.25 11.625M2.25 9.375C2.25 10.2614 2.42459 11.1392 2.76381 11.9581C3.10303 12.7771 3.60023 13.5212 4.22703 14.148C4.85382 14.7748 5.59794 15.272 6.41689 15.6112C7.23583 15.9504 8.11358 16.125 9 16.125C9.88642 16.125 10.7642 15.9504 11.5831 15.6112C12.4021 15.272 13.1462 14.7748 13.773 14.148C14.3998 13.5212 14.897 12.7771 15.2362 11.9581C15.5754 11.1392 15.75 10.2614 15.75 9.375C15.75 7.58479 15.0388 5.8679 13.773 4.60203C12.5071 3.33616 10.7902 2.625 9 2.625C7.20979 2.625 5.4929 3.33616 4.22703 4.60203C2.96116 5.8679 2.25 7.58479 2.25 9.375Z" stroke="currentColor" stroke-width="1.5" stroke-linecap="round" stroke-linejoin="round"/>
</svg>
