<svg xmlns="http://www.w3.org/2000/svg" viewBox="0 0 24 24">
  <path fill="#4285f4" d="M23.8 12.3c0-.9 0-1.7-.2-2.5H12.3v4.6h6.5c-.3 1.5-1.1 2.8-2.4 3.6v3h3.9c2.3-2.1 3.6-5.2 3.6-8.8Z"/>
  <path fill="#34a853" d="M12.2 24c3.2 0 6-1.1 7.9-2.9l-3.9-3c-1.1.7-2.4 1.1-4.1 1.1-3.1 0-5.8-2.1-6.7-4.9H1.5v3.1c2 3.9 6 6.6 10.7 6.6Z"/>
  <path fill="#fbbc04" d="M5.5 14.3c-.2-.7-.4-1.5-.4-2.3s.1-1.6.4-2.3V6.6h-4C.7 8.2.2 10.1.2 12s.5 3.8 1.3 5.4l4-3.1Z"/>
  <path fill="#e94235" d="M12.2 4.8c1.8 0 3.3.6 4.6 1.8l3.4-3.4c-2-2-4.7-3.2-8-3.2C7.5 0 3.5 2.7 1.5 6.6l4 3.1c.9-2.8 3.6-4.9 6.7-4.9Z"/>
</svg>