<svg width="24" height="24" viewBox="0 0 24 24" fill="none" xmlns="http://www.w3.org/2000/svg">
<path d="M19.7929 21.2071C20.1834 21.5976 20.8166 21.5976 21.2071 21.2071C21.5976 20.8166 21.5976 20.1834 21.2071 19.7929L19.7929 21.2071ZM9.2899 18.11L9.11611 19.0948L9.11611 19.0948L9.2899 18.11ZM18.11 9.2899L19.0948 9.11611L19.0948 9.11611L18.11 9.2899ZM21.2071 19.7929L16.7071 15.2929L15.2929 16.7071L19.7929 21.2071L21.2071 19.7929ZM9.46368 17.1252C6.30366 16.5675 4 13.8218 4 10.6129H2C2 14.7923 5.00037 18.3685 9.11611 19.0948L9.46368 17.1252ZM17.1252 9.46369C17.923 13.9846 13.9846 17.923 9.46368 17.1252L9.11611 19.0948C15.0043 20.1339 20.1339 15.0043 19.0948 9.11611L17.1252 9.46369ZM10.6129 4C13.8218 4 16.5675 6.30366 17.1252 9.46369L19.0948 9.11611C18.3685 5.00037 14.7923 2 10.6129 2V4ZM10.6129 2C5.85613 2 2 5.85613 2 10.6129H4C4 6.9607 6.9607 4 10.6129 4V2Z" fill="currentColor"/>
</svg>
