<svg viewBox="0 0 20 20" fill="none" xmlns="http://www.w3.org/2000/svg">
  <path d="M18.0429 19.2071C18.4334 19.5976 19.0666 19.5976 19.4571 19.2071C19.8476 18.8166 19.8476 18.1834 19.4571 17.7929L18.0429 19.2071ZM7.5399 16.11L7.36611 17.0948L7.36611 17.0948L7.5399 16.11ZM16.36 7.2899L17.3448 7.11611L17.3448 7.11611L16.36 7.2899ZM19.4571 17.7929L14.9571 13.2929L13.5429 14.7071L18.0429 19.2071L19.4571 17.7929ZM7.71368 15.1252C4.55366 14.5675 2.25 11.8218 2.25 8.61291H0.25C0.25 12.7923 3.25037 16.3685 7.36611 17.0948L7.71368 15.1252ZM15.3752 7.46369C16.173 11.9846 12.2346 15.923 7.71368 15.1252L7.36611 17.0948C13.2543 18.1339 18.3839 13.0043 17.3448 7.11611L15.3752 7.46369ZM8.86291 2C12.0718 2 14.8175 4.30366 15.3752 7.46369L17.3448 7.11611C16.6185 3.00037 13.0423 0 8.86291 0V2ZM8.86291 0C4.10613 0 0.25 3.85613 0.25 8.61291H2.25C2.25 4.9607 5.2107 2 8.86291 2V0Z" fill="currentColor"/>
</svg>
