<svg viewBox="0 0 20 21" fill="none" xmlns="http://www.w3.org/2000/svg">
  <path id="Vector" d="M6.66699 7.875H5.83366C5.39163 7.875 4.96771 8.05059 4.65515 8.36316C4.34259 8.67572 4.16699 9.09964 4.16699 9.54167V16.2083C4.16699 16.6504 4.34259 17.0743 4.65515 17.3868C4.96771 17.6994 5.39163 17.875 5.83366 17.875H14.167C14.609 17.875 15.0329 17.6994 15.3455 17.3868C15.6581 17.0743 15.8337 16.6504 15.8337 16.2083V9.54167C15.8337 9.09964 15.6581 8.67572 15.3455 8.36316C15.0329 8.05059 14.609 7.875 14.167 7.875H13.3337M10.0003 12.0417V2.875M10.0003 2.875L7.50033 5.375M10.0003 2.875L12.5003 5.375" stroke="currentColor" stroke-width="1.5" stroke-linecap="round" stroke-linejoin="round"/>
</svg>
