<svg width="106" height="25" viewBox="0 0 106 25" fill="none" xmlns="http://www.w3.org/2000/svg">
  <mask
    id="mask0_3827_83358"
    style="mask-type:luminance"
    maskUnits="userSpaceOnUse"
    x="30"
    y="0"
    width="76"
    height="25"
  >
    <path
      d="M50.1368 9.9944C50.1368 15.5032 46.1159 19.9818 40.2093 19.9818C34.3027 19.9818 30.1431 15.5102 30.1431 9.9944C30.1431 4.47856 34.1917 0.00701904 40.2093 0.00701904C43.2319 0.00701904 45.7692 1.12841 47.5509 2.95768L44.1262 6.01347C43.2319 5.03225 41.887 4.40147 40.2093 4.40147C36.7291 4.40147 34.8434 7.04374 34.8434 9.9944C34.8434 12.9451 36.7291 15.5873 40.2093 15.5873C42.5317 15.5873 44.1747 14.3328 44.9581 12.5876L42.1504 8.96412H50.0813C50.1091 9.2655 50.1368 9.672 50.1368 10.0014V9.9944ZM52.4454 0.00701904H56.8199V19.9818H52.4454V0.00701904ZM74.1168 6.3639L66.6989 25H62.2966L64.3487 19.6243L58.6015 6.3639H63.3227L66.477 14.1085L69.4719 6.3639H74.1098H74.1168ZM75.947 6.3639H80.3215V7.91282C81.3475 6.81946 82.8034 6.35689 84.3147 6.35689C88.0722 6.35689 90.4709 9.46875 90.4709 13.3165C90.4709 17.1643 88.0722 20.2201 84.3147 20.2201C82.8866 20.2201 81.3475 19.8416 80.3215 18.8534V24.993H75.947V6.35689V6.3639ZM86.0409 13.3165C86.0409 11.5153 84.9386 10.2047 83.1292 10.2047C81.3198 10.2047 80.1898 11.5153 80.1898 13.3165C80.1898 15.1178 81.2921 16.3723 83.1292 16.3723C84.9664 16.3723 86.0409 15.0336 86.0409 13.3165ZM97.2302 0.00701904V8.19317C97.9304 7.23298 99.1436 6.69331 100.683 6.69331C103.892 6.69331 106 9.01318 106 12.3914V19.9888H101.632V13.0502C101.632 11.6064 100.904 10.6813 99.4764 10.6813C98.0482 10.6813 97.3203 11.6064 97.3203 13.0502V19.9888H92.9458V0.00701904H97.2371H97.2302Z"
      fill="white"
    />
  </mask>
  <g mask="url(#mask0_3827_83358)">
    <path d="M106.007 -2.13764H30.1431V26.7311H106.007V-2.13764Z" fill="url(#paint0_linear_3827_83358)" />
  </g>
  <mask id="mask1_3827_83358" style="mask-type:luminance" maskUnits="userSpaceOnUse" x="0" y="0" width="24" height="20">
    <path d="M7.9656 0V19.9818H0V0H7.9656ZM23.8067 0H9.74729V19.9818H23.8067V0Z" fill="white" />
  </mask>
  <g mask="url(#mask1_3827_83358)">
    <path d="M23.8067 -0.00701141H0V3.32912H23.8067V-0.00701141Z" fill="#F44D79" />
    <path d="M23.8067 3.32912H0V6.66526H23.8067V3.32912Z" fill="#F4A031" />
    <path d="M23.8067 6.65826H0V9.99439H23.8067V6.65826Z" fill="#F7E431" />
    <path d="M23.8067 9.99438H0V13.3305H23.8067V9.99438Z" fill="#95BF22" />
    <path d="M23.8067 13.3305H0V16.6667H23.8067V13.3305Z" fill="#3AAED6" />
    <path d="M23.8067 16.6597H0V19.9958H23.8067V16.6597Z" fill="#8C63C1" />
  </g>
  <defs>
    <linearGradient
      id="paint0_linear_3827_83358"
      x1="30.1431"
      y1="12.2932"
      x2="106"
      y2="12.2932"
      gradientUnits="userSpaceOnUse"
    >
      <stop offset="0.01" stop-color="#F44D79" />
      <stop offset="0.22" stop-color="#F4A031" />
      <stop offset="0.42" stop-color="#F7E431" />
      <stop offset="0.58" stop-color="#95BF22" />
      <stop offset="0.8" stop-color="#3AAED6" />
      <stop offset="1" stop-color="#8C63C1" />
    </linearGradient>
  </defs>
</svg>
