<svg xmlns="http://www.w3.org/2000/svg" fill="none" viewBox="0 0 24 24">
  <path
    fill="var(--color-primary,#C6ED9C)"
    d="M12 6.556S12.5 5 16.5 5 21 6.556 21 6.556V19s-2.926-.997-4.5-1.037C14.538 17.913 12 19 12 19V6.556ZM3 6.556S3.5 5 7.5 5 12 6.556 12 6.556V19s-2.926-.997-4.5-1.037C5.538 17.913 3 19 3 19V6.556Z"
  />
  <path
    stroke="currentColor"
    stroke-linecap="round"
    stroke-linejoin="round"
    stroke-width="1.5"
    d="M12 19a9.102 9.102 0 0 0-4.5-1.188c-1.58 0-3.132.41-4.5 1.188V6.188A9.102 9.102 0 0 1 7.5 5c1.58 0 3.132.41 4.5 1.188M12 19a9.102 9.102 0 0 1 4.5-1.188c1.58 0 3.132.41 4.5 1.188V6.188A9.102 9.102 0 0 0 16.5 5c-1.58 0-3.132.41-4.5 1.188M12 19V6.188"
  />
</svg>
