<svg viewBox="0 0 24 24" fill="none" xmlns="http://www.w3.org/2000/svg">
  <path
    d="M12 6.55556C12 6.55556 12.5 5 16.5 5C20.5 5 21 6.55556 21 6.55556V19C21 19 18.0738 18.0033 16.5 17.963C14.5382 17.9127 12 19 12 19V6.55556Z"
    fill="var(--color-primary,#C6ED9C)"
  />
  <path
    d="M3 6.55556C3 6.55556 3.5 5 7.5 5C11.5 5 12 6.55556 12 6.55556V19C12 19 9.07377 18.0033 7.5 17.963C5.53824 17.9127 3 19 3 19V6.55556Z"
  />
  <path
    d="M12 19C10.6318 18.2215 9.07983 17.8117 7.5 17.8117C5.92017 17.8117 4.36817 18.2215 3 19V6.18831C4.36817 5.40983 5.92017 5 7.5 5C9.07983 5 10.6318 5.40983 12 6.18831M12 19C13.3682 18.2215 14.9202 17.8117 16.5 17.8117C18.0798 17.8117 19.6318 18.2215 21 19V6.18831C19.6318 5.40983 18.0798 5 16.5 5C14.9202 5 13.3682 5.40983 12 6.18831M12 19V6.18831"
    stroke="currentColor"
    stroke-width="1.5"
    stroke-linecap="round"
    stroke-linejoin="round"
  />
</svg>
