<svg xmlns="http://www.w3.org/2000/svg" fill="none" viewBox="0 0 24 24">
  <path
    stroke="currentColor"
    stroke-linecap="round"
    stroke-linejoin="round"
    stroke-width="1.5"
    d="M4 9.813V6.75c0-.464.21-.91.586-1.237A2.154 2.154 0 0 1 6 5h3.3M4 9.813v4.374m0-4.374h16m0 4.374H4M9.3 5h5.4M9.3 5v14M4 14.187v3.063c0 .464.21.91.586 1.237C4.96 18.816 5.47 19 6 19h3.3m5.4-14H18c.53 0 1.04.184 1.414.513.375.328.586.773.586 1.237v3.063M14.7 5v14m0 0H18c.53 0 1.04-.184 1.414-.513.375-.328.586-.773.586-1.237V9.812M14.7 19H9.3"
  />
</svg>
