<svg xmlns="http://www.w3.org/2000/svg" viewBox="0 0 100 19.88">
  <path fill="currentColor" d="M0 0h6.39c4.69 0 7.66 2.54 7.66 6.55 0 3.5-2.57 6.84-7.66 6.84H4.4v6.49H0V0Zm6.36 9.73c2.04 0 3.29-1.27 3.29-3.15 0-1.67-1.19-2.92-3.29-2.92H4.32v6.07h2.04ZM17.05 0h12.48v3.74h-8.08v4.22h7.16v3.45h-7.16v4.74h8.08v3.74H17.05V0Zm15.99 0h4.14l8.45 12.64V0h4.14v19.88h-4.14L37.18 7.45v12.43h-4.14V0Zm19.63 17.89 5.83-8.08-5.54-7.74V0h3.87l4.59 6.63L65.71 0h3.47v1.99l-5.43 7.69 5.8 8.14v2.07h-3.87l-4.8-7-4.74 7h-3.47V17.9ZM72.43 0h4.4v16.14h7.95v3.74H72.43V0Zm15.09 0H100v3.74h-8.08v4.22h7.16v3.45h-7.16v4.74H100v3.74H87.52V0Z"/>
</svg>
