<svg xmlns="http://www.w3.org/2000/svg" viewBox="0 0 379.96 151.08"><path fill="currentColor" d="M0 151.08V75.87c0-32.55 26.29-58.84 58.84-58.84s59.05 26.29 59.05 58.84-26.29 59.05-59.05 59.05c-16.81 0-32.11-7.11-42.89-18.53v34.7H0Zm58.84-32.11c23.92 0 43.1-19.4 43.1-43.1s-19.18-42.89-43.1-42.89-42.89 19.17-42.89 42.88 19.18 43.1 42.89 43.1ZM187.93 16.81v15.95c-23.71.22-42.89 19.4-42.89 43.1v57.97h-15.95V75.86c0-32.54 26.29-58.84 58.84-59.05Zm19.19 4.74c-6.03 0-10.78-4.74-10.78-10.78S201.08-.01 207.12-.01s10.78 4.96 10.78 10.78-4.74 10.78-10.78 10.78Zm7.97 13.15v99.14h-15.95V34.7h15.95Zm148.92 99.13V58.84c0-14.66-11.85-26.29-26.51-26.29s-26.51 11.85-26.51 26.51v74.78h-15.95v-75c0-14.66-11.85-26.29-26.51-26.29s-26.29 11.85-26.29 26.51v74.78h-15.95v-75c0-23.49 18.97-42.24 42.24-42.24 14.22 0 26.72 6.9 34.48 17.67 7.76-10.78 20.26-17.67 34.48-17.67 23.49 0 42.46 18.97 42.46 42.46v74.78H364Z"/></svg>
