<svg xmlns="http://www.w3.org/2000/svg" viewBox="0 0 124.51 24">
  <path fill="#171717" d="M8.61 0H0v24h6.5v-7.17h2.11c6.5 0 9.76-4.19 9.76-8.54C18.37 3.2 14.59 0 8.61 0Zm-.03 11.36H6.37V5.44h2.21c2.05 0 3.3 1.09 3.3 2.85s-1.28 3.07-3.3 3.07ZM21.54 24H37.5v-5.6h-9.47v-4.19h8.22V9.15h-8.22V5.6h9.47V0H21.54v24zm34.87-10.82L47.49 0h-6.18v24h6.18V11.07L56.41 24h6.18V0h-6.18v13.18zm9.19 8.32V24h5.5l4.8-7.62-3.52-4.48-6.78 9.6z"/>
  <path fill="#468fea" d="M76.77 7.23 72.19 0h-6.24v2.53l6.43 9.37 3.52 4.48L80.77 24h6.17v-2.53l-6.75-9.82-3.42-4.42z"/>
  <path fill="#171717" d="M86.43 2.5V0h-5.5l-4.16 7.23 3.42 4.42 6.24-9.15zM96.38 0h-6.49v24h15.68v-5.6h-9.19V0zm28.13 5.6V0h-15.97v24h15.97v-5.6h-9.47v-4.19h8.22V9.15h-8.22V5.6h9.47z"/>
</svg>
