<svg viewBox="0 0 40 40" xmlns="http://www.w3.org/2000/svg">
  <path
    fill-rule="evenodd"
    clip-rule="evenodd"
    d="M19.979 6.66663C8.94097 6.66663 1.6665 12.4594 1.6665 19.6075C1.6665 26.754 8.94097 32.5476 19.979 32.5476C31.0188 32.5476 38.2949 26.754 38.2949 19.6075C38.2949 12.4594 31.0188 6.66663 19.979 6.66663Z"
    fill="#FEFEFE"
  />
  <path
    fill-rule="evenodd"
    clip-rule="evenodd"
    d="M23.2426 24.443C26.3871 23.8972 37.0048 21.7121 35.6966 15.6532C35.2258 13.4799 32.9902 11.0894 29.6175 9.42742C26.922 8.21445 23.6318 7.51025 19.9364 7.51025C9.68847 7.51025 2.56226 12.9257 2.56226 19.6071C2.56226 24.2602 6.02176 28.3001 11.5846 30.3217C12.7647 27.2152 17.465 25.4454 23.2426 24.443Z"
    fill="#0075C1"
  />
  <path
    fill-rule="evenodd"
    clip-rule="evenodd"
    d="M20.0014 26.5861C15.4065 27.1631 13.2981 28.6473 11.9427 30.4499C14.2845 31.251 16.9791 31.7025 19.9357 31.7025C30.1845 31.7025 37.3107 26.2888 37.3107 19.6073C37.3107 19.0151 37.2543 18.4331 37.1448 17.8636C36.8053 25.7084 25.0294 25.9619 20.0014 26.5861Z"
    fill="url(#paint0_linear_2_115)"
  />
  <path
    fill-rule="evenodd"
    clip-rule="evenodd"
    d="M24.2404 22.9044C24.189 22.3366 24.168 21.9491 24.168 21.6156V18.226H22.5355L22.5877 18.3304C22.5894 18.333 22.7537 18.6581 22.7537 19.369L22.7537 19.3751C22.7539 19.5089 22.7579 21.7381 22.6939 22.2768C22.2997 22.3779 21.7724 22.4141 21.4304 22.4141C18.8402 22.4141 17.5253 20.9265 17.5253 17.996C17.5253 15.7588 19.0053 14.0884 21.1229 13.9351C22.2373 13.8559 23.3096 14.1592 23.9852 14.7454L24.1031 14.8482V13.4785L24.0467 13.4676C23.3736 13.3379 22.5835 13.2014 21.8103 13.2014C18.0812 13.2014 15.8532 15.1649 15.8532 18.4526C15.8532 21.955 18.5731 23.2025 21.1195 23.2025C22.1986 23.2025 23.3147 23.1225 24.1814 22.9802L24.2463 22.9692L24.2404 22.9044ZM8.25134 14.1568C8.44929 14.14 9.05578 14.0962 9.49464 14.0962C12.1185 14.0962 13.3425 15.3681 13.3425 18.0998C13.3425 20.9225 12.255 22.2964 10.0203 22.2964C8.38443 22.2964 8.25134 22.2172 8.25134 21.2476V14.1568ZM10.0471 13.2908H6.61035L6.65078 13.3894C6.80325 13.76 6.79398 14.4356 6.78387 15.0336C6.77966 15.1743 6.77798 22.9677 6.77798 22.9677L6.84621 22.9693C6.86221 22.971 8.41212 23.0266 9.88117 23.0266C12.9507 23.0266 15.0136 20.946 15.0136 17.8496C15.0136 15.08 13.0644 13.2908 10.0471 13.2908ZM28.3304 14.0503H27.3702L27.3651 17.3666H27.9918C29.6933 17.3666 30.486 16.7989 30.486 15.5792C30.486 14.5077 29.8433 14.0503 28.3304 14.0503ZM28.1232 18.1265H27.3651V21.3147C27.3651 22.0206 27.6633 22.2961 28.4256 22.2961C29.9983 22.2961 30.7631 21.6003 30.7631 20.17C30.7631 18.8138 29.877 18.1265 28.1232 18.1265ZM31.8927 15.3821C31.8927 16.5832 30.9998 17.4062 30.0665 17.6547C31.4741 17.9563 32.4318 18.9258 32.4318 20.0832C32.4318 21.9532 31.015 23.0263 28.5444 23.0263C27.2452 23.0263 26.176 23.0454 25.9972 23.0486C25.9809 23.0489 25.972 23.0491 25.9711 23.0491L25.8986 23.0507V14.6593C25.8986 13.7673 25.8135 13.3815 25.8119 13.3773L25.7925 13.2905H28.7323C30.7126 13.2905 31.8927 14.0714 31.8927 15.3821Z"
    fill="#FEFEFE"
  />
  <defs>
    <linearGradient
      id="paint0_linear_2_115"
      x1="38.6653"
      y1="21.8932"
      x2="12.955"
      y2="23.5778"
      gradientUnits="userSpaceOnUse"
    >
      <stop stop-color="#6AB935" />
      <stop offset="0.305922" stop-color="#00A5A9" />
      <stop offset="0.669783" stop-color="#008AD5" />
      <stop offset="1" stop-color="#0075C1" />
    </linearGradient>
  </defs>
</svg>
