<svg viewBox="0 0 40 40" xmlns="http://www.w3.org/2000/svg">
  <g clip-path="url(#clip0_2_33)">
    <path
      d="M13.948 26.8194L13.891 26.8774C12.9949 27.836 11.9579 28.3424 10.8897 28.3424C8.65881 28.3424 7.04048 26.5853 7.04048 24.1618C7.04048 21.742 8.65881 19.9821 10.8897 19.9821C11.9579 19.9821 12.9949 20.4914 13.891 21.4537L13.948 21.5108L15.3827 19.6891L15.3444 19.6405C14.1513 18.1605 12.7194 17.4407 10.9593 17.4407C9.19469 17.4407 7.57903 18.065 6.41633 19.1893C5.15019 20.4081 4.48413 22.1267 4.48413 24.1618C4.48413 26.1969 5.15019 27.9193 6.41633 29.1381C7.57903 30.2689 9.19469 30.8885 10.9593 30.8885C12.7194 30.8885 14.1513 30.1678 15.3444 28.6869L15.3827 28.6419L13.948 26.8194Z"
      fill="#004685"
    />
    <path d="M16.8301 30.6389H19.3641V17.6497H16.8301V30.6389Z" fill="#004685" />
    <path
      d="M29.2898 27.8165C28.6131 28.249 27.9844 28.4671 27.4191 28.4671C26.5997 28.4671 26.2288 28.0121 26.2288 27.0011V20.1087H28.8119V17.6636H26.2288V13.6216L23.7456 15.0182V17.6636H21.6021V20.1087H23.7456V27.4402C23.7456 29.4369 24.8726 30.8035 26.556 30.8391C27.6982 30.8625 28.3866 30.5049 28.8039 30.2428L28.8306 30.225L29.4396 27.7201L29.2898 27.8165Z"
      fill="#004685"
    />
    <path d="M31.3896 30.6389H33.9273V17.6497H31.3896V30.6389Z" fill="#004685" />
    <path
      d="M35.407 15.372C33.0914 11.9291 29.2466 9.8753 25.335 9.8753C21.4242 9.8753 17.5786 11.9291 15.2674 15.372L15.1479 15.549H18.0636L18.0957 15.5124C20.0796 13.3613 22.6708 12.2249 25.335 12.2249C27.9992 12.2249 30.5886 13.3613 32.5769 15.5124L32.609 15.549H35.5229L35.407 15.372Z"
      fill="#EE1C25"
    />
  </g>
  <defs>
    <clipPath id="clip0_2_33">
      <rect width="31.4583" height="21.4516" fill="white" transform="translate(4.27063 9.65479)" />
    </clipPath>
  </defs>
</svg>
