<svg viewBox="0 0 40 40" xmlns="http://www.w3.org/2000/svg">
  <path
    fill-rule="evenodd"
    clip-rule="evenodd"
    d="M21.1181 1.66663L12.4876 7.30506C10.4256 9.83207 12.7407 11.394 16.9242 13.2604C16.3295 12.9723 16.6876 12.1121 17.1732 11.8508C21.221 9.42256 23.1183 8.17964 23.2747 6.47987C23.4516 4.19363 22.6841 2.41567 21.1181 1.66663ZM20.6155 25.416L27.2376 28.5192C29.7843 26.0134 26.6636 24.5505 23.8434 23.2285L23.8434 23.2284C23.5393 23.0859 23.2387 22.945 22.9491 22.8046C23.587 23.1812 23.1179 23.71 22.7865 23.9261L20.6155 25.416ZM12.6068 30.7828L9.21136 33.0649C6.58969 34.8223 11.3371 39.4792 14.36 37.4501L19.5643 34.0362L12.6068 30.7828Z"
    fill="#60B1DC"
  />
  <path
    fill-rule="evenodd"
    clip-rule="evenodd"
    d="M28.0175 8.65918L20.313 13.5568L27.1286 16.7629C28.888 15.9212 30.2276 14.6927 30.312 12.676C30.3532 10.7067 29.6206 9.29916 28.0175 8.65918ZM19.0475 22.1091L12.3102 18.9977C10.5382 21.8981 12.927 22.9858 15.1496 23.9979C15.5778 24.1928 15.9998 24.385 16.3847 24.5867C15.9688 24.352 16.2894 24.1282 16.5816 23.9242C16.648 23.8778 16.7129 23.8325 16.7674 23.7883L19.0475 22.1091Z"
    fill="#A4C7A2"
  />
  <path
    fill-rule="evenodd"
    clip-rule="evenodd"
    d="M12.4605 7.32983C10.6805 8.41636 9.10831 10.3857 9.17828 13.1802C9.26265 15.3574 10.6085 17.1148 13.831 18.5964L23.8279 23.2265C27.4332 24.8748 29.5178 26.2618 27.2048 28.5192C29.596 27.4018 31.0632 25.5169 30.6599 22.1832C30.4068 20.1501 28.8655 18.7446 26.4743 17.6786L16.9486 13.2605C12.6272 11.2623 10.5056 9.95356 12.4605 7.32983Z"
    fill="#008BBC"
  />
  <path
    fill-rule="evenodd"
    clip-rule="evenodd"
    d="M12.2856 18.9977C10.3039 20.0657 8.88192 21.9568 9.07741 24.6958C9.23586 26.9285 10.4479 28.6777 12.7568 29.7148C18.4508 32.2727 24.1119 34.8697 29.419 38.0922C31.092 35.806 31.1249 31.5175 27.4023 29.7724L16.4197 24.5867C12.2485 22.6153 10.8327 22.1359 12.2856 18.9977Z"
    fill="#56A954"
  />
</svg>
