<svg viewBox="0 0 40 40" xmlns="http://www.w3.org/2000/svg">
  <path
    fill-rule="evenodd"
    clip-rule="evenodd"
    d="M37.3917 8.38488C37.8205 8.36897 38.2207 8.66709 38.2207 9.12264C38.2207 9.48859 37.8548 9.80429 37.6036 9.99522C36.2085 11.0805 34.604 11.9179 32.9769 12.5878C28.2255 14.5548 22.9461 15.2335 17.8656 15.8867C17.6274 15.9173 17.3897 15.9478 17.1524 15.9785C14.044 16.388 10.9297 16.6869 7.80365 16.8862C6.64551 16.9599 5.48403 16.3428 4.51264 15.7608C3.5111 15.1679 2.54892 14.379 1.99959 13.3365C1.54152 12.4614 1.48291 11.14 2.29184 10.4457C2.90315 9.91901 3.84774 9.94665 4.60224 10.0002C5.2107 10.0473 5.81051 10.1552 6.41083 10.2631C6.68712 10.3128 6.96351 10.3626 7.24091 10.4064C7.86958 10.5037 8.50026 10.6145 9.13048 10.7251C9.90973 10.862 10.6883 10.9987 11.4614 11.1098C19.6387 12.2897 28.3929 11.7286 36.149 8.77847C36.2452 8.74191 36.3416 8.70132 36.4387 8.66046C36.7463 8.53097 37.0601 8.39889 37.3917 8.38488ZM25.1639 21.5749C25.3682 22.0279 25.5055 22.5195 25.5901 23.0244C25.8154 24.34 25.6831 25.7653 25.4545 27.013C25.2912 27.9233 25.0408 28.8168 24.7519 29.6927C23.9815 32.0517 22.8493 34.3361 21.0815 36.1156C20.7884 36.4137 20.4208 36.6875 19.9753 36.5083C19.8681 36.4648 19.7743 36.397 19.7073 36.3023C19.5796 36.1063 19.6554 35.8542 19.7197 35.6402C19.7279 35.6129 19.736 35.5863 19.7434 35.5604C19.8304 35.2681 19.9117 34.9709 19.9887 34.6728C20.7575 31.782 21.4751 28.6669 21.3311 25.6564C21.2984 24.9639 21.2138 24.2613 20.9132 23.6416C20.6101 23.0186 20.0507 22.4902 19.3682 22.3813C18.9788 22.3143 18.5735 22.3939 18.2184 22.5664C18.051 22.6509 17.8918 22.7548 17.7579 22.8854C17.5368 23.0931 17.3827 23.372 17.2772 23.6583C16.9364 24.5569 17.0561 25.4571 17.2094 26.3774C17.3308 27.0984 17.2152 27.9015 16.5587 28.3294C16.0521 28.656 15.3796 28.6803 14.8169 28.4617C14.25 28.244 13.7869 27.8043 13.4703 27.2885C12.4914 25.7133 12.4705 23.3904 13.0131 21.6662C13.127 21.3119 13.2602 20.9636 13.4301 20.6353C13.9225 19.6622 14.6896 18.85 15.625 18.2881C17.6858 17.0353 20.2039 17.0286 22.2882 18.2437C23.6272 19.0225 24.5241 20.189 25.1639 21.5749Z"
    fill="#009490"
  />
  <path
    fill-rule="evenodd"
    clip-rule="evenodd"
    d="M15.9674 6.46156C15.9674 8.14893 17.3349 9.5139 19.0189 9.5139C20.7029 9.5139 22.0704 8.14893 22.0704 6.46156C22.0704 6.21033 22.0093 5.95744 21.9055 5.72966C21.6467 5.17614 21.3494 4.90566 21.3787 4.24076C21.4172 3.34641 20.2683 3.33301 19.6486 3.33301C18.9745 3.33301 18.2627 3.4268 17.6506 3.73161C17.1641 3.97781 16.7462 4.35381 16.4506 4.81019C16.1466 5.27914 15.9791 5.83266 15.9674 6.39289V6.46156Z"
    fill="#EC1651"
  />
</svg>
