<svg viewBox="0 0 40 40" xmlns="http://www.w3.org/2000/svg">
  <path
    fill-rule="evenodd"
    clip-rule="evenodd"
    d="M36.7003 31.9355C36.7003 34.5655 34.5694 36.6977 31.9394 36.6977H8.1286C5.49944 36.6977 3.367 34.5655 3.367 31.9355V8.12579C3.367 5.49587 5.49944 3.36438 8.1286 3.36438H31.9394C34.5694 3.36438 36.7003 5.49587 36.7003 8.12579V31.9355Z"
    fill="#FFE400"
  />
  <path
    fill-rule="evenodd"
    clip-rule="evenodd"
    d="M20.4038 24.257H18.8465V15.6754H20.3864C20.3864 15.6754 20.38 15.6716 20.3861 15.6715C20.3861 15.6728 20.3863 15.6741 20.3864 15.6754H20.4038V24.257ZM27.0356 23.6104C26.8555 22.309 26.2549 21.2114 25.2509 20.3473C25.1026 20.2196 24.9473 20.1 24.7725 19.9582C24.9169 19.8495 25.0384 19.766 25.1513 19.672C25.8679 19.0752 26.3957 18.3454 26.7407 17.4756C27.0686 16.6489 27.1508 15.7914 27.0336 14.9278C26.8898 13.8686 26.4425 12.9309 25.7116 12.1371C25.1848 11.5652 24.5707 11.1137 23.8508 10.8202C23.1575 10.5375 22.4461 10.4094 21.6797 10.4094L13.347 10.411C13.2894 10.411 13.2312 10.4081 13.1741 10.4146C12.9699 10.4377 12.8497 10.5675 12.8405 10.7725C12.8379 10.83 12.8402 10.8877 12.8402 10.9453C12.8402 16.9388 12.8402 22.9323 12.8402 28.9257C12.8402 29.0163 12.8352 29.1073 12.842 29.1974C12.8538 29.3554 12.962 29.4724 13.1185 29.4982C13.1749 29.5076 13.2335 29.5046 13.2912 29.5046L21.9206 29.5048C22.8068 29.5054 23.6348 29.2822 24.3984 28.8438C25.4928 28.2153 26.2743 27.3143 26.7404 26.1332C27.0639 25.3134 27.1539 24.4648 27.0356 23.6104Z"
    fill="#1E1719"
  />
</svg>
