<svg viewBox="0 0 40 40" xmlns="http://www.w3.org/2000/svg">
  <path
    fill-rule="evenodd"
    clip-rule="evenodd"
    d="M33.0071 18.9917C30.4834 19.4994 29.5566 20.9527 28.8921 20.6152C28.3118 20.1424 28.9463 17.4519 29.0832 16.3695C29.26 14.9511 27.3508 14.0849 26.6992 15.8256C26.1602 17.5635 26.414 23.7129 26.5338 24.7994C26.6607 25.9655 28.7025 25.9194 28.9178 24.9068C28.9819 24.5888 29.1473 23.9221 29.6221 22.9904C31.6597 19.1493 36.1155 20.8397 35.6777 23.5358C34.9235 27.6643 27.2638 27.5764 26.2543 26.6963C24.7429 25.621 19.9563 22.4451 15.3308 19.4338C15.3365 19.2204 15.3451 18.9917 15.3551 18.7783C21.7899 15.018 28.2719 11.2117 29.0832 10.499C30.3622 9.36229 28.9463 7.33849 27.3051 8.63701C26.2101 9.51571 21.0129 12.8994 15.5248 16.3751C15.8983 12.1755 16.5628 9.76119 16.8551 8.65236C17.3983 6.58672 14.4411 5.81263 13.9378 7.8964C13.1037 11.3317 12.6417 14.5829 12.4136 17.5509C9.29094 15.5494 6.61461 13.859 5.60796 13.3248C2.69352 11.7655 2.38982 14.6275 3.55046 15.1673C4.10654 15.4337 7.05092 17.2106 10.6626 19.431C7.02954 21.7059 3.7843 23.685 2.14885 24.6237C1.06235 25.5122 1.99771 26.6963 3.117 26.0366C4.915 24.9068 8.4012 22.8579 12.251 20.5984C12.1027 26.621 12.9468 30.981 13.6084 32.3381C14.4725 34.0829 15.8955 33.3214 15.6673 31.6854C15.3594 28.0702 15.2467 24.9459 15.2595 22.2666C20.8389 25.7144 26.3969 29.1874 26.9173 29.5109C28.2106 30.3157 29.4054 29.398 29.5166 28.7494C34.0166 28.3296 37.1421 27.5457 38.1473 23.9863C39.1811 20.3474 35.6863 18.4547 33.0071 18.9917Z"
    fill="#FCB813"
  />
</svg>
