<svg viewBox="0 0 40 40" xmlns="http://www.w3.org/2000/svg">
  <path
    fill-rule="evenodd"
    clip-rule="evenodd"
    d="M33.2863 11.6667H9.89339C8.58855 11.6667 7.67549 12.4882 7.45769 13.504C7.34061 14.0645 7.55253 14.557 7.98159 14.8978L16.3862 20.4455L16.3921 20.4428L16.3934 20.4455L33.3013 11.7282C33.3687 11.6955 33.3622 11.6667 33.2863 11.6667ZM33.7271 16.6431H23.79L22.1758 24.2484H32.1103C32.1855 24.2484 32.194 24.217 32.1325 24.1765L26.4815 20.451L33.7421 16.7065C33.8075 16.6725 33.8003 16.6431 33.7271 16.6431ZM16.3936 20.4454L29.5761 29.1529C29.6395 29.1934 29.6284 29.2261 29.5545 29.2261H6.16224C4.85413 29.2261 4.29099 28.4033 4.50879 27.3889C4.62652 26.8329 5.04969 26.3345 5.62134 25.997L16.3864 20.4454L16.391 20.4474L16.3936 20.4454Z"
    fill="#E32313"
  />
  <path
    fill-rule="evenodd"
    clip-rule="evenodd"
    d="M36.7814 16.6431H35.3549C35.2823 16.6431 35.1672 16.6725 35.1025 16.7065L27.9511 20.3908C27.885 20.4222 27.883 20.485 27.9445 20.5262L33.4909 24.1765C33.553 24.2157 33.6662 24.2484 33.7388 24.2484H35.1646C35.2398 24.2484 35.2477 24.217 35.1869 24.1765L29.5267 20.451L36.7971 16.7065C36.8619 16.6725 36.8547 16.6431 36.7814 16.6431Z"
    fill="#EE7D00"
  />
  <path
    fill-rule="evenodd"
    clip-rule="evenodd"
    d="M39.8321 16.6431H38.4056C38.3317 16.6431 38.2192 16.6725 38.1518 16.7065L31.003 20.3908C30.9357 20.4222 30.9357 20.485 30.9965 20.5262L36.5429 24.1765C36.603 24.2157 36.7155 24.2484 36.7901 24.2484H38.2153C38.2899 24.2484 38.301 24.217 38.2375 24.1765L32.5773 20.451L39.8472 16.7065C39.9132 16.6725 39.9073 16.6431 39.8321 16.6431Z"
    fill="#FAB900"
  />
</svg>
