<svg viewBox="0 0 40 40" xmlns="http://www.w3.org/2000/svg">
  <path
    fill-rule="evenodd"
    clip-rule="evenodd"
    d="M7.7197 24.5056H4.14093V21.8787H7.7197C8.68408 21.8787 9.33554 22.4653 9.33554 23.1921C9.33554 23.9179 8.68408 24.5056 7.7197 24.5056ZM10.1842 20.8539C11.0336 20.5018 11.7368 19.7102 11.7368 18.3958C11.7368 16.4384 10.0581 15.251 8.03344 15.251H1.77751C1.71623 15.251 1.6665 15.3012 1.6665 15.3615V17.1421C1.6665 17.2018 1.71623 17.2531 1.77751 17.2531H7.59897C8.53874 17.2531 9.17413 17.8262 9.17413 18.5324C9.17413 19.2406 8.53874 19.8132 7.59897 19.8132H4.14075V18.4932C4.14075 18.4319 4.09052 18.3832 4.02924 18.3832H1.77751C1.71623 18.3832 1.6665 18.4319 1.6665 18.4932V26.3454C1.6665 26.4072 1.71623 26.4579 1.77751 26.4579H7.94203C10.2465 26.4579 11.8975 25.3825 11.8975 23.1921C11.8975 22.1147 11.2621 21.2231 10.1842 20.8539ZM36.0467 17.2528H36.9895C37.0493 17.2528 37.099 17.2015 37.099 17.1418V15.3612C37.099 15.3009 37.0493 15.2512 36.9895 15.2512H35.664C34.1325 15.2512 33.3213 15.7399 32.8572 16.7811L29.9771 23.8352C29.8033 24.2571 29.5512 24.4565 29.0549 24.4565V15.3612C29.0549 15.3009 29.0047 15.2512 28.9434 15.2512H26.8278C26.766 15.2512 26.7163 15.3009 26.7163 15.3612V26.2617C26.7163 26.3687 26.8042 26.4576 26.9132 26.4576H29.2865C30.818 26.4576 31.5161 25.9684 31.9802 24.9286L34.8222 17.963C35.0502 17.4677 35.3797 17.2528 36.0467 17.2528ZM34.6074 21.6887L38.2369 26.3278C38.2811 26.3861 38.2485 26.4579 38.1746 26.4579H35.619C35.4292 26.4579 35.3016 26.4012 35.1906 26.2525L33.6039 24.1258C33.5943 24.1133 33.5943 24.0967 33.6003 24.0826L34.5768 21.6938C34.5828 21.6772 34.5979 21.6742 34.6074 21.6887ZM15.87 18.3832H13.7529C13.6901 18.3832 13.6414 18.4324 13.6414 18.4937V26.3459C13.6414 26.4077 13.6901 26.4579 13.7529 26.4579H15.87C15.9318 26.4579 15.9825 26.4077 15.9825 26.3459V18.4937C15.9825 18.4324 15.9318 18.3832 15.87 18.3832ZM22.4674 15.251H24.584C24.6448 15.251 24.6955 15.3012 24.6955 15.3615V26.2616C24.6955 26.369 24.6066 26.4579 24.4986 26.4579H22.1253C20.5933 26.4579 19.8947 25.9682 19.4311 24.929L16.5897 17.9628C16.3611 17.4676 16.0336 17.2526 15.3651 17.2526H13.7528C13.69 17.2526 13.6407 17.2019 13.6407 17.1421V15.3615C13.6407 15.3012 13.69 15.251 13.7528 15.251H15.7458C17.2773 15.251 18.0905 15.7402 18.5536 16.781L21.4332 23.8355C21.6075 24.2574 21.8586 24.4563 22.3559 24.4563V15.3615C22.3559 15.3012 22.4056 15.251 22.4674 15.251Z"
    fill="#D61920"
  />
</svg>
