<svg viewBox="0 0 40 40" xmlns="http://www.w3.org/2000/svg">
  <path
    fill-rule="evenodd"
    clip-rule="evenodd"
    d="M10.5497 2.21697C9.56366 2.70933 8.82908 3.55644 8.48192 4.60221L1.88027 24.4428C1.53047 25.4853 1.61231 26.6073 2.10863 27.5976C2.60198 28.5767 3.44975 29.3133 4.49189 29.6617L26.1415 36.9303C27.1913 37.2788 28.3119 37.1993 29.2967 36.7049C30.2824 36.207 31.0186 35.3645 31.3615 34.3157L37.9661 14.4811C38.6891 12.3206 37.5133 9.97626 35.3528 9.25653L13.7052 1.98993C12.6534 1.6431 11.54 1.71867 10.5497 2.21697Z"
    fill="#FEFEFE"
  />
  <path
    fill-rule="evenodd"
    clip-rule="evenodd"
    d="M10.9558 25.2434H12.4477V14.9368H10.9558V25.2434ZM21.1324 21.2718C19.9566 22.5839 18.4904 23.6425 16.7909 24.2989L15.8138 24.6774V15.4849L16.779 15.8588C18.4808 16.5086 19.9507 17.5675 21.1324 18.8734C21.9736 17.5197 22.496 15.9492 22.6032 14.2411C22.8705 9.83432 20.1104 5.7905 16.319 4.38305L13.1913 3.34223C11.7799 2.87198 10.2774 3.65045 9.81174 5.0579L3.19128 24.9097C2.72103 26.3228 3.51303 27.8556 4.92609 28.3203L19.9507 33.3366C21.4825 31.7077 22.4762 29.5495 22.6214 27.1422C22.754 24.9942 22.194 22.969 21.1324 21.2718Z"
    fill="#198FCA"
  />
  <path
    fill-rule="evenodd"
    clip-rule="evenodd"
    d="M20.2656 20.0727C19.4268 19.0893 18.4127 18.2629 17.2418 17.6577V22.5021C18.4127 21.8956 19.4324 21.0594 20.2656 20.0727Z"
    fill="#E95705"
  />
  <path
    fill-rule="evenodd"
    clip-rule="evenodd"
    d="M31.2197 25.2105L29.3571 25.2158L25.5255 20.0615L29.4175 14.9089L31.2962 14.9016L27.3953 20.0691L31.2197 25.2105ZM34.8723 10.5809L21.0842 5.97314C22.9362 8.00033 24.0694 10.6938 24.0747 13.6437C24.0777 15.9754 23.3507 18.2059 22.0854 20.0727C23.3553 21.9339 24.0866 24.1627 24.0928 26.4945C24.0938 29.2797 23.0929 31.8458 21.4264 33.8327L26.6045 35.5609C28.0205 36.0319 29.5154 35.2534 29.9863 33.8416L36.6101 13.9918C37.079 12.5811 36.2863 11.0495 34.8723 10.5809Z"
    fill="#015198"
  />
</svg>
