<svg viewBox="0 0 40 40" xmlns="http://www.w3.org/2000/svg">
  <path
    fill-rule="evenodd"
    clip-rule="evenodd"
    d="M1.84595 24.023C1.84595 29.9757 6.67199 34.8041 12.627 34.8041C14.5329 34.8041 16.3233 34.3041 17.8795 33.4401V26.4788C16.9673 27.6718 15.5313 28.4448 13.9126 28.4448C11.1586 28.4448 8.92757 26.2114 8.92757 23.4574C8.92757 22.1567 9.42995 20.966 10.2504 20.076C9.39197 18.496 8.90383 16.6914 8.90383 14.7658C8.90383 14.4754 8.91728 14.1756 8.93864 13.8876C4.80249 15.3923 1.84595 19.3616 1.84595 24.023Z"
    fill="url(#paint0_linear_2_213)"
  />
  <path
    fill-rule="evenodd"
    clip-rule="evenodd"
    d="M8.90405 14.7658C8.90405 16.6915 9.39219 18.4961 10.2506 20.076C11.1612 19.0879 12.4635 18.4723 13.9128 18.4723C14.4738 18.4723 15.0165 18.5665 15.5213 18.7397C14.9611 17.89 14.6344 16.8703 14.6344 15.7808C14.6344 12.8124 17.0411 10.4057 20.0095 10.4057C22.1757 10.4057 24.042 11.6866 24.8933 13.5324C25.6947 13.3401 26.5318 13.2404 27.3902 13.2404C28.6861 13.2404 29.929 13.4667 31.0785 13.8876C30.6268 8.16835 25.845 3.66589 20.0071 3.66589C13.8733 3.66589 8.90405 8.6383 8.90405 14.7658Z"
    fill="url(#paint1_linear_2_213)"
  />
  <path
    fill-rule="evenodd"
    clip-rule="evenodd"
    d="M24.8929 13.5323C25.2062 14.2158 25.385 14.9769 25.385 15.7808C25.385 16.8702 25.0567 17.89 24.4966 18.7373C25.0021 18.5664 25.5409 18.4723 26.105 18.4723C28.8566 18.4723 31.09 20.7049 31.09 23.4573C31.09 26.2113 28.8566 28.4448 26.105 28.4448C24.4886 28.4448 23.0511 27.6757 22.1389 26.4811V33.4401C23.6927 34.304 25.4831 34.804 27.3898 34.804C33.344 34.804 38.1724 29.9756 38.1724 24.023C38.1724 18.0672 33.344 13.2404 27.3898 13.2404C26.5314 13.2404 25.6944 13.34 24.8929 13.5323Z"
    fill="url(#paint2_linear_2_213)"
  />
  <defs>
    <linearGradient
      id="paint0_linear_2_213"
      x1="0.911301"
      y1="18.0558"
      x2="10.4009"
      y2="32.2479"
      gradientUnits="userSpaceOnUse"
    >
      <stop stop-color="#0070BC" />
      <stop offset="1" stop-color="#53C3F2" />
    </linearGradient>
    <linearGradient
      id="paint1_linear_2_213"
      x1="32.3101"
      y1="7.36441"
      x2="22.0379"
      y2="-0.109649"
      gradientUnits="userSpaceOnUse"
    >
      <stop stop-color="#0070BC" />
      <stop offset="1" stop-color="#53C3F2" />
    </linearGradient>
    <linearGradient
      id="paint2_linear_2_213"
      x1="33.2527"
      y1="18.4443"
      x2="21.4406"
      y2="24.6997"
      gradientUnits="userSpaceOnUse"
    >
      <stop stop-color="#53C3F2" />
      <stop offset="1" stop-color="#0070BC" />
    </linearGradient>
  </defs>
</svg>
