<svg viewBox="0 0 285 25" xmlns="http://www.w3.org/2000/svg">
  <path
    d="M272.661 24.5278V0.839844H277.785V10.0518H279.045V0.839844H284.169V24.5278H279.045V14.8118H277.785V24.5278H272.661ZM269.609 24.5278H264.009C265.045 17.8918 265.773 12.1798 265.941 5.17984H260.789V0.839844H271.569C271.401 9.43584 270.897 16.2958 269.609 24.5278Z"
    fill="#7B57F1"
  />
  <path
    d="M252.65 24.5278V0.839844H258.25V24.5278H252.65ZM234.59 24.5278L237.838 5.17984H234.87V0.839844H251.11V5.17984H248.142L251.39 24.5278H245.65L242.99 5.71184L240.33 24.5278H234.59Z"
    fill="#7B57F1"
  />
  <path
    d="M209.09 12.8238V0.839844H232.33V12.8238H209.09ZM220.71 12.5438C220.71 9.79985 224.294 6.97185 231.294 6.83185C224.294 6.69185 220.71 3.89184 220.71 1.11984C220.71 3.89184 217.098 6.69185 210.098 6.83185C217.098 6.97185 220.71 9.79985 220.71 12.5438ZM209.09 18.4518V14.1118H232.33V18.4518H223.65V24.5278H217.77V18.4518H209.09Z"
    fill="#7B57F1"
  />
  <path d="M184.543 14.532V10.332H193.839V14.532H184.543Z" fill="#7B57F1" />
  <path
    d="M163.677 5.17984H162.529L162.893 10.0518H164.825V0.839844H169.697V24.5278H164.825V14.8118H163.229L163.957 24.5278H159.085L158.077 5.15184L157.069 24.5278H152.197L153.625 5.17984H152.197V0.839844H163.677V5.17984ZM170.705 24.5278V0.839844H175.577V24.5278H170.705Z"
    fill="#7B57F1"
  />
  <path
    d="M126.418 5.17984V0.839844H149.658V5.17984H144.142L149.658 12.9358H143.218L138.038 5.15184L132.858 12.9358H126.418L131.934 5.17984H126.418ZM126.418 18.4518V14.1118H149.658V18.4518H140.978V24.5278H135.098V18.4518H126.418Z"
    fill="#7B57F1"
  />
  <path
    d="M93.793 6.3V1.96H99.029V0H104.909V1.96H110.033V6.3H107.065L110.033 24.528H104.293L101.913 6.832L99.533 24.528H93.793L96.761 6.3H93.793ZM111.013 24.528V0.839999H116.613V9.212H119.133V13.972H116.613V24.528H111.013Z"
    fill="#7B57F1"
  />
  <path
    d="M68.2949 5.17984V0.839844H91.5349V5.17984H86.0189L91.5349 12.9358H85.0949L79.9149 5.15184L74.7349 12.9358H68.2949L73.8109 5.17984H68.2949ZM68.2949 18.4518V14.1118H91.5349V18.4518H82.8549V24.5278H76.9749V18.4518H68.2949Z"
    fill="#7B57F1"
  />
  <path d="M62.7936 24.5278H57.1936V6.43985L52.6016 9.04384V4.56384L58.5936 0.839844H62.7936V24.5278Z" fill="#7B57F1" />
  <path
    d="M36.7759 4.03185C36.7759 6.27184 35.4599 7.30784 33.4999 7.30784H23.5319C21.5719 7.30784 20.2559 6.27184 20.2559 4.03185C20.2559 1.79185 21.5719 0.839844 23.5319 0.839844H33.4999C35.4599 0.839844 36.7759 1.79185 36.7759 4.03185ZM32.4359 14.3078V11.4238H38.0359V0.839844H43.6359V14.3078H32.4359ZM28.5159 1.87584C28.3759 3.52784 25.7719 4.00385 22.6359 4.03185C25.7719 4.08784 28.3759 4.61984 28.5159 6.27184C28.6559 4.61984 31.2319 4.05984 34.3679 4.00385C31.2319 3.97585 28.6559 3.52784 28.5159 1.87584ZM20.3959 10.9198V7.83984H36.9159V10.9198H31.4559V14.3078H25.5759V10.9198H20.3959ZM20.3959 17.7238V14.7278H43.6359V19.9358C37.8679 20.7478 32.8279 21.0558 25.9959 21.0558V21.5318C32.8279 21.5318 37.9519 21.2518 43.7759 20.4118V24.5278H20.3959V18.1718H38.0359V17.7238H20.3959Z"
    fill="#7B57F1"
  />
  <path
    d="M8.988 24.9761C3.584 24.9761 0 21.6721 0 17.3041V7.56008C0 3.24808 3.724 0.476074 8.848 0.476074C14.196 0.476074 17.416 3.36008 17.416 7.16808V7.30807H11.928V7.16808C11.928 5.85208 10.64 4.95608 8.848 4.95608C7 4.95608 5.488 5.88008 5.488 7.42008V9.74408C6.188 9.40808 7.924 9.12808 8.988 9.12808C14.112 9.12808 17.976 11.9001 17.976 15.9881V17.3041C17.976 21.6721 14.392 24.9761 8.988 24.9761ZM8.988 23.6041C9.1 18.7041 11.676 17.0801 16.548 16.9961C11.676 16.9121 9.1 15.0641 8.988 10.3601C8.848 15.0641 6.272 16.9401 1.428 17.0241C6.272 17.1081 8.848 18.7041 8.988 23.6041Z"
    fill="#7B57F1"
  />
</svg>
