<svg viewBox="0 0 12 12" fill="none" xmlns="http://www.w3.org/2000/svg">
  <g id="help-line">
    <path
      id="Vector"
      d="M1.5 6C1.5 6.59095 1.6164 7.17611 1.84254 7.72208C2.06869 8.26804 2.40016 8.76412 2.81802 9.18198C3.23588 9.59984 3.73196 9.93131 4.27792 10.1575C4.82389 10.3836 5.40905 10.5 6 10.5C6.59095 10.5 7.17611 10.3836 7.72208 10.1575C8.26804 9.93131 8.76412 9.59984 9.18198 9.18198C9.59984 8.76412 9.93131 8.26804 10.1575 7.72208C10.3836 7.17611 10.5 6.59095 10.5 6C10.5 4.80653 10.0259 3.66193 9.18198 2.81802C8.33807 1.97411 7.19347 1.5 6 1.5C4.80653 1.5 3.66193 1.97411 2.81802 2.81802C1.97411 3.66193 1.5 4.80653 1.5 6Z"
      stroke="currentColor"
      stroke-linecap="round"
      stroke-linejoin="round"
    />
    <path
      id="?"
      d="M5.86006 8.57978C5.72406 8.57978 5.61006 8.53378 5.51806 8.44178C5.43006 8.35378 5.38606 8.24178 5.38606 8.10578C5.38606 7.96578 5.43006 7.85178 5.51806 7.76378C5.61006 7.67578 5.72406 7.63178 5.86006 7.63178C6.00006 7.63178 6.11406 7.67578 6.20206 7.76378C6.29006 7.85178 6.33406 7.96578 6.33406 8.10578C6.33406 8.24178 6.29006 8.35378 6.20206 8.44178C6.11406 8.53378 6.00006 8.57978 5.86006 8.57978ZM5.38606 7.01978C5.38206 6.79578 5.40206 6.59978 5.44606 6.43178C5.49406 6.25978 5.56806 6.10578 5.66806 5.96978C5.76806 5.83378 5.90006 5.70578 6.06406 5.58578C6.26006 5.44178 6.39006 5.32378 6.45406 5.23178C6.51806 5.13578 6.55406 5.02778 6.56206 4.90778C6.57006 4.73978 6.51606 4.60378 6.40006 4.49978C6.28406 4.39178 6.13206 4.33778 5.94406 4.33778C5.80006 4.33778 5.66406 4.38578 5.53606 4.48178C5.41206 4.57378 5.32206 4.69578 5.26606 4.84778L4.41406 4.52378C4.53406 4.20378 4.73606 3.94178 5.02006 3.73778C5.30806 3.52978 5.61606 3.42578 5.94406 3.42578C6.25606 3.42578 6.53006 3.49178 6.76606 3.62378C7.00206 3.75178 7.18206 3.93178 7.30606 4.16378C7.43006 4.39578 7.48606 4.65978 7.47406 4.95578C7.46206 5.19578 7.38606 5.42778 7.24606 5.65178C7.11006 5.87578 6.89606 6.09778 6.60406 6.31778C6.50806 6.38978 6.43806 6.45178 6.39406 6.50378C6.35406 6.55178 6.32606 6.61178 6.31006 6.68378C6.29806 6.75578 6.29406 6.86378 6.29806 7.00778L5.38606 7.01978Z"
      fill="currentColor"
    />
  </g>
</svg>
