<svg viewBox="0 0 22 29" xmlns="http://www.w3.org/2000/svg" fill="currentColor">
  <path
    d="M18.9987 9.66634H17.6654V6.99967C17.6654 3.31967 14.6787 0.333008 10.9987 0.333008C7.3187 0.333008 4.33203 3.31967 4.33203 6.99967V9.66634H2.9987C1.53203 9.66634 0.332031 10.8663 0.332031 12.333V25.6663C0.332031 27.133 1.53203 28.333 2.9987 28.333H18.9987C20.4654 28.333 21.6654 27.133 21.6654 25.6663V12.333C21.6654 10.8663 20.4654 9.66634 18.9987 9.66634ZM10.9987 21.6663C9.53203 21.6663 8.33203 20.4663 8.33203 18.9997C8.33203 17.533 9.53203 16.333 10.9987 16.333C12.4654 16.333 13.6654 17.533 13.6654 18.9997C13.6654 20.4663 12.4654 21.6663 10.9987 21.6663ZM15.132 9.66634H6.86536V6.99967C6.86536 4.71967 8.7187 2.86634 10.9987 2.86634C13.2787 2.86634 15.132 4.71967 15.132 6.99967V9.66634Z"
  />
</svg>
