<svg xmlns="http://www.w3.org/2000/svg" viewBox="0 0 78 20" fill="none">
  <path
    d="M67.7709 4.67186L66.1293 14.9604C66.1231 14.9982 66.1254 15.0369 66.1358 15.0737C66.1462 15.1106 66.1645 15.1447 66.1896 15.1737C66.2146 15.2027 66.2457 15.2259 66.2806 15.2417C66.3156 15.2574 66.3536 15.2654 66.392 15.2649H68.3347C68.4032 15.2655 68.4697 15.2416 68.5221 15.1975C68.5745 15.1534 68.6093 15.092 68.6203 15.0245L70.2619 4.73594C70.268 4.69816 70.2658 4.6595 70.2554 4.62266C70.245 4.58582 70.2266 4.5517 70.2016 4.52269C70.1766 4.49368 70.1455 4.47048 70.1105 4.45472C70.0755 4.43896 70.0375 4.43102 69.9992 4.43145H68.0565C67.9877 4.43009 67.9208 4.45374 67.8683 4.49798C67.8157 4.54222 67.7811 4.60403 67.7709 4.67186ZM65.6964 7.67431H63.8531C63.7846 7.67364 63.7182 7.69749 63.6659 7.74153C63.6135 7.78557 63.5788 7.84688 63.5679 7.91431L63.5069 8.29308C63.5069 8.29308 62.0753 6.74451 59.5405 7.79104C58.0863 8.39023 57.3883 9.62819 57.0912 10.5351C57.0912 10.5351 56.1485 13.2915 58.2807 14.8086C58.2807 14.8086 60.2578 16.2678 62.484 14.7188L62.4456 14.9604C62.4367 15.0172 62.4466 15.0753 62.474 15.1259C62.5013 15.1764 62.5445 15.2167 62.597 15.2404C62.6317 15.2568 62.6698 15.2649 62.7083 15.2649H64.5528C64.6215 15.2663 64.6884 15.2426 64.741 15.1984C64.7935 15.1542 64.8281 15.0923 64.8384 15.0245L65.9603 7.9788C65.9666 7.94106 65.9644 7.9024 65.9538 7.86562C65.9433 7.82884 65.9247 7.79486 65.8993 7.76615C65.8743 7.73688 65.8432 7.71345 65.8081 7.69751C65.7731 7.68157 65.7349 7.67392 65.6964 7.67431ZM62.984 11.5682C62.9121 12.0605 62.6626 12.5096 62.2823 12.8315C61.9004 13.1544 61.4143 13.3288 60.9137 13.3225C60.7173 13.3247 60.5218 13.2964 60.3343 13.2384C59.5385 12.9853 59.0843 12.2286 59.2148 11.4082C59.2873 10.9162 59.5371 10.4673 59.9173 10.1457C60.2989 9.82258 60.7846 9.64764 61.2852 9.65308C61.4816 9.65106 61.6771 9.6797 61.8646 9.73798C62.6653 9.98941 63.1174 10.7474 62.9861 11.5686H62.984V11.5682ZM53.1412 11.7629C54.1407 11.7629 55.1076 11.4086 55.867 10.7645C56.6248 10.1226 57.1266 9.23073 57.2811 8.25104C57.6039 6.21308 55.9963 4.43431 53.7173 4.43431H50.0458C49.9773 4.43365 49.9108 4.45756 49.8585 4.50168C49.8061 4.54581 49.7714 4.60721 49.7606 4.67472L48.1187 14.9633C48.1097 15.0201 48.1197 15.0782 48.1471 15.1287C48.1744 15.1793 48.2176 15.2195 48.27 15.2433C48.3052 15.2596 48.3429 15.2678 48.3813 15.2678H50.3253C50.3938 15.2684 50.4603 15.2445 50.5126 15.2004C50.565 15.1563 50.5997 15.0949 50.6105 15.0274L51.0925 12.0061C51.1026 11.9382 51.1372 11.8763 51.1897 11.832C51.2423 11.7877 51.3092 11.764 51.3781 11.7653L53.1412 11.7629ZM54.7672 8.15839C54.6473 8.91186 54.0589 9.46655 52.9333 9.46655H51.4943L51.9313 6.72655H53.3445C54.5082 6.72859 54.8871 7.40819 54.7672 8.16043V8.15839Z"
    fill="#0070E0"
  />
  <path
    d="M45.9037 7.84899L43.6803 11.5653L42.5518 7.87634C42.5341 7.81747 42.4978 7.76592 42.4482 7.72948C42.3986 7.69303 42.3384 7.67367 42.2768 7.6743H40.2703C40.2184 7.6736 40.168 7.69164 40.1283 7.72509C40.0887 7.75854 40.0626 7.80516 40.0547 7.85634C40.0498 7.89027 40.0533 7.92489 40.0649 7.95716L42.087 14.171L40.258 17.0992C40.2425 17.1233 40.2321 17.1503 40.2274 17.1786C40.2227 17.2069 40.2238 17.2358 40.2307 17.2636C40.2376 17.2914 40.2501 17.3175 40.2675 17.3404C40.2848 17.3632 40.3067 17.3822 40.3317 17.3963C40.3651 17.4155 40.4031 17.4254 40.4417 17.4249H42.6029C42.6646 17.4251 42.7253 17.4095 42.7791 17.3794C42.833 17.3494 42.8781 17.306 42.9102 17.2535L48.5583 8.00165C48.5788 7.96943 48.59 7.93224 48.5908 7.89411C48.5916 7.85598 48.582 7.81835 48.5628 7.78532C48.5438 7.75217 48.5161 7.72473 48.4828 7.70585C48.4495 7.68697 48.4117 7.67735 48.3734 7.67797H46.213C46.151 7.6774 46.09 7.69286 46.0358 7.72283C45.9815 7.7528 45.936 7.79627 45.9037 7.84899ZM39.1328 7.6743H37.2879C37.2193 7.67364 37.1527 7.6976 37.1003 7.74179C37.0478 7.78599 37.0131 7.8475 37.0023 7.91512L36.9425 8.29348C36.9425 8.29348 35.5097 6.74491 32.9749 7.79144C31.5211 8.39063 30.8227 9.62858 30.5268 10.5355C30.5268 10.5355 29.5833 13.2919 31.7151 14.809C31.7151 14.809 33.6926 16.2682 35.9188 14.7192L35.8804 14.9608C35.8713 15.0176 35.8812 15.0758 35.9086 15.1264C35.9359 15.177 35.9792 15.2172 36.0317 15.2408C36.0665 15.2572 36.1046 15.2653 36.143 15.2653H37.9876C38.056 15.2658 38.1224 15.2418 38.1747 15.1977C38.227 15.1537 38.2618 15.0923 38.2727 15.0249L39.3951 7.9792C39.4042 7.92236 39.3944 7.8641 39.367 7.81342C39.3396 7.76273 39.2963 7.72245 39.2437 7.69879C39.2088 7.68276 39.1712 7.67441 39.1328 7.6743ZM36.42 11.569C36.3474 12.0607 36.0978 12.5091 35.7179 12.8306C35.3362 13.1536 34.8506 13.3284 34.3501 13.3229C34.154 13.325 33.9588 13.2967 33.7715 13.2388C32.9761 12.9857 32.5223 12.229 32.6529 11.4082C32.7256 10.9151 32.9763 10.4654 33.3579 10.1437C33.7409 9.82055 34.2282 9.64644 34.7298 9.65348C34.9262 9.65144 35.1222 9.68001 35.3096 9.73838C36.1021 9.98981 36.5534 10.7474 36.4225 11.569H36.42ZM26.5776 11.7633C27.5755 11.7628 28.5407 11.4085 29.301 10.7637C30.0581 10.1218 30.5593 9.23024 30.7134 8.25103C31.0367 6.21348 29.4286 4.43471 27.1504 4.43471H23.4786C23.41 4.43402 23.3436 4.45786 23.2912 4.50189C23.2388 4.54593 23.2039 4.60724 23.193 4.67471L21.5563 14.9604C21.5472 15.0173 21.557 15.0755 21.5844 15.1262C21.6118 15.1769 21.6551 15.2172 21.7077 15.2408C21.7425 15.2567 21.7805 15.2653 21.819 15.2653H23.7617C23.8303 15.266 23.8969 15.242 23.9493 15.1978C24.0018 15.1536 24.0365 15.0921 24.0473 15.0245L24.5285 12.0033C24.5387 11.9354 24.5733 11.8736 24.6259 11.8294C24.6784 11.7852 24.7453 11.7615 24.8141 11.7629L26.5776 11.7633ZM28.2036 8.15838C28.0837 8.91185 27.4957 9.46654 26.3701 9.46654H24.9311L25.3673 6.72654H26.7805C27.9446 6.72858 28.3231 7.40858 28.2036 8.16042V8.15838Z"
    fill="#003087"
  />
  <path
    d="M14.0184 4.9633C14.0622 2.69147 12.1837 0.948608 9.60066 0.948608H4.25778C4.13328 0.94855 4.01284 0.992845 3.91817 1.07351C3.8235 1.15418 3.76082 1.26592 3.74142 1.38861L1.60066 14.7327C1.59109 14.7932 1.59476 14.855 1.61143 14.9139C1.6281 14.9728 1.65737 15.0274 1.69723 15.074C1.73709 15.1205 1.78659 15.1579 1.84232 15.1835C1.89805 15.2092 1.95869 15.2225 2.02006 15.2225H5.18536L4.69068 18.3123C4.6811 18.3728 4.68477 18.4346 4.70145 18.4935C4.71812 18.5524 4.74739 18.607 4.78725 18.6536C4.82711 18.7001 4.87661 18.7375 4.93234 18.7631C4.98807 18.7888 5.0487 18.8021 5.11007 18.8021H7.68863C7.81302 18.8021 7.9239 18.7576 8.01883 18.6772C8.11294 18.5964 8.12849 18.4849 8.14813 18.3621L8.90508 13.9196C8.92431 13.7972 8.98692 13.638 9.08143 13.5572C9.17595 13.4764 9.2586 13.4323 9.3834 13.4323H10.9611C13.491 13.4323 15.6371 11.6384 16.0295 9.14371C16.3073 7.3731 15.5462 5.76208 14.0184 4.9633Z"
    fill="#001C64"
  />
  <path
    d="M5.87023 10.3013L5.08177 15.2882L4.58668 18.4164C4.57716 18.4768 4.5809 18.5386 4.59762 18.5975C4.61435 18.6564 4.64367 18.711 4.68356 18.7575C4.72346 18.804 4.77299 18.8414 4.82873 18.867C4.88448 18.8925 4.94512 18.9058 5.00649 18.9057H7.73562C7.86001 18.9057 7.98029 18.8613 8.07481 18.7807C8.16932 18.7 8.23187 18.5883 8.25117 18.4657L8.97048 13.9192C8.98987 13.7966 9.05249 13.6849 9.14708 13.6043C9.24166 13.5236 9.362 13.4793 9.48644 13.4792H11.0928C13.6227 13.4792 15.7688 11.6384 16.1616 9.14371C16.4398 7.37309 15.5462 5.76167 14.0184 4.96289C14.0143 5.15146 13.9979 5.33963 13.9688 5.52616C13.5765 8.02003 11.4296 9.86126 8.90051 9.86126H6.38619C6.26172 9.86139 6.14138 9.90582 6.0468 9.98655C5.95222 10.0673 5.88962 10.1786 5.87023 10.3013Z"
    fill="#0070E0"
  />
  <path
    d="M5.08132 15.2881H1.90619C1.84484 15.2881 1.78421 15.2748 1.7285 15.2492C1.67278 15.2236 1.6233 15.1862 1.58348 15.1396C1.54365 15.093 1.51442 15.0384 1.4978 14.9795C1.48118 14.9206 1.47756 14.8588 1.48721 14.7983L3.62796 1.25628C3.64735 1.13367 3.70997 1.02198 3.80456 0.941322C3.89914 0.860662 4.01948 0.816323 4.14392 0.816284H9.60055C12.1836 0.816284 14.0621 2.69139 14.0183 4.96282C13.3755 4.62649 12.6202 4.43424 11.7929 4.43424H7.24375C7.11925 4.43419 6.99881 4.47848 6.90414 4.55915C6.80947 4.63982 6.74679 4.75156 6.72739 4.87424L5.8706 10.3012L5.08091 15.2881H5.08132Z"
    fill="#003087"
  />
</svg>
