<svg viewBox="0 0 32 32" fill="none" xmlns="http://www.w3.org/2000/svg">
  <path
    d="M4 16C4 17.5759 4.31039 19.1363 4.91345 20.5922C5.5165 22.0481 6.40042 23.371 7.51472 24.4853C8.62902 25.5996 9.95189 26.4835 11.4078 27.0866C12.8637 27.6896 14.4241 28 16 28C17.5759 28 19.1363 27.6896 20.5922 27.0866C22.0481 26.4835 23.371 25.5996 24.4853 24.4853C25.5996 23.371 26.4835 22.0481 27.0866 20.5922C27.6896 19.1363 28 17.5759 28 16C28 14.4241 27.6896 12.8637 27.0866 11.4078C26.4835 9.95189 25.5996 8.62902 24.4853 7.51472C23.371 6.40042 22.0481 5.5165 20.5922 4.91345C19.1363 4.31039 17.5759 4 16 4C14.4241 4 12.8637 4.31039 11.4078 4.91345C9.95189 5.5165 8.62902 6.40042 7.51472 7.51472C6.40042 8.62902 5.5165 9.95189 4.91345 11.4078C4.31039 12.8637 4 14.4241 4 16Z"
    stroke="currentColor"
    stroke-width="1.5"
    stroke-linecap="round"
    stroke-linejoin="round"
  />
  <path
    d="M20.5193 18.2113V16.6512H18.9592V15.479H20.5193V13.9189H21.6999V15.479H23.26V16.6512H21.6999V18.2113H20.5193Z"
    fill="currentColor"
  />
  <path
    d="M15.5271 19.1897C14.1947 19.1897 13.2249 18.4139 13.208 17.3261H14.6079C14.6247 17.7814 15.0295 18.0766 15.5271 18.0766C16.1005 18.0766 16.5137 17.6718 16.5053 17.0815C16.5137 16.4828 16.0921 16.078 15.5102 16.078C15.0717 16.078 14.785 16.2467 14.6163 16.5755H13.3261L13.6297 13H17.5341V14.1637H14.8103L14.6669 15.6226H14.7091C14.9199 15.2853 15.3921 15.0492 15.9656 15.0492C17.0787 15.0492 17.8967 15.8756 17.8967 17.0394C17.8967 18.2958 16.9438 19.1897 15.5271 19.1897Z"
    fill="currentColor"
  />
  <path d="M11.8503 13V19.1054H10.4083V14.3493H10.3746L9 15.1925V13.9445L10.5095 13H11.8503Z" fill="currentColor" />
</svg>
