<svg viewBox="0 0 116 130" fill="none" xmlns="http://www.w3.org/2000/svg">
  <rect width="116" height="130" fill="#E2E2E2" />
  <rect x="3.80078" y="3.88281" width="34.7" height="12" fill="white" />
  <rect x="40.5" y="3.88281" width="34.7" height="12" fill="white" />
  <rect x="77.1992" y="3.88281" width="34.7" height="12" fill="white" />
  <rect x="3.80078" y="17.8828" width="34.7" height="12" fill="white" />
  <rect x="40.5" y="17.8828" width="34.7" height="12" fill="white" />
  <rect x="77.1992" y="17.8828" width="34.7" height="12" fill="white" />
  <rect x="3.80078" y="31.8828" width="34.7" height="12" fill="white" />
  <rect x="40.5" y="31.8828" width="34.7" height="12" fill="white" />
  <rect x="77.1992" y="31.8828" width="34.7" height="12" fill="white" />
  <rect x="3.80078" y="45.8828" width="34.7" height="12" fill="white" />
  <rect x="40.5" y="45.8828" width="34.7" height="12" fill="white" />
  <rect x="77.1992" y="45.8828" width="34.7" height="12" fill="white" />
  <rect x="3.80078" y="59.8828" width="34.7" height="12" fill="white" />
  <rect x="40.5" y="59.8828" width="34.7" height="12" fill="white" />
  <rect x="77.1992" y="59.8828" width="34.7" height="12" fill="white" />
  <rect x="3.80078" y="73.8828" width="34.7" height="12" fill="white" />
  <rect x="40.5" y="73.8828" width="34.7" height="12" fill="white" />
  <rect x="77.1992" y="73.8828" width="34.7" height="12" fill="white" />
  <rect x="3.80078" y="87.8828" width="34.7" height="12" fill="white" />
  <rect x="40.5" y="87.8828" width="34.7" height="12" fill="white" />
  <rect x="77.1992" y="87.8828" width="34.7" height="12" fill="white" />
  <rect x="3.80078" y="101.883" width="34.7" height="12" fill="white" />
  <rect x="40.5" y="101.883" width="34.7" height="12" fill="white" />
  <rect x="77.1992" y="101.883" width="34.7" height="12" fill="white" />
  <rect x="3.69922" y="115.883" width="35.1" height="12" fill="white" />
  <rect x="40.3008" y="115.883" width="35.1" height="12" fill="white" />
  <rect x="76.8984" y="115.883" width="35.1" height="12" fill="white" />
</svg>
