<svg viewBox="0 0 116 130" fill="none" xmlns="http://www.w3.org/2000/svg">
  <rect width="116" height="129.92" transform="translate(0 0.0390625)" fill="#E2E2E2" />
  <rect x="3.75" y="4.03906" width="20.5" height="8.16" fill="white" />
  <rect x="25.75" y="4.03906" width="20.5" height="8.16" fill="white" />
  <rect x="47.75" y="4.03906" width="20.5" height="8.16" fill="white" />
  <rect x="69.75" y="4.03906" width="20.5" height="8.16" fill="white" />
  <rect x="91.75" y="4.03906" width="20.5" height="8.16" fill="white" />
  <rect x="3.75" y="13.6953" width="20.5" height="8.16" fill="white" />
  <rect x="25.75" y="13.6953" width="20.5" height="8.16" fill="white" />
  <rect x="47.75" y="13.6953" width="20.5" height="8.16" fill="white" />
  <rect x="69.75" y="13.6953" width="20.5" height="8.16" fill="white" />
  <rect x="91.75" y="13.6953" width="20.5" height="8.16" fill="white" />
  <rect x="3.75" y="23.3594" width="20.5" height="8.16" fill="white" />
  <rect x="25.75" y="23.3594" width="20.5" height="8.16" fill="white" />
  <rect x="47.75" y="23.3594" width="20.5" height="8.16" fill="white" />
  <rect x="69.75" y="23.3594" width="20.5" height="8.16" fill="white" />
  <rect x="91.75" y="23.3594" width="20.5" height="8.16" fill="white" />
  <rect x="3.75" y="33.0156" width="20.5" height="8.16" fill="white" />
  <rect x="25.75" y="33.0156" width="20.5" height="8.16" fill="white" />
  <rect x="47.75" y="33.0156" width="20.5" height="8.16" fill="white" />
  <rect x="69.75" y="33.0156" width="20.5" height="8.16" fill="white" />
  <rect x="91.75" y="33.0156" width="20.5" height="8.16" fill="white" />
  <rect x="3.75" y="42.6797" width="20.5" height="8.16" fill="white" />
  <rect x="25.75" y="42.6797" width="20.5" height="8.16" fill="white" />
  <rect x="47.75" y="42.6797" width="20.5" height="8.16" fill="white" />
  <rect x="69.75" y="42.6797" width="20.5" height="8.16" fill="white" />
  <rect x="91.75" y="42.6797" width="20.5" height="8.16" fill="white" />
  <rect x="3.75" y="52.3359" width="20.5" height="8.16" fill="white" />
  <rect x="25.75" y="52.3359" width="20.5" height="8.16" fill="white" />
  <rect x="47.75" y="52.3359" width="20.5" height="8.16" fill="white" />
  <rect x="69.75" y="52.3359" width="20.5" height="8.16" fill="white" />
  <rect x="91.75" y="52.3359" width="20.5" height="8.16" fill="white" />
  <rect x="3.75" y="62" width="20.5" height="8.16" fill="white" />
  <rect x="25.75" y="62" width="20.5" height="8.16" fill="white" />
  <rect x="47.75" y="62" width="20.5" height="8.16" fill="white" />
  <rect x="69.75" y="62" width="20.5" height="8.16" fill="white" />
  <rect x="91.75" y="62" width="20.5" height="8.16" fill="white" />
  <rect x="3.75" y="71.6562" width="20.5" height="8.16" fill="white" />
  <rect x="25.75" y="71.6562" width="20.5" height="8.16" fill="white" />
  <rect x="47.75" y="71.6562" width="20.5" height="8.16" fill="white" />
  <rect x="69.75" y="71.6562" width="20.5" height="8.16" fill="white" />
  <rect x="91.75" y="71.6562" width="20.5" height="8.16" fill="white" />
  <rect x="3.75" y="81.3203" width="20.5" height="8.16" fill="white" />
  <rect x="25.75" y="81.3203" width="20.5" height="8.16" fill="white" />
  <rect x="47.75" y="81.3203" width="20.5" height="8.16" fill="white" />
  <rect x="69.75" y="81.3203" width="20.5" height="8.16" fill="white" />
  <rect x="91.75" y="81.3203" width="20.5" height="8.16" fill="white" />
  <rect x="3.75" y="90.9766" width="20.5" height="8.16" fill="white" />
  <rect x="25.75" y="90.9766" width="20.5" height="8.16" fill="white" />
  <rect x="47.75" y="90.9766" width="20.5" height="8.16" fill="white" />
  <rect x="69.75" y="90.9766" width="20.5" height="8.16" fill="white" />
  <rect x="91.75" y="90.9766" width="20.5" height="8.16" fill="white" />
  <rect x="3.75" y="100.641" width="20.5" height="8.16" fill="white" />
  <rect x="25.75" y="100.641" width="20.5" height="8.16" fill="white" />
  <rect x="47.75" y="100.641" width="20.5" height="8.16" fill="white" />
  <rect x="69.75" y="100.641" width="20.5" height="8.16" fill="white" />
  <rect x="91.75" y="100.641" width="20.5" height="8.16" fill="white" />
  <rect x="3.75" y="110.297" width="20.5" height="8.16" fill="white" />
  <rect x="25.75" y="110.297" width="20.5" height="8.16" fill="white" />
  <rect x="47.75" y="110.297" width="20.5" height="8.16" fill="white" />
  <rect x="69.75" y="110.297" width="20.5" height="8.16" fill="white" />
  <rect x="91.75" y="110.297" width="20.5" height="8.16" fill="white" />
  <rect x="3.75" y="119.961" width="20.5" height="8" fill="white" />
  <rect x="25.75" y="119.961" width="20.5" height="8" fill="white" />
  <rect x="47.75" y="119.961" width="20.5" height="8" fill="white" />
  <rect x="69.75" y="119.961" width="20.5" height="8" fill="white" />
  <rect x="91.75" y="119.961" width="20.5" height="8" fill="white" />
</svg>
