<svg viewBox="0 0 116 130" fill="none" xmlns="http://www.w3.org/2000/svg">
  <rect width="116" height="130" fill="#E2E2E2" />
  <rect x="3.69922" y="4" width="25.6" height="11.05" fill="white" />
  <rect x="31.2656" y="4" width="25.6" height="11.05" fill="white" />
  <rect x="58.832" y="4" width="25.6" height="11.05" fill="white" />
  <rect x="86.3984" y="4" width="25.6" height="11.05" fill="white" />
  <rect x="3.69922" y="16.5469" width="25.6" height="11.05" fill="white" />
  <rect x="31.2656" y="16.5469" width="25.6" height="11.05" fill="white" />
  <rect x="58.832" y="16.5469" width="25.6" height="11.05" fill="white" />
  <rect x="86.3984" y="16.5469" width="25.6" height="11.05" fill="white" />
  <rect x="3.69922" y="29.1016" width="25.6" height="11.05" fill="white" />
  <rect x="31.2656" y="29.1016" width="25.6" height="11.05" fill="white" />
  <rect x="58.832" y="29.1016" width="25.6" height="11.05" fill="white" />
  <rect x="86.3984" y="29.1016" width="25.6" height="11.05" fill="white" />
  <rect x="3.69922" y="41.6484" width="25.6" height="11.05" fill="white" />
  <rect x="31.2656" y="41.6484" width="25.6" height="11.05" fill="white" />
  <rect x="58.832" y="41.6484" width="25.6" height="11.05" fill="white" />
  <rect x="86.3984" y="41.6484" width="25.6" height="11.05" fill="white" />
  <rect x="3.69922" y="54.2031" width="25.6" height="11.05" fill="white" />
  <rect x="31.2656" y="54.2031" width="25.6" height="11.05" fill="white" />
  <rect x="58.832" y="54.2031" width="25.6" height="11.05" fill="white" />
  <rect x="86.3984" y="54.2031" width="25.6" height="11.05" fill="white" />
  <rect x="3.69922" y="66.75" width="25.6" height="11.05" fill="white" />
  <rect x="31.2656" y="66.75" width="25.6" height="11.05" fill="white" />
  <rect x="58.832" y="66.75" width="25.6" height="11.05" fill="white" />
  <rect x="86.3984" y="66.75" width="25.6" height="11.05" fill="white" />
  <rect x="3.69922" y="79.2969" width="25.6" height="11.05" fill="white" />
  <rect x="31.2656" y="79.2969" width="25.6" height="11.05" fill="white" />
  <rect x="58.832" y="79.2969" width="25.6" height="11.05" fill="white" />
  <rect x="86.3984" y="79.2969" width="25.6" height="11.05" fill="white" />
  <rect x="3.69922" y="91.8516" width="25.6" height="11.05" fill="white" />
  <rect x="31.2656" y="91.8516" width="25.6" height="11.05" fill="white" />
  <rect x="58.832" y="91.8516" width="25.6" height="11.05" fill="white" />
  <rect x="86.3984" y="91.8516" width="25.6" height="11.05" fill="white" />
  <rect x="3.69922" y="104.398" width="25.6" height="11.05" fill="white" />
  <rect x="31.2656" y="104.398" width="25.6" height="11.05" fill="white" />
  <rect x="58.832" y="104.398" width="25.6" height="11.05" fill="white" />
  <rect x="86.3984" y="104.398" width="25.6" height="11.05" fill="white" />
  <rect x="3.69922" y="116.953" width="25.6" height="11.05" fill="white" />
  <rect x="31.2656" y="116.953" width="25.6" height="11.05" fill="white" />
  <rect x="58.832" y="116.953" width="25.6" height="11.05" fill="white" />
  <rect x="86.3984" y="116.953" width="25.6" height="11.05" fill="white" />
</svg>
