<svg xmlns="http://www.w3.org/2000/svg" viewBox="0 0 24 24">
  <path
    fill="currentColor"
    fill-rule="evenodd"
    d="M9.6 4c-.3 0-.6.1-.8.2-.3.1-.5.2-.7.4-.2.2-.3.4-.4.6-.1.3-.2.6-.2.8 0 .3.1.5.2.8.1.2.3.5.4.7.2.2.4.3.7.4.2.1.5.2.8.2.3 0 .5-.1.8-.2.1 0 .2-.1.3-.1 0 .3-.1.6-.3.8-.2.3-.4.4-.7.4h-.1c-.5 0-.8-.1-.9-.3-.1 0-.2-.1-.2-.1-.2-.3-.5-.4-.8-.2-.2.1-.3.4-.1.6l.4-.2-.4.2.1.1c.1.1.2.2.4.3.3.4.8.6 1.5.6h.1c.7 0 1.2-.4 1.5-.8.3-.5.4-1 .4-1.6V4.5c0-.3-.2-.5-.5-.5-.2 0-.4.1-.5.3-.1-.1-.2-.1-.3-.2-.2 0-.5-.1-.7-.1zm-.5 1.1c.2-.1.3-.1.5-.1.1 0 .2 0 .4.1.1.1.2.1.3.2.1.1.2.2.2.3.1.1.1.3.1.4 0 .1 0 .3-.1.4-.1.1-.1.2-.2.3L10 7c-.2 0-.3.1-.4.1-.2 0-.3-.1-.5-.1-.1-.1-.2-.2-.3-.2-.1-.1-.2-.3-.2-.4-.1-.1-.1-.2-.1-.4 0-.1 0-.3.1-.4.1-.1.1-.2.2-.3.1-.1.2-.2.3-.2zM14.4 4c-.5 0-1.1.2-1.5.6-.3.4-.5.9-.5 1.4s.2 1.1.6 1.4c.4.4.9.6 1.5.6.4 0 .8-.1 1.1-.3.1.2.3.3.5.3.3 0 .5-.2.5-.5v-3c-.1-.3-.3-.5-.6-.5-.2 0-.4.1-.5.3-.3-.2-.7-.3-1.1-.3zm-.7 1.3c.2-.2.5-.3.7-.3.3 0 .6.1.7.3.2.2.3.5.3.7 0 .3-.1.5-.3.7-.2.2-.5.3-.7.3-.3 0-.6-.1-.7-.3-.2-.2-.3-.5-.3-.7 0-.2.1-.5.3-.7z"
    clip-rule="evenodd"
  />
  <path
    fill="currentColor"
    d="M15 10c-.5 0-.8.4-.8.8v8.4c0 .5.4.8.8.8s.8-.4.8-.8v-3.5h1.4c.4 0 .8-.3.8-.8 0-.4-.3-.8-.8-.8h-1.4v-3.4c0-.3-.3-.7-.8-.7zm-7.6 3h3.1c-.2 1.3-.5 2.3-1 3.1-.5.7-1.3 1.3-2.7 1.4-.4 0-.8.4-.8.8s.3.7.8.7c1.9-.2 3.2-.9 4.1-2.1.9-1.3 1.2-2.9 1.4-4.6.1-.4-.3-.8-.7-.8H7.4c-.4 0-.8.3-.8.8 0 .3.3.7.8.7z"
  />
</svg>
