<svg viewBox="0 0 24 24" fill="none" xmlns="http://www.w3.org/2000/svg">
  <path
    d="M19.9697 21.0303C20.2626 21.3232 20.7374 21.3232 21.0303 21.0303C21.3232 20.7374 21.3232 20.2626 21.0303 19.9697L19.9697 21.0303ZM9.2899 18.11L9.15956 18.8486L9.2899 18.11ZM18.11 9.2899L18.8486 9.15956L18.11 9.2899ZM21.0303 19.9697L16.5303 15.4697L15.4697 16.5303L19.9697 21.0303L21.0303 19.9697ZM9.42024 17.3714C6.14074 16.7927 3.75 13.9431 3.75 10.6129H2.25C2.25 14.6709 5.16328 18.1433 9.15956 18.8486L9.42024 17.3714ZM17.3714 9.42024C18.1994 14.112 14.112 18.1994 9.42024 17.3714L9.15956 18.8486C14.8768 19.8575 19.8575 14.8768 18.8486 9.15956L17.3714 9.42024ZM10.6129 3.75C13.9431 3.75 16.7927 6.14075 17.3714 9.42024L18.8486 9.15956C18.1433 5.16328 14.6709 2.25 10.6129 2.25V3.75ZM10.6129 2.25C5.9942 2.25 2.25 5.9942 2.25 10.6129H3.75C3.75 6.82263 6.82263 3.75 10.6129 3.75V2.25Z"
    fill="currentColor"
  />
</svg>
