<svg xmlns="http://www.w3.org/2000/svg" fill="none" viewBox="0 0 101 100">
  <g filter="url(#a)">
    <g clip-path="url(#b)">
      <rect
        width="64.84"
        height="64.84"
        x="10.79"
        y="27.07"
        fill="#1C1917"
        rx="10.81"
        transform="rotate(-15 10.8 27.07)"
      />
      <path
        fill="#FAFAF9"
        fill-rule="evenodd"
        d="M32.7 32c9.52 11.56 8.08 25.83 7.7 29.72-.07.66-.11 1.02-.06 1.01a42.43 42.43 0 0 1 27.87 5.39l-6.03-6.03-7.63-7.4a2.98 2.98 0 1 1 1.16-1.26L69.18 66.9c-6.91-11.24-5.43-26.86-5.43-26.86C47.24 42.6 32.7 32 32.7 32Z"
        clip-rule="evenodd"
      />
    </g>
    <rect
      width="67.11"
      height="67.11"
      x="9.4"
      y="26.27"
      stroke="#fff"
      stroke-width="2.27"
      rx="11.94"
      transform="rotate(-15 9.4 26.27)"
    />
  </g>
  <defs>
    <clipPath id="b">
      <rect
        width="64.84"
        height="64.84"
        x="10.79"
        y="27.07"
        fill="#fff"
        rx="10.81"
        transform="rotate(-15 10.8 27.07)"
      />
    </clipPath>
    <filter
      id="a"
      width="79.42"
      height="85.09"
      x="10.79"
      y="10.29"
      color-interpolation-filters="sRGB"
      filterUnits="userSpaceOnUse"
    >
      <feFlood flood-opacity="0" result="BackgroundImageFix" />
      <feColorMatrix
        in="SourceAlpha"
        result="hardAlpha"
        values="0 0 0 0 0 0 0 0 0 0 0 0 0 0 0 0 0 0 127 0"
      />
      <feOffset dy="5.68" />
      <feComposite in2="hardAlpha" operator="out" />
      <feColorMatrix values="0 0 0 0 0 0 0 0 0 0 0 0 0 0 0 0 0 0 0.25 0" />
      <feBlend in2="BackgroundImageFix" result="effect1_dropShadow_151_2539" />
      <feBlend
        in="SourceGraphic"
        in2="effect1_dropShadow_151_2539"
        result="shape"
      />
    </filter>
  </defs>
</svg>
