<svg xmlns="http://www.w3.org/2000/svg" viewBox="0 0 98 19">
  <path fill="currentColor" d="M0 18.2V0h7.44c4.34 0 6.96 2.57 6.96 6.3v.04c0 4.22-3.27 6.4-7.35 6.4H4v5.46H0Zm4-9.02h3.18c2 0 3.17-1.2 3.17-2.76v-.05c0-1.8-1.25-2.76-3.25-2.76H4v5.57Zm12.07 9.02V0H29.8v3.56h-9.75v3.7h8.58v3.56h-8.58v3.82h9.88v3.56H16.07Zm16.12 0V0h3.69l8.53 11.2V0h3.95v18.2h-3.4L36.13 6.63V18.2h-3.95Zm17.86 0 6.34-9.26L50.31 0h4.68l3.82 5.9L62.66 0h4.55l-6.09 8.9 6.35 9.3h-4.68l-4.08-6.24-4.11 6.24h-4.55Zm19.12 0V0h4v14.56h9.08v3.64H69.17Zm14.8 0V0h13.72v3.56h-9.75v3.7h8.58v3.56h-8.58v3.82h9.88v3.56H83.97Z"/>
</svg>
