<svg xmlns="http://www.w3.org/2000/svg" viewBox="0 0 58 29">
  <path
    fill="#1C1917"
    fill-rule="evenodd"
    d="M28.237 14.518a.822.822 0 0 0 1.526 0c.104-.262 2.56-6.468 1.974-11.227C31.455 1.02 30.16 0 29 0c-1.16 0-2.455 1.013-2.737 3.291-.586 4.76 1.87 10.965 1.974 11.227Zm-.345-11.023c.152-1.217.67-1.855 1.108-1.855.434 0 .956.638 1.108 1.855.334 2.69-.455 6.018-1.108 8.18-.653-2.162-1.437-5.49-1.108-8.18Zm-15.87 25.269c-2.414 0-4.806-.768-6.828-2.262-3.02-2.22-4.634-5.6-4.43-9.268.016-.282.042-.559.079-.84.334-2.665 1.797-5.01 4.116-6.599 3.26-2.236 6.927-2.518 9.81-.757a7.99 7.99 0 0 1 3.704 8.073c.175-.062.355-.117.539-.164.546-.194 4.687-1.536 9.969.857 5.299-2.418 9.46-1.071 10.007-.873.181.046.358.1.531.161a7.973 7.973 0 0 1 3.711-8.029c2.884-1.76 6.551-1.478 9.811.758 2.32 1.588 3.777 3.934 4.117 6.598.036.282.062.564.078.846.204 3.668-1.41 7.048-4.43 9.273a11.51 11.51 0 0 1-6.828 2.262l.005-.037a11.36 11.36 0 0 1-3.97-.715l-.33-.12c-.159-.055-.321-.113-.485-.176a5.137 5.137 0 0 1-3.897.63c-1.144-.271-2.168-1.086-2.737-2.178-.504-.963-.67-1.96-.504-2.867-.29-.244-.578-.494-.86-.748-1.45-1.328-2.875-2.285-4.223-2.969-1.33.685-2.735 1.639-4.172 2.953-.285.258-.575.51-.87.757.173.913.01 1.918-.499 2.89-.569 1.091-1.593 1.906-2.737 2.178a5.146 5.146 0 0 1-3.927-.647c-.161.061-.32.118-.477.171l-.308.115c-1.29.481-2.633.716-3.97.716l.005.01Zm5.41-9.145a6.5 6.5 0 0 1-.732.873 4.688 4.688 0 0 0-.624 3.685c.163.667.506 1.245.963 1.694 1.561-.712 3.293-1.787 4.935-3.057a1.974 1.974 0 0 0-2.053-.742.818.818 0 1 1-.397-1.589 3.602 3.602 0 0 1 3.698 1.275l.017.022c.158-.137.315-.274.47-.414a21.76 21.76 0 0 1 3.374-2.554c-4.323-1.507-7.484-.342-7.528-.324l-.094.031a4.59 4.59 0 0 0-2.029 1.1Zm-8.257 2.16c1.545.934 3.408 1.007 5.198.254a6.307 6.307 0 0 0 .099 2.54c.177.728.5 1.383.931 1.941-3.098 1.145-6.547.647-9.232-1.334-2.565-1.891-3.934-4.754-3.761-7.857.015-.246.036-.486.068-.731.276-2.194 1.488-4.127 3.416-5.45 2.748-1.885 5.673-2.146 8.024-.71a6.34 6.34 0 0 1 2.968 6.217 4.5 4.5 0 0 1-.72 1.914 6.336 6.336 0 0 0-.72.854 4.985 4.985 0 0 1-.561.455c-1.672 1.17-3.443 1.353-4.859.497a3.756 3.756 0 0 1-1.776-3.7c.1-.751.48-1.425 1.082-1.885a2.77 2.77 0 0 1 2.063-.554.812.812 0 0 0 .92-.705.815.815 0 0 0-.706-.92 4.415 4.415 0 0 0-3.275.883 4.453 4.453 0 0 0-1.708 2.978 5.397 5.397 0 0 0 2.549 5.313Zm11.153 5.015a3.48 3.48 0 0 1-1.515.024 28.036 28.036 0 0 0 3.49-2.205 3.474 3.474 0 0 1-.314.838c-.35.674-.971 1.176-1.66 1.343Zm13.97-5.407a21.725 21.725 0 0 0-3.431-2.588c4.272-1.52 7.396-.396 7.578-.327.021.01.042.016.063.022l.022.007.01.003a4.582 4.582 0 0 1 1.958 1.038c.247.367.533.71.855 1.024a4.7 4.7 0 0 1 .571 3.595 3.56 3.56 0 0 1-.987 1.717c-1.555-.712-3.287-1.786-4.926-3.058l.052-.07a1.98 1.98 0 0 1 2.016-.694.818.818 0 1 0 .397-1.588 3.615 3.615 0 0 0-3.73 1.316c-.151-.131-.3-.263-.449-.397Zm9.23 3.171a6.332 6.332 0 0 0 .103-2.503c1.79.752 3.65.679 5.194-.255a5.392 5.392 0 0 0 2.55-5.313 4.474 4.474 0 0 0-1.709-2.978c-.94-.72-2.1-1.04-3.275-.883a.819.819 0 1 0 .214 1.625c.737-.104 1.473.1 2.064.554.6.46.982 1.128 1.08 1.886a3.765 3.765 0 0 1-1.775 3.698c-1.416.857-3.187.674-4.859-.496a4.992 4.992 0 0 1-.493-.393 6.333 6.333 0 0 0-.853-1.017 4.488 4.488 0 0 1-.654-1.813 6.34 6.34 0 0 1 2.967-6.217c2.345-1.436 5.27-1.175 8.024.71 1.928 1.322 3.14 3.255 3.416 5.45.032.245.053.49.068.73.178 3.104-1.196 5.967-3.761 7.858-2.69 1.985-6.149 2.481-9.252 1.327l-.005-.002a5.18 5.18 0 0 0 .956-1.968Zm-7.823.072c1.149.844 2.32 1.585 3.445 2.181a3.457 3.457 0 0 1-1.478-.033c-.684-.162-1.306-.668-1.661-1.342a3.436 3.436 0 0 1-.306-.806Zm-1.727-10.332a.827.827 0 0 1-.804-.998c.073-.334.763-3.301 2.565-4.518.857-.58 1.922-.486 2.649.235.72.715.825 1.818.256 2.674-1.207 1.813-4.159 2.513-4.488 2.586-.057.01-.12.021-.178.021Zm2.68-4.153c-.616.418-1.091 1.27-1.415 2.064.783-.33 1.624-.805 2.037-1.421.204-.303.037-.523-.047-.601-.094-.094-.298-.225-.575-.042ZM23.85 14.277a.819.819 0 0 0 .758-.22.832.832 0 0 0 .224-.757c-.073-.334-.762-3.301-2.565-4.518-.856-.58-1.922-.486-2.648.235-.721.715-.826 1.818-.256 2.674 1.206 1.818 4.153 2.513 4.487 2.586Zm-3.072-4.09a.412.412 0 0 1 .296-.136c.082 0 .17.027.274.094.616.418 1.092 1.27 1.415 2.064-.778-.324-1.619-.805-2.032-1.421-.198-.303-.036-.523.047-.601Z"
    clip-rule="evenodd"
  />
</svg>
