<svg viewBox="0 0 20 20" xmlns="http://www.w3.org/2000/svg">
  <g id="1&#236;&#170;&#189;&#235;&#179;&#180;&#234;&#184;&#176;">
    <path
      id="Rectangle 2675"
      d="M2 5.46329C2 5.46329 2.41667 4.16699 5.75 4.16699C9.08333 4.16699 9.5 5.46329 9.5 5.46329V15.8337C9.5 15.8337 7.06148 15.003 5.75 14.9695C4.1152 14.9276 2 15.8337 2 15.8337V5.46329Z"
      fill="#99F6E4"
    />
    <path
      id="Vector"
      d="M10 15.8337C8.85986 15.1849 7.56652 14.8434 6.25 14.8434C4.93348 14.8434 3.64014 15.1849 2.5 15.8337V5.15725C3.64014 4.50852 4.93348 4.16699 6.25 4.16699C7.56652 4.16699 8.85986 4.50852 10 5.15725M10 15.8337C11.1401 15.1849 12.4335 14.8434 13.75 14.8434C15.0665 14.8434 16.3599 15.1849 17.5 15.8337V5.15725C16.3599 4.50852 15.0665 4.16699 13.75 4.16699C12.4335 4.16699 11.1401 4.50852 10 5.15725M10 15.8337V5.15725"
      fill="none"
      stroke="currentColor"
      stroke-width="1.5"
      stroke-linecap="round"
      stroke-linejoin="round"
    />
  </g>
</svg>
