<svg xmlns="http://www.w3.org/2000/svg" viewBox="0 0 24 24">
  <path
    fill="currentColor"
    fill-rule="evenodd"
    d="M4.8 4c.4 0 .8.3.8.8v14.5c0 .4-.3.8-.8.8-.5-.1-.8-.4-.8-.9V4.8c0-.5.3-.8.8-.8zm14.4 0c.5 0 .8.3.8.8v14.5c0 .4-.3.8-.8.8-.4 0-.8-.3-.8-.8V4.8c.1-.5.4-.8.8-.8zm-1.8 7.6c.1.2.1.6 0 .8L15.9 15c-.2.4-.7.5-1.1.3-.4-.2-.5-.7-.3-1.1l.9-1.4H8.9l.8 1.4c.2.4.1.8-.3 1.1-.4.2-.8.1-1.1-.3l-1.5-2.6c-.1-.2-.1-.6 0-.8L8.4 9c.2-.4.7-.5 1.1-.3.3.3.4.8.2 1.1l-.8 1.4h6.6l-.9-1.4c-.2-.4-.1-.8.3-1.1.4-.2.8-.1 1.1.3l1.4 2.6z"
    clip-rule="evenodd"
  />
</svg>
