<svg xmlns="http://www.w3.org/2000/svg" viewBox="0 0 24 24">
  <path
    fill="currentColor"
    fill-rule="evenodd"
    d="M4 19.2c0-.4.3-.8.8-.8h14.5c.4 0 .8.3.8.8 0 .4-.3.8-.8.8H4.8c-.5 0-.8-.3-.8-.8zM4 4.8c0-.5.3-.8.8-.8h14.5c.4 0 .7.3.7.8 0 .4-.3.8-.8.8H4.8c-.5-.1-.8-.4-.8-.8zm7.6 1.8c.2-.1.6-.1.8 0L15 8.1c.4.2.5.7.3 1.1-.2.4-.7.5-1.1.3l-1.4-.9v6.6l1.4-.8c.4-.2.8-.1 1.1.3.2.4.1.8-.3 1.1l-2.6 1.5c-.2.1-.6.1-.8 0L9 15.6c-.4-.2-.5-.7-.3-1.1.2-.4.7-.5 1.1-.3l1.4.8V8.6l-1.4.8c-.3.3-.8.1-1-.2-.3-.4-.1-.9.2-1.1l2.6-1.5z"
    clip-rule="evenodd"
  />
</svg>
