<svg viewBox="0 0 32 32" xmlns="http://www.w3.org/2000/svg">
  <path
    d="M11.9987 19.9998L19.9987 11.9998M14.6654 7.99959L15.2827 7.28493C16.5331 6.0347 18.229 5.33239 19.9972 5.33252C21.7654 5.33264 23.4611 6.03519 24.7114 7.28559C25.9616 8.536 26.6639 10.2318 26.6638 12.0001C26.6636 13.7683 25.9611 15.464 24.7107 16.7143L23.9987 17.3329M17.3322 23.9998L16.8029 24.7118C15.5379 25.9628 13.8306 26.6643 12.0516 26.6643C10.2725 26.6643 8.56522 25.9628 7.30022 24.7118C6.6767 24.0953 6.18168 23.3612 5.84383 22.552C5.50599 21.7429 5.33203 20.8747 5.33203 19.9978C5.33203 19.121 5.50599 18.2528 5.84383 17.4436C6.18168 16.6345 6.6767 15.9004 7.30022 15.2838L7.99889 14.6665"
    fill="none"
    stroke="currentColor"
    stroke-width="2"
    stroke-linecap="round"
    stroke-linejoin="round"
  />
</svg>
