<svg xmlns="http://www.w3.org/2000/svg" viewBox="0 0 24 24">
  <path
    fill="none"
    stroke="currentColor"
    stroke-linecap="round"
    stroke-width="1.5"
    d="M3.7 15.4c-.5-1-.7-2.2-.7-3.4s.2-2.4.7-3.4c.5-1.1 1.1-2.1 2-2.9s1.8-1.5 2.9-2c1-.5 2.2-.7 3.4-.7s2.4.2 3.4.7c1.1.5 2.1 1.1 2.9 2 .8.8 1.5 1.8 2 2.9.5 1 .7 2.2.7 3.4s-.2 2.4-.7 3.4c-.5 1.1-1.1 2.1-2 2.9-.8.8-1.8 1.5-2.9 2-1 .5-2.2.7-3.4.7s-2.4-.2-3.4-.7c-1.1-.5-2.1-1.1-2.9-2-.9-.8-1.6-1.8-2-2.9z"
  />
  <path
    d="M10.1 9.1c-.1-.4-.5-.6-1-.6-.4 0-.8.3-1 .6L6 14.7c-.1.4.1.8.6.8.3 0 .5-.2.6-.4.1-.2.2-.4.2-.6.1-.3.3-.7.4-1h2.6l.6 1.7c.1.2.3.4.6.4.4 0 .7-.4.6-.8l-2.1-5.7zm-1.9 3.4.9-2.5.9 2.5H8.2z"
    fill-rule="evenodd"
    clip-rule="evenodd"
  />
  <path
    d="M13.9 8.5c.3 0 .6.3.6.6v5.8c0 .3-.3.6-.6.6s-.6-.3-.6-.6V9.1c0-.3.3-.6.6-.6zm2.5 0c.3 0 .6.3.6.6v5.8c0 .3-.3.6-.6.6s-.6-.3-.6-.6V9.1c0-.3.2-.6.6-.6z"
  />
  <path
    d="M9.1 8.3c.5 0 1 .3 1.1.8l2.1 5.6c.2.5-.2 1.1-.8 1.1-.3 0-.6-.2-.8-.5l-.6-1.5H7.9l-.3.9c-.1.2-.2.4-.2.6-.1.3-.4.5-.8.5-.5 0-.9-.5-.7-1L8 9.1c.2-.5.6-.8 1.1-.8zm-1.7 6.2c.1-.3.3-.7.4-1h2.6l.6 1.7c.1.2.3.4.6.4.4 0 .7-.4.6-.8l-2.1-5.6c-.1-.4-.5-.6-1-.6-.4 0-.8.3-1 .6L6 14.7c-.1.4.1.8.6.8.3 0 .5-.2.6-.4 0-.2.1-.4.2-.6zm.8-2H10L9.1 10l-.9 2.5zm.9-2-.6 1.7h1.3l-.7-1.7zm4.8-2.2c.4 0 .8.3.8.8v5.8c0 .4-.4.8-.8.8s-.8-.3-.8-.8V9.1c0-.4.4-.8.8-.8zm2.5 0c.4 0 .8.3.8.8v5.8c0 .4-.4.8-.8.8s-.8-.3-.8-.8V9.1c0-.4.3-.8.8-.8zm-2.5.2c.3 0 .6.3.6.6v5.8c0 .3-.3.6-.6.6s-.6-.3-.6-.6V9.1c0-.3.3-.6.6-.6zm3.1.6c0-.3-.3-.6-.6-.6s-.6.3-.6.6v5.8c0 .3.3.6.6.6s.6-.3.6-.6V9.1z"
    fill-rule="evenodd"
    clip-rule="evenodd"
  />
</svg>
