<svg xmlns="http://www.w3.org/2000/svg" viewBox="0 0 24 24">
  <path
    fill="none"
    stroke="currentColor"
    stroke-linecap="round"
    stroke-width="1.5"
    d="M7 15V9m8.5 3h3M17 10.5v3M13.4 9h-3.2c-.1 0-.2.1-.2.2v2.3s0 0 0 0h2.2c1 0 1.8.8 1.8 1.8s-.8 1.7-1.8 1.7H10m-7-3c0 1.2.2 2.4.7 3.4.5 1.1 1.1 2.1 2 2.9.8.8 1.8 1.5 2.9 2 1 .5 2.2.7 3.4.7s2.4-.2 3.4-.7c1.1-.5 2.1-1.1 2.9-2 .8-.8 1.5-1.8 2-2.9.5-1.1.7-2.3.7-3.4s-.2-2.4-.7-3.4c-.5-1.1-1.1-2.1-2-2.9-.8-.8-1.8-1.5-2.9-2-1-.5-2.2-.7-3.4-.7s-2.4.2-3.4.7c-1.1.5-2.1 1.1-2.9 2s-1.5 1.8-2 2.9c-.5 1-.7 2.2-.7 3.4z"
  />
</svg>
