<svg viewBox="0 0 32 32" fill="none" xmlns="http://www.w3.org/2000/svg">
  <path
    d="M4 16C4 17.5759 4.31039 19.1363 4.91345 20.5922C5.5165 22.0481 6.40042 23.371 7.51472 24.4853C8.62902 25.5996 9.95189 26.4835 11.4078 27.0866C12.8637 27.6896 14.4241 28 16 28C17.5759 28 19.1363 27.6896 20.5922 27.0866C22.0481 26.4835 23.371 25.5996 24.4853 24.4853C25.5996 23.371 26.4835 22.0481 27.0866 20.5922C27.6896 19.1363 28 17.5759 28 16C28 14.4241 27.6896 12.8637 27.0866 11.4078C26.4835 9.95189 25.5996 8.62902 24.4853 7.51472C23.371 6.40042 22.0481 5.5165 20.5922 4.91345C19.1363 4.31039 17.5759 4 16 4C14.4241 4 12.8637 4.31039 11.4078 4.91345C9.95189 5.5165 8.62902 6.40042 7.51472 7.51472C6.40042 8.62902 5.5165 9.95189 4.91345 11.4078C4.31039 12.8637 4 14.4241 4 16Z"
    stroke="currentColor"
    stroke-width="1.5"
    stroke-linecap="round"
    stroke-linejoin="round"
  />
  <path
    d="M20.7975 17.7586V16.3568H19.3958V15.3036H20.7975V13.9019H21.8583V15.3036H23.26V16.3568H21.8583V17.7586H20.7975Z"
    fill="currentColor"
  />
  <path
    d="M16.1149 18.6373C14.6905 18.6373 13.8191 17.6144 13.8191 15.8187C13.8191 14.0229 14.6905 13 16.1149 13C17.5394 13 18.4108 14.0229 18.4108 15.8187C18.4108 17.622 17.5394 18.6373 16.1149 18.6373ZM16.1149 17.5841C16.6984 17.5841 17.0848 17.031 17.0848 15.8187C17.0848 14.6215 16.6984 14.0456 16.1149 14.0456C15.5315 14.0456 15.1527 14.6215 15.1451 15.8187C15.1375 17.031 15.5315 17.5841 16.1149 17.5841Z"
    fill="currentColor"
  />
  <path
    d="M9.07577 18.5616V17.6296L11.0761 15.8717C11.5383 15.4474 11.8035 15.167 11.8111 14.7503C11.8035 14.2957 11.4701 14.0077 11.0079 14.0077C10.5381 14.0077 10.2275 14.3033 10.2275 14.8033H9C9 13.6971 9.81074 13 11.0155 13C12.2506 13 13.0613 13.6668 13.0613 14.6518C13.0613 15.2807 12.7506 15.8035 11.561 16.8416L10.8715 17.478V17.5159H13.1295V18.5616H9.07577Z"
    fill="currentColor"
  />
</svg>
