<svg viewBox="0 0 83 78" xmlns="http://www.w3.org/2000/svg">
  <path
    d="M27.2791 7.84014C28.0249 7.52275 28.7594 7.17467 29.5188 6.89237C32.7121 5.70745 36.0249 5.07101 39.4172 4.88793C43.3 4.67843 47.1137 5.14626 50.8389 6.27528C54.9473 7.5205 58.6891 9.4778 62.0615 12.1389C64.984 14.4452 67.4559 17.1675 69.4902 20.2875C69.6275 20.4981 69.8435 20.6874 69.6616 21.009C69.5874 21.1407 69.6601 21.3564 69.6666 21.5704C69.8598 21.5307 70.0195 21.498 70.2348 21.4536C70.7083 22.3404 71.1868 23.2345 71.6902 24.1778C71.2194 24.244 70.8239 24.32 70.4261 24.3413C70.3232 24.3471 70.1729 24.2052 70.1093 24.0937C69.476 22.9813 68.9083 21.8274 68.2169 20.7538C67.6239 19.8333 66.9166 18.9824 66.2205 18.1331C62.9332 14.1209 58.9104 11.0693 54.1742 8.96915C50.4546 7.32051 46.5585 6.41784 42.4928 6.24209C40.261 6.14555 38.0522 6.32372 35.8428 6.63187C34.374 6.83672 32.9522 7.21998 31.5522 7.66316C30.15 8.10744 28.7619 8.62927 27.4295 9.25112C26.0868 9.87836 24.7942 10.6277 23.5261 11.3995C21.8202 12.4392 20.2862 13.7121 18.8228 15.0736C17.8506 15.9778 16.9595 16.9557 16.1274 17.9844C15.8476 18.3307 15.5958 18.507 15.1685 18.3175C15.1014 18.2876 15.0193 18.2905 14.9245 18.2754C14.7147 18.6112 14.9221 18.9293 14.94 19.2472C14.9449 19.3378 14.9569 19.4511 14.9112 19.5173C14.4981 20.1281 14.0728 20.7303 13.6276 21.37C13.3401 21.1356 13.086 21.2957 12.9616 21.5399C12.9024 21.6553 13.0803 21.8925 13.1775 22.1426C12.0928 23.9901 11.0999 25.9995 10.4215 28.1442C9.98906 29.5119 9.65383 30.9116 9.28462 32.2988C9.22452 32.5253 9.08071 32.6259 8.92337 32.781C8.57362 33.127 8.1563 32.9809 7.72211 33.179C7.85207 32.5159 7.95573 31.9116 8.09095 31.3139C9.11522 26.7941 10.9776 22.6525 13.6841 18.893C15.6352 16.1821 17.9397 13.8167 20.5848 11.7838C20.7259 11.675 20.8815 11.5689 21.0479 11.5116C21.3747 11.3995 21.7514 11.3734 21.7969 10.9088C21.8009 10.8649 21.8914 10.827 21.9444 10.7904C23.5694 9.67789 25.2769 8.71123 27.0668 7.88966C27.1362 7.85786 27.2154 7.84516 27.2894 7.82374C27.2752 7.85722 27.257 7.8897 27.2478 7.92485C27.2151 8.04439 27.1856 8.16427 27.1545 8.28437C27.2735 8.29835 27.4174 8.36002 27.5061 8.31526C27.6345 8.24998 27.7227 8.10611 27.8282 7.99601C27.7452 7.92501 27.6711 7.82284 27.5757 7.79294C27.4888 7.76659 27.3777 7.82077 27.2772 7.83804L27.2791 7.84014ZM23.4973 11.0493C23.7611 10.7571 24.0293 10.4683 24.2763 10.1627C24.2911 10.1449 24.1472 9.92578 24.0558 9.90791C23.7989 9.85742 23.1705 10.3063 23.0847 10.5624C22.9852 10.8606 23.1129 11.0198 23.4973 11.0493ZM29.7399 7.49823C30.1819 7.73056 30.595 7.70086 30.8365 7.37876C30.9246 7.26167 30.9575 7.03187 30.9029 6.90097C30.8655 6.81333 30.6236 6.75836 30.4848 6.77708C30.0893 6.83109 29.8715 7.1097 29.7399 7.49823ZM8.63198 30.9537C9.05137 31.0585 9.33894 30.9354 9.34816 30.6153C9.35227 30.4879 9.20489 30.2835 9.08173 30.2402C8.88005 30.1693 8.65129 30.5432 8.63198 30.9537ZM37.7276 6.03237C37.8308 5.8667 37.9259 5.76595 37.9489 5.65013C37.9571 5.60803 37.768 5.46455 37.7112 5.48513C37.599 5.52531 37.5164 5.64792 37.422 5.73599C37.5048 5.81647 37.5876 5.89695 37.7276 6.03237Z"
    fill="#DC2626"
  />
  <path
    d="M35.1826 72.0941C35.3498 71.9258 35.4817 71.8183 35.5807 71.6847C35.6508 71.5906 35.6745 71.4629 35.7192 71.3503C35.5814 71.298 35.4235 71.1753 35.3102 71.2078C35.0958 71.2702 34.8744 71.3887 34.7139 71.5435C34.3838 71.8616 34.0529 71.9057 33.6044 71.801C29.2793 70.7917 25.2982 69.0153 21.6657 66.4608C19.5383 64.9647 17.6036 63.2471 15.8775 61.2971C15.8439 61.2593 15.8158 61.216 15.8023 61.1982C16.1525 60.9222 16.4957 60.6528 16.8167 60.399C17.7633 61.3084 18.7247 62.307 19.7639 63.2159C24.4312 67.2972 29.8326 69.8369 35.9442 70.8549C36.3393 70.9207 36.7402 70.9556 37.1342 71.0254C37.3703 71.0671 37.6504 70.9805 37.7498 71.3798C37.8007 71.586 38.0869 71.4978 38.2746 71.3517C38.3865 71.2644 38.5482 71.1794 38.6814 71.1883C41.2107 71.3611 43.7255 71.258 46.2312 70.872C46.3819 70.8485 46.5585 70.9252 46.7101 70.9866C46.9675 71.0905 47.1759 71.1085 47.3067 70.8035C47.3345 70.739 47.4162 70.6716 47.4853 70.654C48.213 70.4707 48.9436 70.2963 49.6737 70.1237C49.7459 70.1064 49.8411 70.0907 49.8983 70.1228C50.1314 70.2554 50.2439 70.1443 50.4182 69.9812C50.5842 69.8264 50.8533 69.7729 51.0841 69.6987C54.796 68.5141 58.1757 66.7046 61.2283 64.2837C65.4799 60.9117 68.6827 56.725 70.8775 51.762C71.1339 51.1819 71.3593 50.5889 71.6112 49.9717C71.9114 50.0893 72.157 49.9808 72.2049 49.667C72.2256 49.5295 72.0496 49.3621 71.9535 49.1922C72.3042 47.7462 72.6695 46.225 73.0495 44.7079C73.0728 44.6165 73.2053 44.5081 73.3031 44.4881C73.6699 44.4145 74.0431 44.3754 74.5 44.3112C74.3588 45.0341 74.2272 45.7076 74.0906 46.4071C73.8728 46.3723 73.6879 46.3432 73.4668 46.3074C73.3884 46.7168 73.4051 47.0703 73.6594 47.4038C73.7269 47.4927 73.7557 47.6587 73.7257 47.7692C72.8711 50.9024 71.5807 53.8472 69.8711 56.6045C67.6138 60.2449 64.7716 63.3527 61.3442 65.9184C58.5152 68.0355 55.4452 69.7117 52.0786 70.7871C50.3934 71.3255 48.6545 71.6943 46.9392 72.1361C46.8027 72.1711 46.6591 72.1779 46.5227 72.197C46.2753 71.661 46.1939 71.663 45.7398 72.0551C45.5485 72.2206 45.2899 72.3758 45.0469 72.4029C41.8149 72.7697 38.5904 72.7095 35.3815 72.1457C35.3348 72.1373 35.2894 72.1216 35.1808 72.0928L35.1826 72.0941ZM67.2191 58.9966C67.6709 59.0914 67.9298 58.9771 67.9354 58.6424C67.9377 58.513 67.7866 58.3106 67.6608 58.2653C67.469 58.197 67.2284 58.604 67.2191 58.9966ZM69.6326 54.7618C69.4952 55.048 69.3911 55.213 69.345 55.3935C69.3324 55.4441 69.5537 55.6098 69.5622 55.6031C69.7249 55.4582 69.8796 55.3011 70.01 55.1276C70.02 55.1144 69.8324 54.9542 69.6327 54.7626L69.6326 54.7618ZM33.1451 70.646C32.8436 70.6868 32.5836 70.7541 32.5523 71.0907C32.5494 71.1203 32.805 71.2284 32.9203 71.2043C33.1995 71.1446 33.3563 70.9801 33.1451 70.646V70.646ZM55.0102 68.6123L55.0691 68.8025C55.2529 68.7963 55.4374 68.7901 55.6212 68.7839L55.5936 68.2131C55.5513 68.197 55.5083 68.1817 55.466 68.1657C55.314 68.3145 55.162 68.4627 55.0101 68.6116L55.0102 68.6123Z"
    fill="#DC2626"
  />
  <path
    d="M21.968 53.0805L21.78 51.7425C21.9262 51.7149 22.06 51.6827 22.1956 51.6637C35.7497 49.758 49.305 47.8545 62.8579 45.9395C63.2454 45.885 63.3429 45.9973 63.3824 46.3563C63.4793 47.2418 63.4962 47.2441 62.6139 47.3681C51.3196 48.9554 40.0258 50.5411 28.7314 52.1276C26.6417 52.4213 24.5523 52.7165 22.4627 53.011C22.3117 53.0322 22.1607 53.0534 21.968 53.0805V53.0805ZM36.2228 51.0275C36.6956 50.5336 36.7151 50.3482 36.3564 49.9207C35.8367 50.226 35.7798 50.6371 36.2228 51.0275ZM28.6512 51.8311C28.891 51.6588 29.2346 51.5932 29.1205 51.2179C29.1 51.15 28.7766 51.0852 28.6772 51.1495C28.4316 51.3085 28.4048 51.5539 28.6512 51.8311ZM32.2612 50.9442C32.3046 50.9515 32.348 50.958 32.3914 50.9653C32.4263 50.8502 32.5243 50.6915 32.481 50.6299C32.4161 50.5367 32.2545 50.5106 32.1337 50.4567C32.1107 50.4883 32.0876 50.5199 32.0654 50.5521C32.131 50.683 32.1956 50.8133 32.2612 50.9442Z"
    fill="#DC2626"
  />
  <path
    d="M60.4769 25.738L18.9665 31.5719L18.7838 30.2717C18.9185 30.2465 19.0639 30.2127 19.211 30.192C29.0724 28.8077 38.9348 27.4247 48.796 26.0396C52.4761 25.5224 56.1571 25.0067 59.8348 24.4733C60.2121 24.4187 60.3493 24.5167 60.3627 24.8864C60.3722 25.1551 60.4325 25.4222 60.4769 25.738ZM48.7832 26.7311C48.9336 26.5431 49.0317 26.4191 49.1306 26.2957C49.0324 26.2339 48.9051 26.0999 48.8403 26.1255C48.6936 26.1831 48.5768 26.3192 48.4484 26.4231C48.5378 26.5058 48.6272 26.5885 48.7826 26.732L48.7832 26.7311Z"
    fill="#DC2626"
  />
  <path
    d="M66.5767 52.8814L66.6563 53.4481C66.7548 53.4555 66.8525 53.463 66.9693 53.4726C66.955 53.5218 66.9498 53.5737 66.9264 53.614C65.908 55.3971 64.7121 57.0524 63.3489 58.5848C61.966 60.1388 60.4451 61.5445 58.7661 62.7749C58.4946 62.9737 58.2222 63.171 57.9408 63.3546C57.709 63.5053 57.521 63.7388 57.1567 63.5845C57.0281 63.5301 56.7164 63.7054 56.5982 63.8598C55.6601 65.0954 54.2156 65.4961 52.9143 66.1269C52.5509 66.3032 52.1346 66.3656 51.7533 66.5098C51.2042 66.7176 50.6767 66.9894 50.119 67.1693C48.0047 67.8523 45.8384 68.2945 43.6208 68.455C42.7131 68.5204 41.8015 68.5697 40.8913 68.5622C39.948 68.5539 39.002 68.5034 38.0643 68.4061C37.1394 68.3109 36.2162 68.1659 35.3043 67.9838C34.3925 67.8025 33.4831 67.5879 32.5927 67.3186C28.9091 66.2057 25.5566 64.452 22.548 62.0421C20.7302 60.5859 19.0938 58.95 17.6721 57.1028C17.5404 56.9316 17.453 56.6958 17.4284 56.4812C17.4004 56.2372 17.3001 56.1221 17.0882 56.0228C16.9031 55.9362 16.7008 55.8103 16.5935 55.6451C15.9826 54.7035 15.3977 53.7449 14.7981 52.7829C15.4227 52.5195 15.4865 52.5428 15.7663 53.0302C19.259 59.1134 24.2633 63.4457 30.796 65.9729C35.7267 67.8804 40.8236 68.36 46.0232 67.4623C52.0352 66.4245 57.2266 63.7408 61.5853 59.4538C61.8199 59.2224 62.1162 59.0493 62.3297 58.802C62.8242 58.2279 63.3154 57.6471 63.7518 57.0291C64.6486 55.7615 65.5087 54.4683 66.3828 53.185C66.4323 53.1119 66.4773 53.0355 66.5749 52.88L66.5767 52.8814Z"
    fill="#DC2626"
  />
  <path
    d="M46.9828 61.7446C46.1855 61.4504 45.4766 61.2084 44.7853 60.9245C44.4284 60.7778 44.152 60.7796 43.8351 61.0344C43.242 61.5106 42.6126 61.9415 41.9188 62.45C41.9247 62.1122 41.9237 61.8533 41.9361 61.5949C41.964 60.9997 42.0118 60.4057 42.0217 59.8107C42.024 59.6875 41.9244 59.5212 41.8209 59.4444C41.1847 58.9764 40.5341 58.5294 39.8886 58.0737C39.8397 58.0388 39.7967 57.9953 39.6965 57.9086C40.5121 57.6853 41.2634 57.4569 42.0267 57.2803C42.376 57.1997 42.5418 57.0316 42.6403 56.6926C42.8554 55.9483 43.1149 55.2166 43.381 54.4045C43.7547 54.9558 44.0969 55.4502 44.4281 55.9508C44.9987 56.813 44.996 56.8103 46.02 56.7837C46.6221 56.7683 47.2251 56.771 47.9187 56.764C47.3725 57.4344 46.8929 58.0411 46.3919 58.6304C46.1748 58.8861 46.0782 59.1044 46.2257 59.4552C46.4704 60.0389 46.6416 60.6533 46.841 61.2559C46.8848 61.3884 46.9195 61.5236 46.9834 61.7437L46.9828 61.7446ZM45.7574 58.6393C45.9091 58.455 46.0124 58.3287 46.1164 58.2022C46.0023 58.1395 45.867 58.0042 45.7804 58.0314C45.6448 58.0725 45.5426 58.223 45.4261 58.3276C45.5175 58.4132 45.6081 58.4989 45.7583 58.6399L45.7574 58.6393Z"
    fill="#DC2626"
  />
  <path
    d="M37.806 14.8416C38.2995 15.558 38.7637 16.2163 39.2107 16.8864C39.3519 17.0973 39.4902 17.2038 39.77 17.1928C40.5922 17.1615 41.4162 17.1764 42.3397 17.1726C41.843 17.7927 41.436 18.3743 40.9518 18.8816C40.586 19.2645 40.5334 19.6002 40.7328 20.08C40.9998 20.7219 41.186 21.398 41.437 22.1493C40.8401 21.9332 40.2945 21.8028 39.8169 21.5463C39.0343 21.1272 38.394 21.1889 37.7486 21.8189C37.3645 22.1941 36.8775 22.4641 36.4356 22.7805C36.427 22.7864 36.4108 22.7824 36.3438 22.7871C36.3717 22.1187 36.3448 21.4462 36.4415 20.7925C36.5316 20.1815 36.3449 19.8149 35.8181 19.5157C35.3023 19.2229 34.8351 18.8445 34.3484 18.5012C34.2908 18.4604 34.2444 18.404 34.1455 18.31C34.8429 18.1175 35.4776 17.8984 36.1311 17.7735C36.7135 17.6625 37.0445 17.4129 37.1753 16.8001C37.3152 16.1466 37.5799 15.5197 37.8043 14.841L37.806 14.8416ZM39.2019 18.9654C39.4332 18.8557 39.6579 18.7493 39.8052 18.679C39.9315 18.8282 40.0279 19.0225 40.1039 19.015C40.2534 19.0002 40.425 18.9013 40.5264 18.7847C40.6089 18.6897 40.6256 18.5173 40.6259 18.3795C40.6263 18.2708 40.577 18.0879 40.5132 18.0701C40.416 18.0436 40.2242 18.0989 40.1848 18.1761C40.0624 18.4177 39.8914 18.3921 39.6739 18.3763C39.2776 18.3461 39.1416 18.5251 39.2012 18.9655L39.2019 18.9654Z"
    fill="#DC2626"
  />
  <path
    d="M67.3783 24.7555C66.7234 24.9152 66.7271 24.9131 66.4257 24.3847C66.2401 24.0588 66.0491 23.7345 65.8483 23.4179C65.6604 23.1207 65.4138 22.842 65.8112 22.3823C65.1107 22.5304 64.976 22.0478 64.719 21.717C64.131 20.9604 63.5395 20.2066 62.9934 19.5078C63.0174 19.2927 63.0372 19.1151 63.0569 18.9368C62.88 18.9246 62.7032 18.9133 62.4588 18.8964C61.7408 18.2211 60.9698 17.4539 60.1549 16.7378C57.59 14.4829 54.7089 12.7345 51.5121 11.5462C50.1342 11.0344 48.6967 10.6845 47.2831 10.2707C47.0406 10.2 46.7887 10.1803 46.8649 9.81689C46.8763 9.76334 46.7766 9.68602 46.728 9.61963C46.6665 9.67394 46.5854 9.71761 46.5494 9.78566C46.5082 9.86152 46.5078 9.9592 46.4783 10.1019C46.0326 9.9441 45.503 10.117 45.216 9.73529C44.9214 9.7578 44.6842 9.80373 44.4512 9.78924C43.2687 9.71687 42.0872 9.62941 40.9103 9.5468C40.9512 9.36234 40.9976 9.15584 41.0448 8.94372C51.7302 8.71507 62.4159 15.0801 67.3783 24.7555V24.7555Z"
    fill="#DC2626"
  />
  <path
    d="M47.903 14.4303C48.3544 15.0982 48.7534 15.6673 49.1272 16.2525C49.2621 16.4634 49.4113 16.5464 49.6594 16.5398C50.3765 16.5209 51.0945 16.5255 51.8906 16.5207C51.5057 17.0023 51.1849 17.4702 50.7956 17.8705C50.3907 18.288 50.2588 18.6743 50.5292 19.2346C50.7685 19.7293 50.8878 20.2817 51.0897 20.8966C50.4683 20.6737 49.8989 20.5136 49.37 20.2667C48.8781 20.0374 48.5022 20.0745 48.0889 20.4381C47.6555 20.8202 47.1576 21.1295 46.6136 21.5249C46.627 21.0892 46.5813 20.7137 46.6598 20.3665C46.888 19.3566 46.5785 18.6585 45.6201 18.2239C45.2877 18.073 45.0104 17.7995 44.6336 17.528C45.3639 17.3293 46.014 17.1411 46.6703 16.9804C46.9847 16.9032 47.1779 16.7737 47.2677 16.4288C47.4335 15.7914 47.6639 15.1717 47.9038 14.4302L47.903 14.4303ZM48.5474 19.1714C48.2027 19.3356 47.9987 19.6619 48.1508 19.8271C48.2185 19.901 48.4453 19.9377 48.513 19.8833C48.7715 19.6761 48.7041 19.4202 48.5474 19.1714V19.1714Z"
    fill="#DC2626"
  />
  <path
    d="M37.4768 58.933C36.9816 59.5522 36.5619 60.1103 36.1026 60.6331C35.9054 60.8568 35.907 61.0471 35.9955 61.2969C36.2221 61.9421 36.4346 62.5925 36.6791 63.3202C36.0979 63.1098 35.5606 62.9712 35.0774 62.7257C34.4936 62.4291 34.0434 62.4908 33.5621 62.9348C33.1593 63.3063 32.6751 63.5901 32.18 63.947C32.2161 63.22 32.2405 62.5497 32.2896 61.8815C32.2979 61.7724 32.4433 61.678 32.4697 61.5641C32.5101 61.3875 32.5026 61.1996 32.5154 61.0168C32.3712 61.0252 32.2269 61.0384 32.0827 61.0406C31.9705 61.0422 31.8314 61.0696 31.75 61.0165C31.2548 60.6908 30.7732 60.3444 30.2106 59.9527C30.7835 59.7918 31.2758 59.599 31.7862 59.5242C32.4861 59.4219 32.8671 59.0857 32.9998 58.3805C33.0898 57.9025 33.2951 57.4462 33.4489 56.9805C33.4521 56.9698 33.466 56.9624 33.5279 56.8994C33.8258 57.4928 34.3818 57.8934 34.4893 58.6081C34.5112 58.7523 34.9201 58.9223 35.1583 58.9345C35.9044 58.9714 36.6542 58.9392 37.4776 58.9329L37.4768 58.933Z"
    fill="#DC2626"
  />
  <path
    d="M50.1937 57.1293C50.9918 56.9093 51.6912 56.7314 52.3791 56.5159C52.5319 56.4684 52.6955 56.3124 52.7627 56.1644C52.9014 55.8599 52.9502 55.5145 53.0882 55.2101C53.2256 54.9073 53.4276 54.6341 53.6388 54.2863C54.0347 54.8668 54.3686 55.3868 54.7388 55.8795C54.8337 56.0064 55.0391 56.1153 55.1969 56.1199C55.9187 56.1397 56.6419 56.1199 57.4628 56.1132C56.9338 56.7709 56.4626 57.3599 55.9835 57.9429C55.95 57.9839 55.854 57.9942 55.7915 57.9857C55.3199 57.9228 55.1585 58.1274 55.3259 58.6085C55.5225 58.5203 55.7174 58.4315 55.9384 58.3319C56.1776 59.0502 56.4067 59.7352 56.6608 60.4978C56.0905 60.2922 55.5528 60.156 55.0712 59.9103C54.4863 59.6122 54.0305 59.6787 53.548 60.1141C53.1485 60.475 52.6791 60.7582 52.2414 61.0764C52.2018 61.0631 52.1614 61.0499 52.1218 61.0365C52.2002 60.5823 52.2819 60.1291 52.3538 59.6734C52.3674 59.5857 52.351 59.4911 52.3345 59.4021C52.3171 59.3062 52.2455 59.2052 52.2635 59.1208C52.3511 58.7148 52.1763 58.4835 51.8373 58.2737C51.3004 57.9421 50.7987 57.5536 50.1944 57.1284L50.1937 57.1293Z"
    fill="#DC2626"
  />
  <path
    d="M15.5114 24.8284C15.4496 24.6402 15.3957 24.4746 15.3409 24.3083C15.253 24.4545 15.1764 24.6086 15.0736 24.7435C14.9913 24.8511 14.8772 24.934 14.7005 24.9738C14.8788 24.6433 15.0511 24.3097 15.2363 23.9837C16.6944 21.4208 18.4923 19.1242 20.6232 17.0888C20.7908 16.9282 20.9382 16.8311 21.1913 16.8877C21.4898 16.9544 21.7914 16.9309 21.9797 16.5541C21.8571 16.4705 21.7268 16.3817 21.5382 16.2532C26.9904 11.5622 33.3021 9.16191 40.4757 8.95363C40.1862 9.28641 39.9669 9.64396 39.4131 9.67298C34.8619 9.90636 30.6114 11.1895 26.6573 13.4466C23.7768 15.0906 21.2604 17.1834 19.0887 19.6947C18.9664 19.8363 18.7721 19.9187 18.6034 20.0156C18.3853 20.1407 18.1678 20.2477 18.2678 20.5737C18.2893 20.6431 18.2201 20.7544 18.1686 20.8294C17.5332 21.7595 16.9403 22.7239 16.2341 23.597C15.9201 23.9852 15.8829 24.4975 15.5132 24.8297L15.5114 24.8284Z"
    fill="#DC2626"
  />
  <path
    d="M27.9265 17.2543C28.3672 17.9081 28.7637 18.4538 29.1103 19.0303C29.2794 19.3112 29.4831 19.3684 29.7772 19.3585C30.4577 19.3369 31.1387 19.3404 31.9147 19.3329C31.3964 19.9773 30.9307 20.5553 30.4665 21.1323C29.914 20.7628 29.7301 20.7792 29.2642 21.2769C29.0278 21.529 28.8221 21.8098 28.5988 22.0829C29.2754 22.3799 29.7664 22.2503 30.3857 21.5916C30.49 21.8864 30.585 22.1541 30.6655 22.3806C30.5712 22.5261 30.5015 22.6335 30.4317 22.7409C30.5285 22.7809 30.6289 22.8132 30.72 22.8634C30.7788 22.8961 30.8477 22.9446 30.8699 23.0021C30.9481 23.2061 31.0083 23.4165 31.1056 23.7177C30.5132 23.505 29.9641 23.3664 29.4725 23.1167C28.9063 22.8286 28.4761 22.9205 28.0165 23.3236C27.6017 23.6874 27.127 23.9832 26.6201 24.3513C26.6538 23.5569 26.6966 22.8273 26.7041 22.098C26.7055 21.9514 26.6101 21.753 26.4939 21.6646C25.9792 21.2725 25.4399 20.9129 24.9105 20.5393C24.8416 20.4907 24.7792 20.4326 24.6707 20.3431C25.3828 20.1485 26.0357 19.9529 26.6981 19.796C27.0099 19.7223 27.1789 19.5836 27.2699 19.2637C27.4559 18.6077 27.691 17.9661 27.9259 17.256L27.9265 17.2543Z"
    fill="#DC2626"
  />
  <path
    d="M16.2227 59.633C15.8833 59.935 15.5592 60.223 15.212 60.5308C13.384 58.3534 11.8352 55.9658 10.5648 53.2998C11.0233 53.2354 11.4357 53.168 11.8504 53.1278C11.921 53.1211 12.0369 53.2134 12.0742 53.2885C13.2016 55.5746 14.6212 57.6693 16.2243 59.6438C16.2318 59.6529 16.2324 59.6678 16.2211 59.6324L16.2227 59.633Z"
    fill="#DC2626"
  />
  <path
    d="M70.3115 44.9109C69.9549 46.1302 69.6336 47.2602 69.2909 48.3831C69.1471 48.8528 68.9689 49.3125 68.7797 49.7666C68.7098 49.9346 68.5603 50.0674 68.4564 50.2222C68.3946 50.3135 68.2997 50.4214 68.3072 50.514C68.3515 51.0526 68.1324 51.4172 67.6976 51.7334C67.3369 51.9959 67.0511 52.3612 66.6538 52.7595C66.9973 52.0452 67.3029 51.4298 67.5917 50.8067C68.3996 49.0634 69.0245 47.2537 69.4309 45.3763C69.5392 44.8777 69.873 44.9828 70.3123 44.9108L70.3115 44.9109Z"
    fill="#DC2626"
  />
  <path
    d="M14.4546 25.4493C14.7196 26.0041 14.9123 25.5416 15.2108 25.4462C15.0551 25.7696 14.9224 26.0441 14.7916 26.3152C14.6449 26.3114 14.5101 26.3083 14.2664 26.3016C14.7126 26.7987 14.3904 27.1841 14.2337 27.5895C14.0561 28.0483 13.9503 28.5529 13.6879 28.9559C13.3958 29.4047 13.4142 29.91 13.2503 30.3763C13.0798 30.8632 12.9691 31.3724 12.8448 31.8748C12.6902 32.502 12.6966 32.5027 11.9889 32.5383C12.5031 30.075 13.3236 27.7395 14.4537 25.4486L14.4546 25.4493Z"
    fill="#DC2626"
  />
</svg>
