<svg width="40" height="24" viewBox="0 0 40 24" fill="none" xmlns="http://www.w3.org/2000/svg">
<rect width="19.0036" height="12.2387" rx="1.0898" transform="matrix(-0.952211 -0.305441 -0.308989 0.951066 33 7.80469)" fill="url(#paint0_linear_566_1879)"/>
<g filter="url(#filter0_bi_566_1879)">
<path fill-rule="evenodd" clip-rule="evenodd" d="M29.6377 7.72363C30.2396 7.72363 30.7275 8.21155 30.7275 8.81343V21.814C30.7275 22.4159 30.2396 22.9038 29.6377 22.9038L7.08915 22.9038C6.48727 22.9038 5.99935 22.4159 5.99935 21.814V8.81343C5.99935 8.21155 6.48727 7.72363 7.08915 7.72363L29.6377 7.72363ZM26.7729 19.9121C27.2621 19.9121 27.6587 20.3087 27.6587 20.7979C27.6587 21.2872 27.2621 21.6838 26.7729 21.6838H21.6951C21.2059 21.6838 20.8093 21.2872 20.8093 20.7979C20.8093 20.3087 21.2059 19.9121 21.6951 19.9121H26.7729Z" fill="#DCEFFD" fill-opacity="0.75"/>
</g>
<defs>
<filter id="filter0_bi_566_1879" x="4.90922" y="6.63383" width="26.9081" height="17.3603" filterUnits="userSpaceOnUse" color-interpolation-filters="sRGB">
<feFlood flood-opacity="0" result="BackgroundImageFix"/>
<feGaussianBlur in="BackgroundImageFix" stdDeviation="0.5449"/>
<feComposite in2="SourceAlpha" operator="in" result="effect1_backgroundBlur_566_1879"/>
<feBlend mode="normal" in="SourceGraphic" in2="effect1_backgroundBlur_566_1879" result="shape"/>
<feColorMatrix in="SourceAlpha" type="matrix" values="0 0 0 0 0 0 0 0 0 0 0 0 0 0 0 0 0 0 127 0" result="hardAlpha"/>
<feOffset/>
<feGaussianBlur stdDeviation="0.5449"/>
<feComposite in2="hardAlpha" operator="arithmetic" k2="-1" k3="1"/>
<feColorMatrix type="matrix" values="0 0 0 0 1 0 0 0 0 1 0 0 0 0 1 0 0 0 0.8 0"/>
<feBlend mode="normal" in2="shape" result="effect2_innerShadow_566_1879"/>
</filter>
<linearGradient id="paint0_linear_566_1879" x1="9.50179" y1="0" x2="9.50179" y2="12.2387" gradientUnits="userSpaceOnUse">
<stop stop-color="#50B1FC"/>
<stop offset="1" stop-color="#005FBE"/>
</linearGradient>
</defs>
</svg>
