<svg xmlns="http://www.w3.org/2000/svg" fill="currentColor" viewBox="0 0 106 25">
  <path
    d="M50.138 9.99c0 5.51-4.02 9.99-9.927 9.99s-10.067-4.472-10.067-9.99c0-5.517 4.049-9.99 10.067-9.99 3.022 0 5.56 1.122 7.341 2.951l-3.425 3.057c-.894-.981-2.239-1.612-3.916-1.612-3.48 0-5.366 2.643-5.366 5.594 0 2.952 1.885 5.595 5.366 5.595 2.322 0 3.965-1.255 4.748-3L42.152 8.96h7.93c.028.301.056.708.056 1.037V9.99ZM52.447 0h4.374v19.98h-4.374V0Zm21.671 6.366L66.7 25.008h-4.402l2.052-5.378-5.747-13.264h4.721l3.154 7.747 2.995-7.747h4.645Zm1.831-.001h4.374v1.55c1.026-1.094 2.482-1.557 3.993-1.557 3.758 0 6.156 3.113 6.156 6.962 0 3.849-2.398 6.905-6.156 6.905-1.428 0-2.967-.379-3.993-1.367v6.141H75.95V6.365Zm10.094 6.955c0-1.802-1.103-3.113-2.912-3.113-1.81 0-2.94 1.31-2.94 3.113 0 1.801 1.103 3.056 2.94 3.056s2.912-1.339 2.912-3.056ZM97.231 0v8.188c.7-.96 1.914-1.5 3.453-1.5 3.21 0 5.317 2.32 5.317 5.7v7.6h-4.367v-6.941c0-1.444-.728-2.37-2.156-2.37-1.429 0-2.156.926-2.156 2.37v6.94h-4.375V0h4.291-.007ZM7.966 0H0v19.987h7.966V0Zm15.84 0H9.746v19.987h14.06V0Z"
  />
</svg>
