<svg xmlns="http://www.w3.org/2000/svg" viewBox="0 0 400 15" fill="#1C1917">
  <path
    fill-rule="evenodd"
    d="M12.846 8.561c-.107.037-.21.067-.308.093.112.145.204.313.266.495.236.675.048 1.409-.486 1.96-.368.388-.889.594-1.396.542-1.145-.11-2.006-1.196-1.915-2.422a2.755 2.755 0 0 1 .525-1.43 2.76 2.76 0 0 1-.525-1.431c-.09-1.228.77-2.315 1.917-2.426a1.75 1.75 0 0 1 1.396.544c.535.559.716 1.286.486 1.962a1.725 1.725 0 0 1-.27.502c.1.026.203.056.312.092.681-.326 1.53-.99 2.237-2.343.625-1.168 1.445-2.234 2.188-2.836l.09-.081a3.952 3.952 0 0 1 3.898-.765c1.285.441 2.265 1.522 2.605 2.889.028.102.049.205.07.316.194 1.021-.056 2.109-.674 2.983a4.565 4.565 0 0 1-.5.593c.178.176.346.375.503.595a3.943 3.943 0 0 1 .664 3.026c-.018.089-.037.182-.06.269-.347 1.365-1.32 2.444-2.603 2.884-.424.147-.861.22-1.292.22l-.006.008c-.938 0-1.86-.338-2.61-.984l-.077-.066c-.757-.616-1.583-1.68-2.207-2.855-.707-1.343-1.551-2.006-2.228-2.334Zm1.439-.764c.671-.504 1.369-1.263 1.967-2.407.528-.992 1.237-1.918 1.848-2.41l.104-.089a2.665 2.665 0 0 1 2.62-.514c.86.294 1.486.985 1.715 1.896a2.412 2.412 0 0 1-.382 2.072 2.874 2.874 0 0 1-.623.648 2.975 2.975 0 0 0-.248-.08c.63-.427.987-1.236.843-2.067-.167-.904-.813-1.617-1.653-1.822-.896-.213-1.806.19-2.432 1.087a2.775 2.775 0 0 0-.458 2.08c.11.62.387 1.177.78 1.615a3.3 3.3 0 0 0-.773 1.6 2.801 2.801 0 0 0 .459 2.076c.624.896 1.534 1.3 2.43 1.087.84-.198 1.485-.918 1.651-1.82.15-.83-.206-1.639-.836-2.064a2.97 2.97 0 0 0 .253-.085c.221.164.43.382.618.651.396.55.548 1.211.43 1.85a2.478 2.478 0 0 1-.048.22c-.23.91-.854 1.6-1.715 1.894a2.677 2.677 0 0 1-2.624-.514l-.09-.074c-.625-.506-1.333-1.43-1.86-2.429-.602-1.146-1.303-1.902-1.976-2.4Zm5.244.812a2.833 2.833 0 0 0 1.062.182l-.193 1.033c.278.059.458.352.402.66-.062.345-.305.617-.617.69-.368.088-.736-.102-1.042-.535a1.297 1.297 0 0 1-.222-.962c.078-.432.3-.809.61-1.068Zm-.003-1.613c-.315-.26-.541-.64-.62-1.077-.056-.323.02-.676.222-.962.306-.434.674-.633 1.042-.537.313.074.556.345.618.69.056.31-.125.603-.402.662l.193 1.037a2.799 2.799 0 0 0-1.053.187ZM11.392 8.8a2.28 2.28 0 0 1-.753-.152c-.157.193-.255.44-.272.7-.035.447.27.844.68.88a.442.442 0 0 0 .334-.139c.145-.154.208-.316.16-.448a.231.231 0 0 0-.202-.169l.053-.672Zm-.757-1.846a1.24 1.24 0 0 1-.28-.71c-.036-.449.27-.846.68-.882h.02a.44.44 0 0 1 .306.14c.153.154.209.315.16.448-.028.073-.09.161-.201.169l.054.683c-.255.009-.503.06-.74.152ZM6.2 10.8c.297 0 .594-.023.883-.085C8.228 10.478 9 9.51 9 8.303c0-1.207-.772-2.176-1.916-2.414-2.605-.546-5.91 1.627-6.14 1.778l-.008.005-.936.63.936.631C1.062 9.017 3.743 10.8 6.2 10.8Zm.601-3.444c.557.115.75.561.75.946 0 .384-.2.822-.75.937-1.218.254-2.844-.36-3.98-.937 1.136-.577 2.762-1.192 3.98-.938v-.008Z"
    clip-rule="evenodd"
  />
  <path stroke="#1C1917" d="M23 7.3h160.203" />
  <path
    fill-rule="evenodd"
    d="M198.75 6.953c.137.695.69 1.159 1.375 1.159h.004c.686 0 1.238-.464 1.371-1.159.309-1.596-.955-3.625-1.008-3.709l-.367-.579-.367.58a.077.077 0 0 1-.006.009c-.107.176-1.304 2.142-1.002 3.7Zm1.375.297c-.212 0-.46-.124-.526-.46-.15-.774.217-1.755.526-2.4.309.645.676 1.626.526 2.4-.066.34-.314.46-.526.46Zm2.286 5.676a2.658 2.658 0 0 1-1.747-.65 2.782 2.782 0 0 1-.534-.614c-.146.23-.327.44-.54.623-.495.42-1.11.65-1.746.65l-.005-.009c-.066 0-.128 0-.194-.009-.349.005-3.457-.048-5.588-3.89-.703-1.251-1.658-2.427-2.485-3.06l-.124-.101a3.998 3.998 0 0 0-3.775-.699c-1.247.403-2.153 1.353-2.485 2.6a3.152 3.152 0 0 0-.066.296c-.173.898.048 1.817.632 2.59.827 1.102 1.928 1.588 3.015 1.336a2.584 2.584 0 0 0 1.937-2.034 1.932 1.932 0 0 0-.359-1.503c-.49-.667-1.14-.968-1.781-.822a1.483 1.483 0 0 0-1.128 1.18 1.122 1.122 0 0 0 .867 1.313l-.168.85c-1.057-.209-1.751-1.252-1.547-2.322a2.348 2.348 0 0 1 1.786-1.861c.977-.221 1.976.208 2.67 1.15.469.636.654 1.432.513 2.179a3.44 3.44 0 0 1-2.591 2.714c-1.419.328-2.874-.291-3.904-1.658-.729-.972-1.008-2.135-.787-3.275.022-.12.049-.24.084-.354.412-1.534 1.521-2.701 3.051-3.197a4.86 4.86 0 0 1 4.584.854l.115.093c.916.702 1.928 1.945 2.702 3.315 1.893 3.416 4.609 3.446 4.811 3.448h.065a1.82 1.82 0 0 0 1.34-.437c.384-.332.619-.791.658-1.304.062-.783-.513-1.472-1.273-1.539a.985.985 0 0 0-.769.292c-.319.31-.429.677-.314 1.004a.745.745 0 0 0 .637.495l-.071.862a1.61 1.61 0 0 1-1.38-1.061c-.234-.65-.039-1.366.522-1.914.389-.38.929-.58 1.45-.535.678.06 1.262.421 1.635.942a2.26 2.26 0 0 1 1.641-.951c.517-.049 1.061.155 1.45.535.562.548.756 1.264.522 1.914a1.607 1.607 0 0 1-1.379 1.061l-.071-.862a.741.741 0 0 0 .637-.495c.119-.327.004-.694-.314-1.004a1.005 1.005 0 0 0-.77-.292c-.764.067-1.335.76-1.273 1.539.04.513.274.977.659 1.304a1.85 1.85 0 0 0 1.339.438h.059c.182 0 2.898.016 4.818-3.444.773-1.37 1.786-2.617 2.71-3.325l.106-.084a4.862 4.862 0 0 1 4.585-.853c1.529.495 2.643 1.662 3.05 3.196.031.115.058.235.08.354.221 1.14-.058 2.303-.787 3.272-1.026 1.366-2.485 1.99-3.904 1.658a3.445 3.445 0 0 1-2.591-2.715 2.815 2.815 0 0 1 .513-2.18c.694-.941 1.693-1.37 2.67-1.149a2.36 2.36 0 0 1 1.786 1.861c.204 1.07-.49 2.114-1.547 2.321l-.168-.849c.593-.115.982-.707.867-1.313a1.483 1.483 0 0 0-1.128-1.18c-.641-.146-1.291.155-1.781.822-.328.442-.46.99-.359 1.503a2.572 2.572 0 0 0 1.937 2.034c1.092.252 2.188-.234 3.015-1.335.579-.774.805-1.693.632-2.59a2.709 2.709 0 0 0-.045-.207 89.92 89.92 0 0 0-.021-.09c-.332-1.247-1.238-2.193-2.485-2.595a4.01 4.01 0 0 0-3.775.698l-.115.093c-.836.641-1.786 1.817-2.494 3.068-2.126 3.838-5.225 3.9-5.583 3.886a2.976 2.976 0 0 1-.195.01l-.004.008Z"
    clip-rule="evenodd"
  />
  <path stroke="#1C1917" d="M217.047 7.3H377.25" />
  <path
    fill="#1C1917"
    fill-rule="evenodd"
    d="m388.962 7.1.097-1.172c-.112-.007-.175-.09-.203-.161-.049-.126.007-.28.161-.428a.458.458 0 0 1 .309-.133h.021c.414.035.723.414.688.842a1.15 1.15 0 0 1-.4.793c-.169.15-.377.239-.594.261l-.079-.001Zm1.68.682c.439-.426.703-.997.754-1.615.092-1.172-.779-2.21-1.937-2.316a1.823 1.823 0 0 0-1.41.52c-.54.533-.723 1.228-.491 1.873.119.33.336.604.617.793-.716-.168-1.951-.709-2.919-2.463-.632-1.116-1.46-2.133-2.211-2.709l-.091-.077a4.17 4.17 0 0 0-3.937-.73 3.969 3.969 0 0 0-2.702 3.06c-.196.975.056 2.014.681 2.849.248.33.525.608.822.834-.293.224-.565.499-.808.822a3.611 3.611 0 0 0-.681 2.85l.01.044a3.982 3.982 0 0 0 2.692 3.015c.428.14.87.21 1.305.21l.007.008c.948 0 1.881-.323 2.639-.94l.077-.064c.765-.59 1.6-1.607 2.232-2.73.975-1.754 2.21-2.294 2.919-2.463a1.6 1.6 0 0 0-.624.793c-.239.646-.049 1.348.491 1.874a1.78 1.78 0 0 0 1.41.52c1.158-.106 2.029-1.145 1.937-2.317a2.524 2.524 0 0 0-.782-1.641Zm-1.673.707c.037 0 .074-.002.111-.005.208.028.407.12.569.259.231.196.379.484.4.793.035.428-.274.807-.688.842a.462.462 0 0 1-.337-.134c-.147-.147-.21-.301-.161-.428a.23.23 0 0 1 .203-.161l-.097-1.166Zm-9.111-1.38a2.946 2.946 0 0 0-.162 0c-.571-.029-1.131-.364-1.584-.963-.4-.526-.555-1.158-.435-1.768.014-.07.028-.14.049-.211.231-.87.863-1.53 1.733-1.81a2.813 2.813 0 0 1 2.646.49l.105.085c.618.47 1.334 1.354 1.867 2.302.73 1.32 1.606 2.103 2.406 2.567-.795.463-1.665 1.24-2.392 2.549-.533.954-1.249 1.838-1.881 2.322l-.091.07a2.826 2.826 0 0 1-2.653.492 2.572 2.572 0 0 1-1.733-1.81 2.285 2.285 0 0 1-.049-.21v-.001c-.12-.61.035-1.242.435-1.769.434-.586.974-.92 1.531-.964.078.003.156.003.234 0 .085.005.171.018.256.038a1.687 1.687 0 0 1 1.263 1.333 1.19 1.19 0 0 1-.224.92c-.309.414-.681.596-1.053.512a.828.828 0 0 1-.625-.66.534.534 0 0 1 .407-.631l-.266-1.348a1.907 1.907 0 0 0-1.488 2.232c.168.863.821 1.55 1.67 1.74.905.204 1.825-.182 2.456-1.038a2.561 2.561 0 0 0 .463-1.986 3.077 3.077 0 0 0-1.07-1.8 3.056 3.056 0 0 0 1.056-1.793 2.534 2.534 0 0 0-.463-1.986c-.631-.857-1.551-1.243-2.456-1.039a2.214 2.214 0 0 0-1.67 1.74 1.917 1.917 0 0 0 1.495 2.232l.266-1.347a.534.534 0 0 1-.407-.632.828.828 0 0 1 .625-.66c.372-.09.744.099 1.053.513.203.273.28.61.224.919a1.687 1.687 0 0 1-1.263 1.333c-.091.02-.183.033-.275.038Zm14.282 2.953c-.28 0-.561-.021-.835-.077-1.081-.218-1.81-1.102-1.81-2.204s.729-1.986 1.81-2.203c2.462-.498 5.586 1.485 5.803 1.623l.008.005.884.575-.884.576c-.12.077-2.653 1.705-4.976 1.705Zm-.568-3.144c-.527.105-.709.512-.709.863s.189.751.709.856c1.151.232 2.688-.33 3.761-.856-1.073-.526-2.61-1.088-3.761-.856v-.007Z"
    clip-rule="evenodd"
  />
</svg>
